<svg width="181" height="21" viewBox="0 0 181 21" fill="none" xmlns="http://www.w3.org/2000/svg">
<g id="Group">
<path id="Vector" d="M0.0644531 17.649C0.0644531 18.9937 1.05385 20.3981 3.5723 20.3981H14.4256C16.5543 20.3981 17.6636 19.5614 17.6636 17.5593V17.2605C17.6636 15.1688 16.5543 14.4217 14.4256 14.4217H9.56862L15.8647 7.93747C16.8841 6.89161 17.5737 6.2043 17.5737 4.11258V3.81377C17.5737 2.46909 16.5843 1.0647 14.0659 1.0647H3.5723C1.47359 1.0647 0.364269 1.90138 0.364269 3.90345V4.20227C0.364269 6.29398 1.47359 7.04102 3.5723 7.04102H7.88965L1.7734 13.5253C0.813993 14.5413 0.0644531 15.2585 0.0644531 17.3502V17.649Z" fill="black"/>
<path id="Vector_2" d="M20.0618 19.6809C21.261 20.3981 23.2698 20.8463 26.3279 20.8463C32.744 20.8463 35.7422 18.5454 35.7422 14.0333C35.7422 10.567 32.9539 8.89365 28.9063 8.02708C27.1674 7.66851 25.7883 7.63862 25.7883 6.98123C25.7883 6.3836 26.2979 6.14455 27.7371 6.14455C29.3861 6.14455 31.4248 6.92144 32.8339 7.99717C32.9838 8.1167 35.2924 6.35369 35.2924 4.41138C35.2924 3.33564 34.7528 2.40931 33.5235 1.72204C32.2943 1.03476 30.4054 0.616455 27.6471 0.616455C21.8007 0.616455 18.8026 3.00697 18.8026 7.28004C18.8026 11.3439 22.1605 12.6886 25.4884 13.346C27.1374 13.6747 28.3367 13.7345 28.3367 14.4815C28.3367 15.0791 27.797 15.3182 26.3279 15.3182C24.529 15.3182 21.9506 14.362 20.6314 13.4356C20.3916 13.2563 18.3828 15.1688 18.3828 16.8122C18.3828 17.9179 18.8325 18.9339 20.0618 19.6809Z" fill="black"/>
<path id="Vector_3" d="M39.4899 20.7268C41.0489 20.7268 42.578 19.8303 43.4775 17.3203L43.5374 17.1709H49.054L49.084 17.2306C50.1034 19.8602 51.7224 20.6969 53.2515 20.6969C55.4401 20.6969 57.4189 19.0235 57.1491 18.3661L50.793 2.88745C50.4632 1.75195 49.6537 0.915283 46.3557 0.915283C43.0577 0.915283 42.0983 1.75195 41.7685 2.88745L35.7422 18.4558C35.5024 19.1131 37.5111 20.7268 39.4899 20.7268ZM44.6168 12.0312L46.2358 7.63865L47.8548 12.0312H44.6168Z" fill="#F21D1D"/>
<path id="Vector_4" d="M56.9395 10.7164C56.9395 16.633 61.1069 20.8463 67.2831 20.8463C70.1613 20.8463 72.1101 20.0992 73.3394 19.1131C74.5387 18.0972 75.0483 16.8422 75.0483 15.7963C75.0483 12.8081 70.9409 12.091 70.8209 12.3001C70.2513 13.4655 69.2619 14.1229 67.7328 14.1229C65.904 14.1229 64.4648 12.838 64.4648 10.7164C64.4648 8.59484 65.904 7.33982 67.7328 7.33982C69.2619 7.33982 70.2513 7.99719 70.8209 9.16258C70.9409 9.37175 75.0483 8.65458 75.0483 5.66642C75.0483 4.62056 74.5387 3.36555 73.3394 2.34958C72.1101 1.36349 70.1613 0.616455 67.2831 0.616455C61.1069 0.616455 56.9395 4.85963 56.9395 10.7164Z" fill="#F21D1D"/>
<path id="Vector_5" d="M79.0055 20.7268C80.5646 20.7268 82.0936 19.8303 82.9931 17.3203L83.053 17.1709H88.5697L88.5996 17.2306C89.619 19.8602 91.238 20.6969 92.7671 20.6969C94.9557 20.6969 96.9345 19.0235 96.6647 18.3661L90.3086 2.88745C89.9788 1.75195 89.1693 0.915283 85.8713 0.915283C82.5733 0.915283 81.6139 1.75195 81.2841 2.88745L75.2578 18.4558C75.018 19.1131 77.0267 20.7268 79.0055 20.7268ZM84.1324 12.0312L85.7514 7.63865L87.3704 12.0312H84.1324Z" fill="#F21D1D"/>
<path id="Vector_6" d="M97.7441 16.394C97.7441 18.6052 99.543 20.3981 101.822 20.3981H106.739C113.005 20.3981 117.052 16.5434 117.052 10.6268C117.052 4.77002 113.125 1.0647 106.829 1.0647H101.522C99.3332 1.0647 97.7441 2.43923 97.7441 5.12858V16.394ZM106.499 14.2126H105V7.25015H106.589C108.538 7.25015 109.857 8.41557 109.857 10.6268C109.857 12.8978 108.418 14.2126 106.499 14.2126Z" fill="#F21D1D"/>
<path id="Vector_7" d="M122.39 20.3981H132.403C134.742 20.3981 135.791 19.5017 135.791 17.4996V17.3502C135.791 15.4676 134.742 14.7803 132.403 14.7803H126.017V13.2564H129.705C132.104 13.2564 133.093 12.4794 133.093 10.5969V10.5073C133.093 8.74425 132.134 8.0271 129.705 8.0271H126.017V6.7422H132.284C134.622 6.7422 135.671 5.99515 135.671 3.99309V3.84368C135.671 1.93125 134.622 1.0647 132.284 1.0647H122.39C119.961 1.0647 118.672 2.43923 118.672 5.12858V16.394C118.672 19.0833 119.961 20.3981 122.39 20.3981Z" fill="#F21D1D"/>
<path id="Vector_8" d="M137.29 17.1709C137.29 19.3821 138.13 20.5475 140.138 20.5475H141.338C143.436 20.5475 144.186 19.3821 144.186 17.1709V11.8818L145.175 15.4676C145.475 16.2146 145.265 16.9916 147.934 16.9916C150.602 16.9916 150.482 16.1847 150.752 15.4676L151.741 11.5531V17.1709C151.741 19.3821 152.581 20.5475 154.589 20.5475H155.789C157.887 20.5475 158.637 19.3821 158.637 17.1709V4.2919C158.637 2.02089 157.528 0.915283 155.429 0.915283H153.33C151.861 0.915283 151.112 1.15434 150.482 2.55877L147.963 9.13273L145.445 2.55877C144.875 1.27386 144.246 0.915283 142.477 0.915283H140.378C138.369 0.915283 137.29 2.02089 137.29 4.2919V17.1709Z" fill="#F21D1D"/>
<path id="Vector_9" d="M169.19 20.5476H170.24C172.338 20.5476 173.448 19.3823 173.448 17.171V12.9577L180.014 3.69443C180.224 3.39561 178.844 0.945312 175.457 0.945312C174.257 0.945312 173.088 1.63257 172.009 3.51511L169.76 7.31009L167.661 3.51511C166.672 1.69233 165.473 0.975175 164.243 0.975175C160.466 0.975175 159.236 3.33585 159.446 3.69443L166.102 12.9577V17.171C166.102 19.3823 167.182 20.5476 169.19 20.5476Z" fill="#F21D1D"/>
</g>
</svg>
