<svg width="163" height="28" viewBox="0 0 163 28" fill="none" xmlns="http://www.w3.org/2000/svg">
<g id="Group">
<g id="Group_2">
<g id="Group_3">
<path id="Vector" d="M0 24.6578C0 25.9987 0.990822 27.3992 3.51291 27.3992H14.3819C16.5137 27.3992 17.6246 26.5649 17.6246 24.5684V24.2705C17.6246 22.1847 16.5137 21.4397 14.3819 21.4397H9.51789L15.8231 14.9737C16.844 13.9308 17.5345 13.2455 17.5345 11.1597V10.8617C17.5345 9.52083 16.5437 8.12036 14.0216 8.12036H3.51291C1.41117 8.12036 0.300249 8.95468 0.300249 10.9511V11.2491C0.300249 13.3349 1.41117 14.0798 3.51291 14.0798H7.83649L1.71142 20.5458C0.750623 21.5589 0 22.2741 0 24.3599V24.6578Z" fill="black"/>
</g>
<path id="Vector_2" d="M28.4046 2.67154C30.5341 0.0247518 34.595 0.0469008 36.6962 2.71966L36.6963 2.71982C37.3393 3.5379 37.1921 4.71817 36.368 5.35637C35.5437 5.99423 34.3545 5.84838 33.7115 5.03059C33.1111 4.26689 31.9505 4.26778 31.3519 5.0296C31.3391 5.04604 31.326 5.06218 31.3127 5.07802C29.1864 7.72084 25.1254 7.70817 23.0205 5.03064C22.4201 4.26694 21.2596 4.26783 20.66 5.03089C20.0172 5.84888 18.8278 5.99498 18.0034 5.35702C17.179 4.71906 17.0318 3.5386 17.6747 2.72051C19.7922 0.0256996 23.8904 0.0296223 26.0052 2.71977C26.6057 3.48372 27.7662 3.48228 28.3643 2.72126C28.3774 2.70447 28.3909 2.68783 28.4046 2.67154ZM31.3127 5.07802L31.3213 5.0673L31.3007 5.09217L31.3127 5.07802ZM28.4046 2.67154L28.3953 2.68311L28.4177 2.6562L28.4046 2.67154Z" fill="#002FE0"/>
<path id="Vector_3" d="M30.9508 8.07641C30.99 8.03628 31.1702 7.97351 31.221 7.98379C32.1555 8.1731 32.9098 8.44281 33.508 8.77589C34.739 9.46123 35.2795 10.3849 35.2795 11.4576C35.2795 13.3945 32.9676 15.1525 32.8175 15.0333C31.4063 13.9606 29.3646 13.1859 27.7132 13.1859C26.272 13.1859 25.7616 13.4243 25.7616 14.0202C25.7616 14.6757 27.1427 14.7055 28.8842 15.0631C32.9376 15.9272 35.7299 17.5959 35.7299 21.0524C35.7299 25.5517 32.7274 27.8461 26.3021 27.8461C23.2395 27.8461 21.2278 27.3992 20.0269 26.684C18.7958 25.9391 18.3455 24.926 18.3455 23.8235C18.3455 22.1847 20.3571 20.2776 20.5973 20.4564C21.9184 21.3801 24.5006 22.3336 26.3021 22.3336C27.7733 22.3336 28.3137 22.0953 28.3137 21.4993C28.3137 20.7544 27.1127 20.6948 25.4614 20.367C22.1286 19.7115 18.7658 18.3706 18.7658 14.3182C18.7658 11.2935 20.2788 9.21471 23.2504 8.26323C23.3309 8.23741 23.6155 8.30152 23.6771 8.3556C25.7619 10.1854 28.9827 10.0904 30.9508 8.07641Z" fill="black"/>
</g>
<g id="Group_4">
<path id="Vector_4" d="M40.1697 27.4481H41.2506C43.3524 27.4481 44.4633 26.2562 44.4633 24.081V22.5911H46.2948C51.9995 22.5911 55.032 20.2371 55.032 15.41C55.032 10.4934 51.8794 8.02026 45.9645 8.02026H40.8002C38.3682 8.02026 37.0771 9.42073 37.0771 12.0727V24.081C37.0771 26.286 38.2181 27.4481 40.1697 27.4481ZM45.9045 17.3766H44.3432V13.4136H45.7543C47.1955 13.4136 47.9462 14.1287 47.9462 15.41C47.9462 16.6615 47.2256 17.3766 45.9045 17.3766Z" fill="#002FE0"/>
<path id="Vector_5" d="M60.2263 27.2991H68.6032C70.8851 27.2991 71.996 26.1966 71.996 24.1108V24.0214C71.996 22.025 70.8851 21.0119 68.6032 21.0119H63.8593V11.2384C63.8593 8.97383 62.7483 7.87134 60.6466 7.87134H59.5957C57.5841 7.87134 56.5032 8.97383 56.5032 11.2384V23.3063C56.5032 25.9881 57.7942 27.2991 60.2263 27.2991Z" fill="#002FE0"/>
<path id="Vector_6" d="M76.0796 27.6269C77.6409 27.6269 79.1721 26.733 80.0729 24.23L80.1329 24.081H85.6575L85.6875 24.1406C86.7084 26.7628 88.3297 27.5971 89.861 27.5971C92.0528 27.5971 94.0344 25.9285 93.7642 25.2729L87.399 9.83796C87.0687 8.70566 86.258 7.87134 82.9553 7.87134C79.6525 7.87134 78.6917 8.70566 78.3615 9.83796L72.3265 25.3623C72.0863 26.0179 74.0979 27.6269 76.0796 27.6269ZM81.2138 18.9559L82.8352 14.5757L84.4565 18.9559H81.2138Z" fill="#002FE0"/>
<path id="Vector_7" d="M102.201 27.4481C104.303 27.4481 105.534 26.6734 106.375 24.7068L112.53 10.4041C112.83 9.71877 110.548 7.87134 108.176 7.87134C106.555 7.87134 104.933 8.91424 104.273 11.2682L102.291 18.0918L100.28 11.2682C99.6791 9.21222 98.1478 7.87134 96.2562 7.87134C93.8242 7.87134 91.3922 9.71877 91.6925 10.4041L98.0878 24.7068C98.9885 26.7628 100.099 27.4481 102.201 27.4481Z" fill="#002FE0"/>
<path id="Vector_8" d="M119.015 6.82839C122.138 6.82839 125.05 5.24914 125.05 2.77597C125.05 1.25631 123.909 0.153809 122.348 0.153809C119.375 0.153809 117.634 4.02745 117.634 5.84508C117.634 6.64961 117.964 6.82839 119.015 6.82839ZM114.271 27.6269C115.832 27.6269 117.364 26.733 118.264 24.23L118.324 24.081H123.849L123.879 24.1406C124.9 26.7627 126.521 27.5971 128.052 27.5971C130.244 27.5971 132.226 25.9284 131.956 25.2729L125.59 9.83791C125.26 8.70562 124.449 7.8713 121.147 7.8713C117.844 7.8713 116.883 8.70562 116.553 9.83791L110.518 25.3623C110.278 26.0178 112.289 27.6269 114.271 27.6269ZM119.405 18.9559L121.027 14.5757L122.648 18.9559H119.405Z" fill="#002FE0"/>
<path id="Vector_9" d="M136.129 27.4481H136.73C138.831 27.4481 139.942 26.286 139.942 24.081V19.1347L145.707 25.9583C146.638 27.0608 147.148 27.4481 148.8 27.4481H149.4C151.202 27.4481 152.313 26.435 152.313 24.23V11.2384C152.313 9.03343 151.232 7.87134 149.22 7.87134H148.62C146.518 7.87134 145.407 9.03343 145.407 11.2384V16.3338L139.642 9.3612C138.681 8.2885 138.201 7.87134 136.55 7.87134H135.949C134.148 7.87134 133.037 8.88444 133.037 11.0894V24.081C133.037 26.286 134.118 27.4481 136.129 27.4481Z" fill="#002FE0"/>
<path id="Vector_10" d="M156.036 6.82839C159.158 6.82839 162.071 5.24914 162.071 2.77597C162.071 1.25631 160.93 0.153809 159.368 0.153809C156.396 0.153809 154.655 4.02745 154.655 5.84508C154.655 6.64961 154.985 6.82839 156.036 6.82839ZM154.594 24.081C154.594 26.286 155.675 27.4481 157.687 27.4481H158.738C160.84 27.4481 161.951 26.286 161.951 24.081V11.2384C161.951 8.97379 160.84 7.8713 158.738 7.8713H157.687C155.675 7.8713 154.594 8.97379 154.594 11.2384V24.081Z" fill="#002FE0"/>
</g>
</g>
</svg>
