<svg width="25" height="24" viewBox="0 0 25 24" fill="none" xmlns="http://www.w3.org/2000/svg">
<g id="ikona">
<path id="Vector" d="M19.5 11.9908C19.4951 11.4647 19.2832 10.9617 18.91 10.5908L14.62 6.29079C14.4326 6.10454 14.1792 6 13.915 6C13.6508 6 13.3974 6.10454 13.21 6.29079C13.1163 6.38376 13.0419 6.49436 12.9911 6.61622C12.9403 6.73808 12.9142 6.86878 12.9142 7.00079C12.9142 7.1328 12.9403 7.26351 12.9911 7.38537C13.0419 7.50723 13.1163 7.61783 13.21 7.71079L16.5 10.9908H6.5C6.23478 10.9908 5.98043 11.0961 5.79289 11.2837C5.60536 11.4712 5.5 11.7256 5.5 11.9908C5.5 12.256 5.60536 12.5104 5.79289 12.6979C5.98043 12.8854 6.23478 12.9908 6.5 12.9908H16.5L13.21 16.2808C13.0217 16.4678 12.9154 16.7219 12.9144 16.9873C12.9135 17.2526 13.018 17.5075 13.205 17.6958C13.392 17.8841 13.6461 17.9904 13.9115 17.9913C14.1768 17.9923 14.4317 17.8878 14.62 17.7008L18.91 13.4008C19.2856 13.0274 19.4978 12.5204 19.5 11.9908Z" fill="#118C8C"/>
</g>
</svg>
