<svg width="24" height="24" viewBox="0 0 24 24" fill="none" xmlns="http://www.w3.org/2000/svg">
<g id="ikona">
<path id="Vector" d="M19 11.9908C18.9951 11.4647 18.7832 10.9617 18.41 10.5908L14.12 6.29079C13.9326 6.10454 13.6792 6 13.415 6C13.1508 6 12.8974 6.10454 12.71 6.29079C12.6163 6.38376 12.5419 6.49436 12.4911 6.61622C12.4403 6.73808 12.4142 6.86878 12.4142 7.00079C12.4142 7.1328 12.4403 7.26351 12.4911 7.38537C12.5419 7.50723 12.6163 7.61783 12.71 7.71079L16 10.9908H6C5.73478 10.9908 5.48043 11.0961 5.29289 11.2837C5.10536 11.4712 5 11.7256 5 11.9908C5 12.256 5.10536 12.5104 5.29289 12.6979C5.48043 12.8854 5.73478 12.9908 6 12.9908H16L12.71 16.2808C12.5217 16.4678 12.4154 16.7219 12.4144 16.9873C12.4135 17.2526 12.518 17.5075 12.705 17.6958C12.892 17.8841 13.1461 17.9904 13.4115 17.9913C13.6768 17.9923 13.9317 17.8878 14.12 17.7008L18.41 13.4008C18.7856 13.0274 18.9978 12.5204 19 11.9908Z" fill="#CF0C0C"/>
</g>
</svg>
