<svg width="81" height="80" viewBox="0 0 81 80" fill="none" xmlns="http://www.w3.org/2000/svg">
<g id="boy">
<path id="Vector" d="M47.4507 42.7779C46.6263 42.7779 45.8204 42.5335 45.1349 42.0757C44.4494 41.6178 43.9151 40.9671 43.5996 40.2057C43.2841 39.4444 43.2016 38.6066 43.3624 37.7984C43.5232 36.9901 43.9202 36.2477 44.5032 35.665C45.0862 35.0822 45.8289 34.6854 46.6375 34.5246C47.4461 34.3639 48.2842 34.4464 49.0459 34.7617C49.8076 35.0771 50.4586 35.6112 50.9166 36.2964C51.3747 36.9816 51.6191 37.7871 51.6191 38.6112C51.6191 39.7163 51.18 40.7761 50.3982 41.5575C49.6165 42.3389 48.5563 42.7779 47.4507 42.7779ZM67.8787 29.6501C66.763 23.206 63.403 17.364 58.393 13.1578C53.383 8.95159 47.0461 6.65233 40.5034 6.66682C21.3287 6.66682 15.8375 19.6501 12.211 28.2418C11.4756 30.6728 10.2255 32.9171 8.54553 34.8223C8.04368 35.1149 7.64618 35.5573 7.40892 36.0874C7.17167 36.6175 7.10658 37.2086 7.22282 37.7776C7.33905 38.3466 7.63077 38.8648 8.05694 39.2595C8.48312 39.6542 9.02232 39.9054 9.59875 39.9779C16.4677 40.5553 23.3763 39.5085 29.7655 36.9223C29.413 37.7032 29.3099 38.5738 29.4702 39.4154C29.6305 40.257 30.0464 41.0287 30.6613 41.6255C31.2762 42.2223 32.0602 42.6151 32.9066 42.7505C33.7529 42.8858 34.6204 42.7571 35.3909 42.3818C36.1613 42.0066 36.7974 41.403 37.2123 40.6534C37.6273 39.9038 37.801 39.0445 37.7098 38.1927C37.6186 37.3408 37.2669 36.5378 36.7026 35.8929C36.1383 35.2481 35.3889 34.7928 34.5564 34.589C40.016 31.5319 44.7218 27.2922 48.3289 22.1807C48.5578 21.8852 48.7247 21.5465 48.8195 21.185C48.9144 20.8235 48.9353 20.4465 48.881 20.0767C48.8267 19.707 48.6983 19.3519 48.5035 19.0329C48.3087 18.7139 48.0515 18.4375 47.7473 18.2202C47.4431 18.0029 47.0981 17.8491 46.7331 17.7682C46.3681 17.6873 45.9904 17.6809 45.6228 17.7493C45.2553 17.8177 44.9053 17.9596 44.5938 18.1664C44.2824 18.3732 44.0159 18.6407 43.8103 18.9529C40.5696 23.5136 36.3391 27.2828 31.4354 29.9784C26.5317 32.6741 21.0816 34.2265 15.4929 34.5196C16.1237 33.2612 16.7101 31.864 17.3325 30.4001C20.7506 22.3001 25.0052 12.2224 40.5034 12.2224C45.9941 12.2092 51.2943 14.2332 55.3778 17.9023C59.4612 21.5714 62.0372 26.6247 62.6071 32.0835C62.6707 32.6803 62.926 33.2405 63.3348 33.6801C63.7436 34.1198 64.2839 34.4153 64.8747 34.5223C65.8872 34.7203 66.7902 35.2865 67.4092 36.1115C68.0283 36.9364 68.3192 37.9615 68.2259 38.9885C68.1325 40.0155 67.6615 40.9714 66.9039 41.6714C66.1463 42.3713 65.156 42.7656 64.1244 42.7779C63.8893 42.7714 63.6552 42.7463 63.4241 42.7029C62.776 42.5848 62.1069 42.7021 61.5377 43.0337C60.9686 43.3653 60.5367 43.8893 60.32 44.5112C57.7745 51.7251 49.207 59.4445 40.5034 59.4445C32.4444 59.4445 24.9413 53.1029 21.701 46.8362C21.362 46.182 20.7769 45.6892 20.0744 45.4663C19.3719 45.2433 18.6095 45.3084 17.955 45.6473C17.3006 45.9862 16.8076 46.5711 16.5845 47.2733C16.3615 47.9755 16.4266 48.7376 16.7656 49.3918C19.6458 54.7635 24.0327 59.1775 29.3876 62.0918V70.5556C29.3876 71.2924 29.6804 71.9989 30.2015 72.5198C30.7227 73.0408 31.4295 73.3334 32.1665 73.3334C32.9036 73.3334 33.6104 73.0408 34.1316 72.5198C34.6527 71.9989 34.9455 71.2924 34.9455 70.5556V64.2723C38.5862 65.2501 42.4206 65.2501 46.0613 64.2723V70.5556C46.0613 71.2924 46.354 71.9989 46.8752 72.5198C47.3963 73.0408 48.1032 73.3334 48.8402 73.3334C49.5772 73.3334 50.2841 73.0408 50.8052 72.5198C51.3264 71.9989 51.6191 71.2924 51.6191 70.5556V62.0945C57.3552 59.0121 61.9609 54.1846 64.7691 48.3112C66.9528 48.1623 69.0224 47.2815 70.6433 45.8112C72.2641 44.3409 73.3415 42.3671 73.7011 40.209C74.0607 38.0508 73.6816 35.8345 72.625 33.9185C71.5685 32.0024 69.8962 30.4986 67.8787 29.6501Z" fill="#015151"/>
</g>
</svg>
