<?xml version="1.0" encoding="UTF-8"?>
<svg id="Vrstva_1" data-name="Vrstva 1" xmlns="http://www.w3.org/2000/svg" viewBox="0 0 26.67 26.67">
  <defs>
    <style>
      .cls-1 {
        fill: #00a5ff;
        fill-rule: evenodd;
      }
    </style>
  </defs>
  <g id="bus">
    <path id="Union" class="cls-1" d="M6.67,0c-2.1,0-3.8,1.71-3.8,3.81v.63c-1.62,.43-2.87,1.85-2.87,3.62v1.6c0,.58,.47,1.04,1.04,1.04h1.82v11.51c0,.42,.25,.78,.6,.95v2.48c0,.58,.47,1.04,1.04,1.04h4.04c.58,0,1.04-.47,1.04-1.04v-2.38h7.46v2.38c0,.58,.47,1.04,1.04,1.04h4.04c.58,0,1.04-.47,1.04-1.04v-2.48c.36-.17,.6-.53,.6-.95V10.69h1.83c.58,0,1.04-.47,1.04-1.04v-1.6c0-1.77-1.25-3.19-2.87-3.62v-.62c0-2.1-1.7-3.81-3.8-3.81H6.67ZM23.79,8.6h.79v-.56c0-.54-.3-1.06-.79-1.37v1.93Zm-2.1-4.97c-.09-.87-.82-1.54-1.7-1.54H6.67c-.89,0-1.62,.67-1.7,1.54H21.69ZM2.87,6.68c-.48,.31-.78,.83-.78,1.36v.56h.78v-1.92Zm2.09,3.05s0-.05,0-.08,0-.06,0-.08v-3.85H21.7V15.04h-1.1c-.46-1.78-2.07-3.09-3.99-3.09s-3.53,1.31-3.99,3.09H4.95v-5.31Zm0,7.4v4.02H21.7v-4.02H4.95Zm16.15,6.11h-1.95v1.34h1.95v-1.34Zm-13.59,0h-1.95v1.34h1.95v-1.34Zm10.85-8.2h-3.51c.35-.6,1.01-1,1.75-1s1.4,.4,1.75,1Z"/>
  </g>
</svg>