<svg width="32" height="32" viewBox="0 0 32 32" fill="none" xmlns="http://www.w3.org/2000/svg">
<g id="bus">
<path id="Union" fill-rule="evenodd" clip-rule="evenodd" d="M9.33358 2.66663C7.23246 2.66663 5.53225 4.37237 5.53225 6.4727V7.09925C3.90927 7.53314 2.6665 8.95067 2.6665 10.7145V12.315C2.6665 12.8918 3.13406 13.3593 3.71081 13.3593H5.53226V24.8644C5.53226 25.2831 5.77866 25.6443 6.13436 25.8108V28.289C6.13436 28.8657 6.60192 29.3333 7.17867 29.3333H11.2215C11.7983 29.3333 12.2658 28.8657 12.2658 28.289V25.9087H19.7251V28.289C19.7251 28.8657 20.1927 29.3333 20.7694 29.3333H24.8122C25.3889 29.3333 25.8565 28.8657 25.8565 28.289V25.8108C26.2122 25.6443 26.4587 25.2832 26.4587 24.8644V13.3593H28.2889C28.8656 13.3593 29.3332 12.8918 29.3332 12.315V10.7145C29.3332 8.94749 28.0859 7.52803 26.4586 7.09692V6.4727C26.4586 4.37239 24.7584 2.66663 22.6574 2.66663H9.33358ZM26.4587 11.2707H27.2445V10.7145C27.2445 10.1726 26.9452 9.6552 26.4587 9.34517V11.2707ZM24.3612 6.29759C24.2737 5.42997 23.5428 4.75525 22.6574 4.75525H9.33358C8.44812 4.75525 7.71719 5.42998 7.62965 6.29759H24.3612ZM5.53226 9.35079C5.05093 9.66142 4.75512 10.1758 4.75512 10.7145V11.2707H5.53226V9.35079ZM7.62088 12.3979C7.62303 12.3705 7.62412 12.3429 7.62412 12.315C7.62412 12.2871 7.62303 12.2595 7.62088 12.2322V8.38621H24.37V17.7083H23.269C22.8091 15.9321 21.1955 14.6204 19.2756 14.6204C17.3557 14.6204 15.7421 15.9321 15.2822 17.7083H7.62088V12.3979ZM7.62088 19.7969V23.8201H24.37V19.7969H7.62088ZM23.7679 25.9087H21.8137V27.2447H23.7679V25.9087ZM10.1772 25.9087H8.22299V27.2447H10.1772V25.9087ZM21.0283 17.7083H17.5228C17.8775 17.1101 18.5297 16.7091 19.2756 16.7091C20.0215 16.7091 20.6737 17.1101 21.0283 17.7083Z" fill="#002FE0"/>
</g>
</svg>
