<?xml version="1.0" encoding="UTF-8"?>
<svg id="Vrstva_1" data-name="Vrstva 1" xmlns="http://www.w3.org/2000/svg" viewBox="0 0 17.5 17.5">
  <defs>
    <style>
      .cls-1 {
        fill: #5cae13;
        fill-rule: evenodd;
      }
    </style>
  </defs>
  <g id="ikona">
    <path id="Vector" class="cls-1" d="M9.21,.74c.05-.46,.46-.79,.92-.74,1.88,.21,3.63,1.05,4.97,2.39,1.34,1.34,2.18,3.09,2.39,4.97,.05,.46-.28,.87-.74,.92-.46,.05-.87-.28-.92-.74-.17-1.5-.84-2.9-1.91-3.97-1.07-1.07-2.47-1.74-3.97-1.91-.46-.05-.79-.46-.74-.92Zm-7.16,.09s.06,0,.08,0h2.35s.05,0,.07,0c.26,0,.58,0,.88,.11,.25,.1,.48,.26,.66,.46,.21,.24,.32,.54,.4,.79,0,.02,.02,.05,.02,.07l.98,2.69c.06,.16,.12,.33,.16,.47,.05,.16,.08,.35,.07,.57-.02,.31-.13,.6-.3,.86-.13,.18-.28,.3-.41,.4-.12,.09-.27,.18-.42,.27,0,0-.01,0-.02,.01l-.48,.29c.84,1.5,2.09,2.76,3.59,3.59l.3-.5c.09-.15,.18-.3,.27-.42,.1-.14,.22-.29,.4-.41,.25-.18,.55-.28,.86-.3,.22-.01,.41,.02,.57,.07,.14,.04,.31,.1,.47,.16l2.69,.98s.04,.02,.07,.02c.24,.09,.55,.2,.79,.4,.21,.18,.36,.41,.46,.66,.11,.3,.11,.62,.11,.88,0,.02,0,.05,0,.07v2.35s0,.05,0,.08c0,.31,0,.7-.17,1.05-.14,.29-.39,.56-.67,.72-.34,.19-.71,.22-.99,.24-.02,0-.05,0-.07,0-.34,.02-.68,.04-1.02,.04C6.16,17.5,0,11.34,0,3.75c0-.34,.01-.68,.04-1.02,0-.02,0-.05,0-.07,.02-.29,.04-.65,.24-.99,.16-.28,.43-.53,.72-.67,.35-.17,.74-.17,1.05-.17Zm-.32,1.67s0,.06-.01,.12c0,.06-.01,.13-.02,.23-.02,.3-.03,.59-.03,.9,0,6.67,5.41,12.08,12.08,12.08,.3,0,.6-.01,.9-.03,.09,0,.16-.01,.23-.02,.06,0,.09,0,.12-.01,0,0,0,0,0,0,0-.08,0-.19,0-.4v-2.35c0-.18,0-.27,0-.34,0,0,0,0,0,0,0,0,0,0,0,0-.06-.03-.15-.06-.32-.12l-2.67-.97c-.2-.07-.3-.11-.38-.13,0,0,0,0,0,0,0,0,0,0,0,0-.05,.07-.1,.16-.21,.34l-.68,1.14c-.22,.36-.67,.5-1.06,.33-2.39-1.08-4.33-3.02-5.42-5.41-.17-.39-.03-.84,.33-1.06l1.14-.68c.18-.11,.27-.16,.34-.21,0,0,0,0,0,0,0,0,0,0,0,0-.02-.08-.06-.18-.13-.38l-.97-2.67c-.06-.17-.09-.26-.12-.32,0,0,0,0,0,0,0,0,0,0,0,0-.07,0-.16,0-.34,0H2.14c-.21,0-.32,0-.4,0,0,0,0,0,0,0Zm7.49,1.5c.09-.45,.53-.75,.98-.66,.98,.19,1.87,.67,2.58,1.37,.7,.7,1.18,1.6,1.37,2.58,.09,.45-.21,.89-.66,.98-.45,.09-.89-.21-.98-.66-.13-.65-.45-1.25-.91-1.72-.47-.47-1.07-.79-1.72-.91-.45-.09-.75-.53-.66-.98Z"/>
  </g>
</svg>