<svg width="24" height="25" viewBox="0 0 24 25" fill="none" xmlns="http://www.w3.org/2000/svg">
<g id="ikona">
<path id="Vector" fill-rule="evenodd" clip-rule="evenodd" d="M12.2135 4.2414C12.2642 3.78398 12.6763 3.45435 13.1337 3.50517C15.0127 3.71391 16.7648 4.55533 18.1025 5.89128C19.4401 7.22724 20.2837 8.97833 20.4948 10.857C20.5462 11.3144 20.2171 11.7268 19.7598 11.7782C19.3024 11.8296 18.89 11.5005 18.8386 11.0432C18.6697 9.54017 17.9948 8.13931 16.9247 7.07054C15.8546 6.00178 14.4528 5.32863 12.9497 5.16164C12.4922 5.11083 12.1627 4.69882 12.2135 4.2414ZM5.05151 4.33312C5.0801 4.33327 5.10797 4.33341 5.13501 4.33341H7.48277C7.50589 4.33341 7.52968 4.33331 7.55406 4.33321C7.8117 4.33213 8.13507 4.33077 8.43039 4.44416C8.68518 4.54199 8.91204 4.70089 9.09105 4.9069C9.29855 5.1457 9.40777 5.45006 9.49481 5.69256C9.50304 5.71551 9.51108 5.7379 9.51898 5.75963L10.4987 8.45384C10.5587 8.61884 10.6183 8.78249 10.6588 8.92672C10.7041 9.08743 10.7427 9.27889 10.7285 9.49726C10.7084 9.80505 10.6034 10.1012 10.4251 10.3529C10.2985 10.5314 10.1479 10.6558 10.0115 10.7521C9.88908 10.8385 9.73975 10.9281 9.58918 11.0184C9.58255 11.0223 9.57591 11.0263 9.56927 11.0303L9.09186 11.3168C9.92792 12.8214 11.1789 14.0734 12.6831 14.9086L12.9817 14.4109C13.072 14.2603 13.1616 14.111 13.248 13.9886C13.3443 13.8522 13.4687 13.7016 13.6472 13.575C13.8988 13.3967 14.195 13.2916 14.5028 13.2716C14.7212 13.2574 14.9127 13.296 15.0733 13.3413C15.2176 13.3818 15.3812 13.4413 15.5462 13.5014L18.2404 14.4811C18.2622 14.489 18.2846 14.497 18.3075 14.5053C18.55 14.5923 18.8544 14.7015 19.0932 14.909C19.2992 15.088 19.4581 15.3149 19.5559 15.5697C19.6693 15.865 19.6679 16.1883 19.6668 16.446C19.6667 16.4704 19.6667 16.4942 19.6667 16.5173V18.8651C19.6667 18.8921 19.6668 18.92 19.6669 18.9486C19.6685 19.2563 19.6705 19.6477 19.5012 19.9988C19.3599 20.2918 19.1136 20.5568 18.8316 20.7192C18.4948 20.9132 18.1258 20.9383 17.8408 20.9578C17.8158 20.9596 17.7914 20.9613 17.7677 20.9629C17.4316 20.9876 17.0922 21.0001 16.75 21.0001C9.15608 21.0001 3 14.844 3 7.25008C3 6.9079 3.01252 6.56849 3.03713 6.23232C3.03887 6.20869 3.04052 6.18435 3.04223 6.15936C3.06172 5.87425 3.08694 5.50533 3.2809 5.16846C3.44326 4.88648 3.70827 4.64016 4.00137 4.49883C4.35237 4.32958 4.74383 4.33156 5.05151 4.33312ZM4.73101 6.00768C4.72678 6.03441 4.72218 6.07214 4.71701 6.12866C4.71138 6.19012 4.70614 6.26123 4.69935 6.35404C4.67769 6.64975 4.66667 6.94855 4.66667 7.25008C4.66667 13.9235 10.0766 19.3334 16.75 19.3334C17.0515 19.3334 17.3503 19.3224 17.646 19.3008C17.7388 19.2939 17.8099 19.2887 17.8714 19.2831C17.9279 19.2779 17.9657 19.2733 17.9924 19.2691C17.9925 19.2681 17.9926 19.267 17.9927 19.2659C17.9993 19.1879 18 19.079 18 18.8651V16.5173C18 16.338 17.9996 16.2446 17.995 16.1771C17.9948 16.1749 17.9947 16.1729 17.9946 16.1709C17.9927 16.1701 17.9908 16.1693 17.9889 16.1684C17.927 16.141 17.8393 16.1087 17.6708 16.0474L14.9985 15.0757C14.803 15.0046 14.6988 14.9673 14.6218 14.9456C14.6191 14.9448 14.6166 14.9441 14.6141 14.9434C14.6127 14.9455 14.6111 14.9477 14.6094 14.9499C14.5633 15.0153 14.5059 15.1099 14.3989 15.2883L13.7146 16.4288C13.4968 16.7917 13.0417 16.9338 12.6562 16.7592C10.2633 15.6755 8.32595 13.7353 7.24113 11.3444C7.06617 10.9588 7.20818 10.5033 7.57125 10.2855L8.71178 9.60118C8.89019 9.49413 8.98479 9.43675 9.05012 9.39062C9.05242 9.389 9.05458 9.38745 9.05664 9.38597C9.05597 9.38353 9.05527 9.38095 9.05451 9.37825C9.03284 9.30126 8.99553 9.19709 8.92443 9.00157L7.95266 6.3292C7.89139 6.16071 7.85905 6.07307 7.83168 6.01119C7.83081 6.00921 7.82997 6.00733 7.82916 6.00553C7.82719 6.00538 7.82513 6.00523 7.82297 6.00509C7.75548 6.00052 7.66205 6.00008 7.48277 6.00008H5.13501C4.9211 6.00008 4.81217 6.00077 4.73412 6.00741C4.73306 6.0075 4.73202 6.00759 4.73101 6.00768ZM12.2238 7.50716C12.3119 7.05544 12.7496 6.7607 13.2013 6.84883C14.178 7.03939 15.0757 7.51708 15.7793 8.22077C16.483 8.92444 16.9608 9.82209 17.1512 10.7988C17.2394 11.2506 16.9447 11.6882 16.4929 11.7763C16.0412 11.8644 15.6036 11.5697 15.5155 11.118C15.3884 10.4668 15.0699 9.86839 14.6008 9.39928C14.1317 8.93016 13.5332 8.61169 12.8822 8.48465C12.4304 8.39652 12.1357 7.95888 12.2238 7.50716Z" fill="#D9B770"/>
</g>
</svg>
