<svg width="80" height="80" viewBox="0 0 80 80" fill="none" xmlns="http://www.w3.org/2000/svg">
<g id="diplom">
<g id="Vector">
<path fill-rule="evenodd" clip-rule="evenodd" d="M6.66675 23.4019C6.66675 24.7656 7.77222 25.8711 9.13589 25.8711H23.2661C24.6297 25.8711 25.7352 24.7656 25.7352 23.4019V16.201C25.7352 10.9354 21.4666 6.66675 16.201 6.66675C10.9354 6.66675 6.66675 10.9354 6.66675 16.201V23.4019ZM11.605 20.9328V16.201C11.605 13.6627 13.6627 11.605 16.201 11.605C18.7393 11.605 20.7969 13.6627 20.7969 16.201V20.9328H11.605Z" fill="#001F94"/>
<path fill-rule="evenodd" clip-rule="evenodd" d="M20.7968 63.7993C20.7968 69.065 25.0654 73.3334 30.331 73.3334C35.5966 73.3334 39.8652 69.065 39.8652 63.7993V58.1402C39.8652 56.7765 38.7598 55.671 37.3961 55.671H23.2659C21.9022 55.671 20.7968 56.7765 20.7968 58.1402V63.7993ZM30.331 68.3951C27.7926 68.3951 25.735 66.3376 25.735 63.7993V60.6093H34.9269V63.7993C34.9269 66.3376 32.8693 68.3951 30.331 68.3951Z" fill="#001F94"/>
<path fill-rule="evenodd" clip-rule="evenodd" d="M27.7625 70.8643C27.7625 72.228 28.868 73.3334 30.2317 73.3334H63.9998C69.1635 73.3334 73.3494 69.1474 73.3494 63.9837V58.1402C73.3494 56.7765 72.2439 55.671 70.8802 55.671H37.2968C35.9331 55.671 34.8276 56.7765 34.8276 58.1402C34.8276 59.5038 35.9331 60.6093 37.2968 60.6093H68.4111V63.9837C68.4111 66.4201 66.4361 68.3951 63.9998 68.3951H30.2317C28.868 68.3951 27.7625 69.5006 27.7625 70.8643Z" fill="#001F94"/>
<path fill-rule="evenodd" clip-rule="evenodd" d="M64.7076 60.6217C66.0712 60.6217 67.1767 59.5163 67.1767 58.1526V47.4185C67.1767 46.0549 66.0712 44.9494 64.7076 44.9494C63.3439 44.9494 62.2384 46.0549 62.2384 47.4185V58.1526C62.2384 59.5163 63.3439 60.6217 64.7076 60.6217Z" fill="#001F94"/>
<path fill-rule="evenodd" clip-rule="evenodd" d="M64.7076 19.3525C66.0713 19.3525 67.1768 18.247 67.1768 16.8833V16.2858C67.1768 10.9734 62.8703 6.66675 57.5578 6.66675L16.201 6.66675C14.8373 6.66675 13.7319 7.77222 13.7319 9.13589C13.7319 10.4996 14.8373 11.605 16.201 11.605L57.5578 11.605C60.1429 11.605 62.2385 13.7007 62.2385 16.2858V16.8833C62.2385 18.247 63.344 19.3525 64.7076 19.3525Z" fill="#001F94"/>
<path fill-rule="evenodd" clip-rule="evenodd" d="M23.2659 60.6093C24.6296 60.6093 25.735 59.5039 25.735 58.1402L25.7352 23.4019C25.7352 22.0383 24.6296 20.9328 23.2659 20.9328C21.9022 20.9328 20.7968 22.0383 20.7968 23.4019V58.1402C20.7968 59.5038 21.9022 60.6093 23.2659 60.6093Z" fill="#001F94"/>
<path fill-rule="evenodd" clip-rule="evenodd" d="M48.3659 26.1203C48.3659 33.0149 53.9549 38.6042 60.8497 38.6042C67.7443 38.6042 73.3335 33.0149 73.3335 26.1203C73.3335 19.2257 67.7443 13.6364 60.8497 13.6364C53.9549 13.6364 48.3659 19.2257 48.3659 26.1203ZM60.8497 33.6659C56.6823 33.6659 53.3041 30.2876 53.3041 26.1203C53.3041 21.953 56.6823 18.5747 60.8497 18.5747C65.0169 18.5747 68.3952 21.953 68.3952 26.1203C68.3952 30.2876 65.0169 33.6659 60.8497 33.6659Z" fill="#001F94"/>
<path fill-rule="evenodd" clip-rule="evenodd" d="M52.2815 51.3581C53.0289 51.8034 53.9555 51.8225 54.7206 51.4084L60.8496 48.091L66.9786 51.4084C67.7437 51.8225 68.6704 51.8034 69.4178 51.3581C70.1652 50.9128 70.6231 50.1069 70.6231 49.2369V32.9904C70.6231 31.6268 69.5176 30.5213 68.1539 30.5213C66.7903 30.5213 65.6848 31.6268 65.6848 32.9904V45.0928L62.025 43.1119C61.2917 42.715 60.4076 42.715 59.6743 43.1119L56.0145 45.0928V32.9705C56.0145 31.6068 54.909 30.5013 53.5453 30.5013C52.1816 30.5013 51.0762 31.6068 51.0762 32.9705V49.2369C51.0762 50.1069 51.5341 50.9128 52.2815 51.3581Z" fill="#001F94"/>
<path fill-rule="evenodd" clip-rule="evenodd" d="M32.4607 23.4774C32.4607 24.841 33.5662 25.9465 34.9298 25.9465H51.1836C52.5473 25.9465 53.6528 24.841 53.6528 23.4774C53.6528 22.1137 52.5473 21.0082 51.1836 21.0082H34.9298C33.5662 21.0082 32.4607 22.1137 32.4607 23.4774Z" fill="#001F94"/>
<path fill-rule="evenodd" clip-rule="evenodd" d="M32.4607 31.3761C32.4607 32.7398 33.5662 33.8453 34.9298 33.8453H52.3226C53.6863 33.8453 54.7918 32.7398 54.7918 31.3761C54.7918 30.0125 53.6863 28.907 52.3226 28.907H34.9298C33.5662 28.907 32.4607 30.0125 32.4607 31.3761Z" fill="#001F94"/>
<path fill-rule="evenodd" clip-rule="evenodd" d="M32.4607 39.2751C32.4607 40.6388 33.5662 41.7442 34.9298 41.7442H53.5444C54.9081 41.7442 56.0135 40.6388 56.0135 39.2751C56.0135 37.9114 54.9081 36.8059 53.5444 36.8059H34.9298C33.5662 36.8059 32.4607 37.9114 32.4607 39.2751Z" fill="#001F94"/>
<path fill-rule="evenodd" clip-rule="evenodd" d="M32.4607 47.3635C32.4607 48.7272 33.5662 49.8327 34.9298 49.8327H43.8326C45.1962 49.8327 46.3017 48.7272 46.3017 47.3635C46.3017 45.9999 45.1962 44.8944 43.8326 44.8944H34.9298C33.5662 44.8944 32.4607 45.9999 32.4607 47.3635Z" fill="#001F94"/>
</g>
</g>
</svg>
