<svg width="80" height="80" viewBox="0 0 80 80" fill="none" xmlns="http://www.w3.org/2000/svg">
<g id="diplom">
<g id="Vector">
<path fill-rule="evenodd" clip-rule="evenodd" d="M6.66699 23.402C6.66699 24.7657 7.77246 25.8711 9.13613 25.8711H23.2663C24.63 25.8711 25.7354 24.7657 25.7354 23.402V16.201C25.7354 10.9354 21.4668 6.66681 16.2012 6.66681C10.9356 6.66681 6.66699 10.9354 6.66699 16.201V23.402ZM11.6053 20.9329V16.201C11.6053 13.6627 13.6629 11.6051 16.2012 11.6051C18.7395 11.6051 20.7972 13.6627 20.7972 16.201V20.9329H11.6053Z" fill="#274F03"/>
<path fill-rule="evenodd" clip-rule="evenodd" d="M20.797 63.7994C20.797 69.0651 25.0657 73.3335 30.3312 73.3335C35.5968 73.3335 39.8655 69.0651 39.8655 63.7994V58.1402C39.8655 56.7766 38.76 55.6711 37.3963 55.6711H23.2662C21.9025 55.6711 20.797 56.7766 20.797 58.1402V63.7994ZM30.3312 68.3952C27.7929 68.3952 25.7353 66.3376 25.7353 63.7994V60.6094H34.9272V63.7994C34.9272 66.3376 32.8696 68.3952 30.3312 68.3952Z" fill="#274F03"/>
<path fill-rule="evenodd" clip-rule="evenodd" d="M27.7628 70.8643C27.7628 72.228 28.8682 73.3335 30.2319 73.3335H64C69.1638 73.3335 73.3496 69.1474 73.3496 63.9838V58.1402C73.3496 56.7766 72.2441 55.6711 70.8805 55.6711H37.297C35.9333 55.6711 34.8279 56.7766 34.8279 58.1402C34.8279 59.5039 35.9333 60.6094 37.297 60.6094H68.4113V63.9838C68.4113 66.4202 66.4363 68.3952 64 68.3952H30.2319C28.8682 68.3952 27.7628 69.5007 27.7628 70.8643Z" fill="#274F03"/>
<path fill-rule="evenodd" clip-rule="evenodd" d="M64.7078 60.6218C66.0715 60.6218 67.177 59.5163 67.177 58.1527V47.4186C67.177 46.0549 66.0715 44.9494 64.7078 44.9494C63.3442 44.9494 62.2387 46.0549 62.2387 47.4186V58.1527C62.2387 59.5163 63.3442 60.6218 64.7078 60.6218Z" fill="#274F03"/>
<path fill-rule="evenodd" clip-rule="evenodd" d="M64.7079 19.3525C66.0715 19.3525 67.177 18.247 67.177 16.8834V16.2858C67.177 10.9735 62.8705 6.66681 57.558 6.66681L16.2012 6.66681C14.8375 6.66681 13.7321 7.77228 13.7321 9.13595C13.7321 10.4996 14.8375 11.6051 16.2012 11.6051L57.558 11.6051C60.1431 11.6051 62.2387 13.7008 62.2387 16.2858V16.8834C62.2387 18.247 63.3442 19.3525 64.7079 19.3525Z" fill="#274F03"/>
<path fill-rule="evenodd" clip-rule="evenodd" d="M23.2662 60.6094C24.6298 60.6094 25.7353 59.5039 25.7353 58.1403L25.7354 23.402C25.7354 22.0383 24.6298 20.9329 23.2662 20.9329C21.9025 20.9329 20.797 22.0383 20.797 23.402V58.1402C20.797 59.5039 21.9025 60.6094 23.2662 60.6094Z" fill="#274F03"/>
<path fill-rule="evenodd" clip-rule="evenodd" d="M48.3661 26.1204C48.3661 33.015 53.9552 38.6042 60.85 38.6042C67.7445 38.6042 73.3337 33.015 73.3337 26.1204C73.3337 19.2257 67.7445 13.6365 60.85 13.6365C53.9552 13.6365 48.3661 19.2257 48.3661 26.1204ZM60.85 33.666C56.6826 33.666 53.3044 30.2877 53.3044 26.1204C53.3044 21.953 56.6826 18.5748 60.85 18.5748C65.0171 18.5748 68.3954 21.953 68.3954 26.1204C68.3954 30.2877 65.0171 33.666 60.85 33.666Z" fill="#274F03"/>
<path fill-rule="evenodd" clip-rule="evenodd" d="M52.2817 51.3581C53.0291 51.8035 53.9558 51.8226 54.7209 51.4084L60.8499 48.091L66.9789 51.4084C67.744 51.8226 68.6706 51.8035 69.418 51.3581C70.1654 50.9128 70.6233 50.107 70.6233 49.237V32.9905C70.6233 31.6268 69.5179 30.5214 68.1542 30.5214C66.7905 30.5214 65.6851 31.6268 65.6851 32.9905V45.0929L62.0252 43.112C61.2919 42.715 60.4078 42.715 59.6745 43.112L56.0147 45.0929V32.9705C56.0147 31.6068 54.9092 30.5014 53.5456 30.5014C52.1819 30.5014 51.0764 31.6068 51.0764 32.9705V49.237C51.0764 50.107 51.5343 50.9128 52.2817 51.3581Z" fill="#274F03"/>
<path fill-rule="evenodd" clip-rule="evenodd" d="M32.4609 23.4774C32.4609 24.8411 33.5664 25.9466 34.9301 25.9466H51.1839C52.5475 25.9466 53.653 24.8411 53.653 23.4774C53.653 22.1138 52.5475 21.0083 51.1839 21.0083H34.9301C33.5664 21.0083 32.4609 22.1138 32.4609 23.4774Z" fill="#274F03"/>
<path fill-rule="evenodd" clip-rule="evenodd" d="M32.4609 31.3762C32.4609 32.7399 33.5664 33.8453 34.9301 33.8453H52.3229C53.6866 33.8453 54.792 32.7399 54.792 31.3762C54.792 30.0125 53.6866 28.9071 52.3229 28.9071H34.9301C33.5664 28.9071 32.4609 30.0125 32.4609 31.3762Z" fill="#274F03"/>
<path fill-rule="evenodd" clip-rule="evenodd" d="M32.4609 39.2751C32.4609 40.6388 33.5664 41.7443 34.9301 41.7443H53.5447C54.9083 41.7443 56.0138 40.6388 56.0138 39.2751C56.0138 37.9115 54.9083 36.806 53.5447 36.806H34.9301C33.5664 36.806 32.4609 37.9115 32.4609 39.2751Z" fill="#274F03"/>
<path fill-rule="evenodd" clip-rule="evenodd" d="M32.4609 47.3636C32.4609 48.7273 33.5664 49.8327 34.9301 49.8327H43.8328C45.1965 49.8327 46.3019 48.7273 46.3019 47.3636C46.3019 45.9999 45.1965 44.8945 43.8328 44.8945H34.9301C33.5664 44.8945 32.4609 45.9999 32.4609 47.3636Z" fill="#274F03"/>
</g>
</g>
</svg>
