<?xml version="1.0" encoding="UTF-8"?>
<svg id="Vrstva_1" data-name="Vrstva 1" xmlns="http://www.w3.org/2000/svg" viewBox="0 0 20 20">
  <defs>
    <style>
      .cls-1 {
        fill: #0031e0c8;
      }
    </style>
  </defs>
  <g id="ikona">
    <g id="Vector">
      <path class="cls-1" d="M9.36,16.1s.04,.04,.07,.06c.01,0,.02,.02,.03,.02,.01,.01,.03,.02,.04,.03,.01,0,.03,.02,.04,.02,.01,0,.02,.01,.04,.02,.01,0,.03,.01,.04,.02,.01,0,.03,.01,.04,.02,.01,0,.03,.01,.04,.01,.01,0,.03,.01,.04,.01,.01,0,.03,0,.04,.01,.01,0,.03,0,.04,.01,.02,0,.03,0,.05,0,.01,0,.03,0,.04,0,.03,0,.06,0,.09,0s.06,0,.09,0c.01,0,.03,0,.04,0,.02,0,.03,0,.05,0,.02,0,.03,0,.05-.01,.01,0,.03,0,.04-.01,.01,0,.03-.01,.04-.02,.01,0,.03,0,.04-.01,.01,0,.03-.01,.04-.02,.01,0,.03-.01,.04-.02,.01,0,.02-.01,.04-.02,.01,0,.03-.02,.04-.02,.01,0,.03-.02,.04-.03,.01,0,.02-.02,.03-.02,.02-.02,.04-.04,.06-.06h0s4.24-4.24,4.24-4.24c.35-.36,.35-.93,0-1.29-.35-.36-.93-.35-1.29,0l-2.69,2.69V.91c0-.5-.41-.91-.91-.91s-.91,.41-.91,.91V13.26l-2.69-2.69c-.36-.35-.93-.35-1.29,0-.36,.36-.36,.93,0,1.29l4.24,4.24Z"/>
      <path class="cls-1" d="M19.09,18.18H.91c-.5,0-.91,.41-.91,.91s.41,.91,.91,.91H19.09c.5,0,.91-.41,.91-.91s-.41-.91-.91-.91Z"/>
    </g>
  </g>
</svg>