<svg width="24" height="25" viewBox="0 0 24 25" fill="none" xmlns="http://www.w3.org/2000/svg">
<g id="ikona">
<g id="Vector">
<path d="M11.3569 18.5971C11.3782 18.6183 11.4005 18.6385 11.4238 18.6575C11.434 18.6659 11.4448 18.6732 11.4553 18.681C11.4685 18.691 11.4815 18.7012 11.4952 18.7104C11.5081 18.719 11.5214 18.7264 11.5345 18.7343C11.5468 18.7416 11.5588 18.7493 11.5714 18.7561C11.585 18.7633 11.5988 18.7695 11.6127 18.7759C11.6257 18.7821 11.6385 18.7887 11.6519 18.7942C11.6655 18.7998 11.6792 18.8043 11.6929 18.8092C11.7072 18.8143 11.7213 18.8198 11.7359 18.8242C11.7496 18.8283 11.7635 18.8314 11.7774 18.8348C11.7923 18.8386 11.807 18.8428 11.8222 18.8458C11.8381 18.849 11.8542 18.8508 11.8703 18.8532C11.8836 18.855 11.8967 18.8576 11.9102 18.8589C11.94 18.8618 11.9699 18.8635 11.9999 18.8635C12.0298 18.8635 12.0598 18.8619 12.0896 18.8589C12.1032 18.8576 12.1165 18.855 12.13 18.8531C12.1459 18.8508 12.1618 18.849 12.1775 18.8458C12.193 18.8428 12.208 18.8385 12.2232 18.8347C12.2367 18.8312 12.2504 18.8283 12.2638 18.8242C12.2787 18.8197 12.293 18.8141 12.3076 18.8089C12.321 18.8041 12.3345 18.7997 12.3478 18.7942C12.3614 18.7886 12.3744 18.782 12.3877 18.7757C12.4013 18.7693 12.4151 18.7632 12.4284 18.7561C12.4412 18.7493 12.4532 18.7416 12.4655 18.7342C12.4786 18.7263 12.4919 18.7189 12.5047 18.7103C12.5182 18.7013 12.5308 18.6913 12.5437 18.6816C12.5545 18.6735 12.5656 18.666 12.5762 18.6574C12.5983 18.6392 12.6195 18.62 12.6398 18.5999L12.6427 18.5972L16.8853 14.3549C17.2403 13.9999 17.2403 13.4243 16.8853 13.0693C16.5303 12.7142 15.9547 12.7143 15.5996 13.0692L12.909 15.7597V3.40909C12.909 2.90703 12.5019 2.5 11.9999 2.5C11.4978 2.5 11.0908 2.90703 11.0908 3.40909V15.7597L8.40036 13.0693C8.04533 12.7143 7.4697 12.7143 7.11473 13.0693C6.7597 13.4244 6.7597 13.9999 7.11473 14.355L11.3569 18.5971Z" fill="#486EFF"/>
<path d="M21.0909 20.6818H2.90909C2.40703 20.6818 2 21.0888 2 21.5909C2 22.093 2.40703 22.5 2.90909 22.5H21.0909C21.593 22.5 22 22.093 22 21.5909C22 21.0888 21.593 20.6818 21.0909 20.6818Z" fill="#486EFF"/>
</g>
</g>
</svg>
