<svg width="24" height="24" viewBox="0 0 24 24" fill="none" xmlns="http://www.w3.org/2000/svg">
<g id="dropdown">
<path id="Vector" d="M17.6487 9.35174C17.5372 9.24023 17.4049 9.15177 17.2593 9.09142C17.1136 9.03106 16.9575 9 16.7999 9C16.6422 9 16.4861 9.03106 16.3405 9.09142C16.1949 9.15177 16.0625 9.24023 15.9511 9.35174L12.2824 13.0197C12.2074 13.0946 12.1056 13.1368 11.9996 13.1368C11.8935 13.1368 11.7918 13.0946 11.7168 13.0197L8.04886 9.35174C7.82385 9.12663 7.51864 9.00012 7.20036 9.00004C6.88208 8.99997 6.57681 9.12633 6.35169 9.35134C6.12658 9.57634 6.00008 9.88156 6 10.1998C5.99993 10.5181 6.12629 10.8234 6.35129 11.0485L10.02 14.7172C10.28 14.9773 10.5887 15.1835 10.9284 15.3243C11.2681 15.465 11.6323 15.5374 12 15.5374C12.3677 15.5374 12.7318 15.465 13.0715 15.3243C13.4113 15.1835 13.7199 14.9773 13.9799 14.7172L17.6487 11.0485C17.8736 10.8235 18 10.5183 18 10.2001C18 9.88193 17.8736 9.57677 17.6487 9.35174Z" fill="#D9B770"/>
</g>
</svg>
