<svg width="24" height="25" viewBox="0 0 24 25" fill="none" xmlns="http://www.w3.org/2000/svg">
<g id="ikona">
<path id="XMLID_20_" d="M12 2.5C6.48599 2.5 2 6.98593 2 12.4998C2 18.0139 6.48599 22.5 12 22.5C12.502 22.5 12.9091 22.093 12.9091 21.5909C12.9091 21.0889 12.502 20.6818 12 20.6818C7.48847 20.6818 3.81818 17.0113 3.81818 12.4998C3.81812 7.98847 7.48847 4.31818 12 4.31818C16.5115 4.31818 20.1818 7.98847 20.1818 12.4998V14.7729C20.1818 15.5249 19.5699 16.1366 18.8179 16.1366C18.066 16.1366 17.4543 15.5249 17.4543 14.7729V12.4998C17.4543 9.49216 15.0075 7.04526 12 7.04526C8.99234 7.04526 6.5455 9.49216 6.5455 12.4998C6.5455 15.5077 8.99234 17.9547 12 17.9547C13.5713 17.9547 14.9892 17.2865 15.9855 16.2196C16.5132 17.2486 17.5843 17.9547 18.8179 17.9547C20.5725 17.9547 21.9999 16.5274 21.9999 14.7729V12.4998C21.9999 6.98593 17.514 2.5 12 2.5ZM12 16.1366C9.99489 16.1366 8.36368 14.5051 8.36368 12.4998C8.36368 10.4947 9.99489 8.86344 12 8.86344C14.005 8.86344 15.6361 10.4947 15.6361 12.4998C15.6361 14.5051 14.0049 16.1366 12 16.1366Z" fill="#0031e0c8"/>
</g>
</svg>
