<?xml version="1.0" encoding="UTF-8"?>
<svg id="Vrstva_1" data-name="Vrstva 1" xmlns="http://www.w3.org/2000/svg" viewBox="0 0 20 20">
  <defs>
    <style>
      .cls-1 {
        fill: #00a5ff;
      }
    </style>
  </defs>
  <g id="ikona">
    <path class="cls-1" d="M10,0C4.49,0,0,4.49,0,10s4.49,10,10,10c.5,0,.91-.41,.91-.91s-.41-.91-.91-.91c-4.51,0-8.18-3.67-8.18-8.18,0-4.51,3.67-8.18,8.18-8.18s8.18,3.67,8.18,8.18v2.27c0,.75-.61,1.36-1.36,1.36s-1.36-.61-1.36-1.36v-2.27c0-3.01-2.45-5.45-5.45-5.45s-5.45,2.45-5.45,5.45,2.45,5.45,5.45,5.45c1.57,0,2.99-.67,3.99-1.74,.53,1.03,1.6,1.74,2.83,1.74,1.75,0,3.18-1.43,3.18-3.18v-2.27C20,4.49,15.51,0,10,0Zm0,13.64c-2.01,0-3.64-1.63-3.64-3.64s1.63-3.64,3.64-3.64,3.64,1.63,3.64,3.64-1.63,3.64-3.64,3.64Z"/>
  </g>
</svg>