<?xml version="1.0" encoding="UTF-8" standalone="no"?>
<!DOCTYPE svg PUBLIC "-//W3C//DTD SVG 1.1//EN" "http://www.w3.org/Graphics/SVG/1.1/DTD/svg11.dtd">
<svg width="100%" height="100%" viewBox="0 0 40 40" version="1.1" xmlns="http://www.w3.org/2000/svg" xmlns:xlink="http://www.w3.org/1999/xlink" xml:space="preserve" xmlns:serif="http://www.serif.com/" style="fill-rule:evenodd;clip-rule:evenodd;stroke-linejoin:round;stroke-miterlimit:2;">
    <g id="socka-fb" serif:id="socka/fb">
        <path id="Subtract" d="M36.667,20C36.667,29.205 29.205,36.667 20,36.667C10.795,36.667 3.333,29.205 3.333,20C3.333,10.795 10.795,3.333 20,3.333C29.205,3.333 36.667,10.795 36.667,20ZM23.947,20.743L24.224,18.423C24.231,18.362 24.226,18.3 24.208,18.241C24.19,18.182 24.16,18.128 24.12,18.081C24.08,18.035 24.03,17.997 23.974,17.971C23.918,17.945 23.858,17.931 23.796,17.93L21.097,17.93L21.097,15.989C21.097,15.107 21.329,14.518 22.561,14.498L23.7,14.498C23.816,14.498 23.927,14.451 24.01,14.369C24.092,14.287 24.138,14.176 24.138,14.059L24.138,12.105C24.138,11.989 24.092,11.877 24.01,11.795C23.927,11.713 23.816,11.667 23.7,11.667L21.842,11.667C19.575,11.667 18.026,13.083 18.026,15.686L18.026,17.936L16.211,17.936C16.094,17.936 15.983,17.983 15.9,18.065C15.818,18.147 15.772,18.259 15.772,18.375L15.772,20.695C15.772,20.811 15.818,20.923 15.9,21.005C15.983,21.087 16.094,21.134 16.211,21.134L18.037,21.134L18.024,28.017C18.023,28.058 18.031,28.099 18.046,28.137C18.061,28.175 18.084,28.21 18.112,28.239C18.141,28.268 18.175,28.292 18.212,28.308C18.25,28.324 18.29,28.333 18.331,28.333L20.79,28.333C20.872,28.332 20.95,28.299 21.008,28.24C21.065,28.181 21.097,28.102 21.097,28.02L21.097,21.134L23.509,21.134C23.617,21.134 23.722,21.095 23.803,21.023C23.884,20.951 23.935,20.851 23.947,20.743Z" style="fill:rgb(72,92,174);"/>
    </g>
</svg>
