<svg width="40" height="40" viewBox="0 0 40 40" fill="none" xmlns="http://www.w3.org/2000/svg">
<g id="socka/fb">
<path id="Subtract" fill-rule="evenodd" clip-rule="evenodd" d="M36.6667 19.9999C36.6667 29.2047 29.2048 36.6666 20 36.6666C10.7953 36.6666 3.33334 29.2047 3.33334 19.9999C3.33334 10.7952 10.7953 3.33325 20 3.33325C29.2048 3.33325 36.6667 10.7952 36.6667 19.9999ZM23.9474 20.7433L24.2237 18.4232C24.2314 18.362 24.2261 18.3 24.2083 18.241C24.1904 18.1821 24.1603 18.1276 24.12 18.081C24.0796 18.0345 24.0299 17.9969 23.9741 17.9709C23.9183 17.9448 23.8576 17.9308 23.7961 17.9297H21.0965V15.989C21.0965 15.1074 21.329 14.5175 22.5614 14.4977H23.6996C23.8159 14.4977 23.9274 14.4515 24.0097 14.3693C24.092 14.287 24.1382 14.1755 24.1382 14.0591V12.1052C24.1382 11.9889 24.092 11.8773 24.0097 11.795C23.9274 11.7128 23.8159 11.6666 23.6996 11.6666H21.8421C19.5746 11.6666 18.0263 13.0833 18.0263 15.6863V17.9363H16.2105C16.0942 17.9363 15.9826 17.9825 15.9004 18.0648C15.8181 18.147 15.7719 18.2586 15.7719 18.3749V20.6951C15.7719 20.8114 15.8181 20.923 15.9004 21.0052C15.9826 21.0875 16.0942 21.1337 16.2105 21.1337H18.0373L18.0241 28.0175C18.0235 28.0584 18.031 28.099 18.0461 28.137C18.0613 28.175 18.0837 28.2096 18.1122 28.239C18.1407 28.2683 18.1747 28.2917 18.2123 28.3079C18.2499 28.3241 18.2902 28.3327 18.3311 28.3333H20.7895C20.8717 28.3321 20.9501 28.2985 21.0076 28.2397C21.0651 28.181 21.0971 28.1019 21.0965 28.0197V21.1337H23.5088C23.6172 21.1343 23.722 21.0948 23.803 21.0227C23.884 20.9506 23.9354 20.8511 23.9474 20.7433Z" fill="#CFA44A"/>
</g>
</svg>
