<?xml version="1.0" encoding="UTF-8" standalone="no"?>
<!-- Created with Inkscape (http://www.inkscape.org/) -->

<svg
   version="1.1"
   id="svg105"
   xml:space="preserve"
   width="682.66669"
   height="682.66669"
   viewBox="0 0 682.66669 682.66669"
   xmlns="http://www.w3.org/2000/svg"
   xmlns:svg="http://www.w3.org/2000/svg"><defs
     id="defs109"><clipPath
       clipPathUnits="userSpaceOnUse"
       id="clipPath123"><path
         d="M 0,512 H 512 V 0 H 0 Z"
         id="path121" /></clipPath></defs><g
     id="g111"
     transform="matrix(1.3333333,0,0,-1.3333333,0,682.66667)"><g
       id="g113"
       transform="translate(446.5322,51.0601)"><path
         d="M 0,0 V 45.27"
         style="fill:none;stroke:#5cae13;stroke-width:32;stroke-linecap:round;stroke-linejoin:round;stroke-miterlimit:10;stroke-dasharray:none;stroke-opacity:1"
         id="path115" /></g><g
       id="g117"><g
         id="g119"
         clip-path="url(#clipPath123)"><g
           id="g125"
           transform="translate(312.626,205.1812)"><path
             d="m 0,0 42.462,-28.715 c 8.618,-6.463 13.578,-6.463 22.224,0 L 107.148,0"
             style="fill:none;stroke:#5cae13;stroke-width:32;stroke-linecap:round;stroke-linejoin:round;stroke-miterlimit:10;stroke-dasharray:none;stroke-opacity:1"
             id="path127" /></g><g
           id="g129"
           transform="translate(458.126,339.7432)"><path
             d="m 0,0 v -28.148 c 0,-33.024 -31.039,-74.439 -68.994,-88.527 -16.668,-6.179 -29.423,-6.179 -46.09,0 -37.928,14.088 -68.966,55.503 -68.966,88.527 V 0"
             style="fill:none;stroke:#5cae13;stroke-width:32;stroke-linecap:round;stroke-linejoin:round;stroke-miterlimit:10;stroke-dasharray:none;stroke-opacity:1"
             id="path131" /></g><g
           id="g133"
           transform="translate(422.0415,449.0767)"><path
             d="m 0,0 c 14.967,-0.198 29.848,1.105 43.625,5.953 20.267,7.172 17.347,12.331 19.53,-11.566 3.175,-34.611 0.34,-79.626 -27.071,-103.72 -50.739,8.447 -60.518,8.447 -116.87,33.931 -9.751,4.422 -15.647,-0.341 -20.693,-5.075 -7.511,-7.001 -24.235,-27.297 -46.487,-28.856 0.029,28.573 -1.304,48.728 15.76,63.723 3.345,2.92 7.371,5.641 12.246,8.193 3.345,1.757 2.381,1.19 3.174,4.648 1.531,6.86 3.799,12.501 6.69,17.093 14.315,22.82 43.993,20.467 77.073,17.689"
             style="fill:none;stroke:#5cae13;stroke-width:32;stroke-linecap:round;stroke-linejoin:round;stroke-miterlimit:10;stroke-dasharray:none;stroke-opacity:1"
             id="path135" /></g><g
           id="g137"
           transform="translate(145.8101,356.1274)"><path
             d="M 0,0 C -7.37,0 -14.711,2.551 -34.525,7.654 -60.179,14.259 -54.623,-14.117 -91.784,-16.696 -91.784,51.478 -45.892,86.033 0,86.77 45.892,86.033 91.784,51.478 91.784,-16.696 54.623,-14.117 60.178,14.259 34.525,7.654 14.711,2.551 7.37,0 0,0 Z"
             style="fill:none;stroke:#5cae13;stroke-width:32;stroke-linecap:round;stroke-linejoin:round;stroke-miterlimit:10;stroke-dasharray:none;stroke-opacity:1"
             id="path139" /></g><g
           id="g141"
           transform="translate(330.2573,229.0493)"><path
             d="m 0,0 -7.171,-17.348 c -1.702,-4.139 -5.868,-6.52 -10.659,-6.52 h -112.93"
             style="fill:none;stroke:#5cae13;stroke-width:32;stroke-linecap:round;stroke-linejoin:round;stroke-miterlimit:10;stroke-dasharray:none;stroke-opacity:1"
             id="path143" /></g><g
           id="g145"
           transform="translate(181.7241,229.0493)"><path
             d="m 0,0 c 2.466,-5.018 5.641,-20.551 17.688,-23.84 34.157,-9.298 67.917,-17.348 74.352,-67.097 l 11.225,-87.052 m -210.64,149.104 c 5.868,1.814 11.877,3.429 17.916,5.045 12.018,3.289 15.193,18.822 17.659,23.84 m 15.902,-177.989 h -111.003 c -6.037,0 -7.965,1.644 -7.143,7.88 l 10.205,79.172 c 1.077,8.165 2.862,15.194 5.272,21.289 m 378.9,69.62 6.463,-14.684 c 1.956,-4.422 6.066,-7.739 11.225,-9.156 34.157,-9.298 67.917,-17.348 74.352,-67.125 l 10.205,-79.144 c 0.821,-6.237 -1.106,-7.881 -7.144,-7.881 l -337.742,0.029"
             style="fill:none;stroke:#5cae13;stroke-width:32;stroke-linecap:round;stroke-linejoin:round;stroke-miterlimit:10;stroke-dasharray:none;stroke-opacity:1"
             id="path147" /></g><g
           id="g149"
           transform="translate(92.2358,205.2378)"><path
             d="m 0,0 42.462,-28.744 c 8.646,-6.434 13.578,-6.434 22.224,0 L 107.148,0"
             style="fill:none;stroke:#5cae13;stroke-width:32;stroke-linecap:round;stroke-linejoin:round;stroke-miterlimit:10;stroke-dasharray:none;stroke-opacity:1"
             id="path151" /></g><g
           id="g153"
           transform="translate(16.8926,193.6157)"><path
             d="m 0,0 6.888,10.318 c 7.654,11.424 23.244,14.514 34.667,6.889 L 58.194,6.066 c 2.268,-1.502 2.891,-4.62 1.361,-6.888 L 30.443,-44.391 c -1.53,-2.296 -4.648,-2.92 -6.916,-1.389 L 6.888,-34.64 C -4.536,-27.015 -7.625,-11.424 0,0 Z"
             style="fill:none;stroke:#5cae13;stroke-width:32;stroke-linecap:round;stroke-linejoin:round;stroke-miterlimit:10;stroke-dasharray:none;stroke-opacity:1"
             id="path155" /></g><g
           id="g157"
           transform="translate(226.2559,51.0317)"><path
             d="M 0,0 V 33.534 M -160.892,0 v 33.534"
             style="fill:none;stroke:#5cae13;stroke-width:32;stroke-linecap:round;stroke-linejoin:round;stroke-miterlimit:10;stroke-dasharray:none;stroke-opacity:1"
             id="path159" /></g><g
           id="g161"
           transform="translate(226.2559,50.9751)"><path
             d="M 0,0 V 45.354 M -160.892,0 v 45.354"
             style="fill:none;stroke:#5cae13;stroke-width:32;stroke-linecap:round;stroke-linejoin:round;stroke-miterlimit:10;stroke-dasharray:none;stroke-opacity:1"
             id="path163" /></g><g
           id="g165"
           transform="translate(237.5942,339.4316)"><path
             d="m 0,0 v -28.063 c 0,-32.939 -30.954,-74.269 -68.796,-88.301 -16.639,-6.179 -29.338,-6.179 -45.977,0 -37.842,14.032 -68.795,55.362 -68.795,88.301 V 0"
             style="fill:none;stroke:#5cae13;stroke-width:32;stroke-linecap:round;stroke-linejoin:round;stroke-miterlimit:10;stroke-dasharray:none;stroke-opacity:1"
             id="path167" /></g><g
           id="g169"
           transform="translate(129.0859,262.1582)"><path
             d="M 0,0 C 9.241,-9.241 24.208,-9.241 33.448,0"
             style="fill:none;stroke:#5cae13;stroke-width:32;stroke-linecap:round;stroke-linejoin:round;stroke-miterlimit:10;stroke-dasharray:none;stroke-opacity:1"
             id="path171" /></g><g
           id="g173"
           transform="translate(104.4531,309.894)"><path
             d="M 0,0 C 5.613,5.414 14.683,5.414 20.296,0"
             style="fill:none;stroke:#5cae13;stroke-width:32;stroke-linecap:round;stroke-linejoin:round;stroke-miterlimit:10;stroke-dasharray:none;stroke-opacity:1"
             id="path175" /></g><g
           id="g177"
           transform="translate(166.8711,309.894)"><path
             d="M 0,0 C 5.612,5.414 14.683,5.414 20.296,0"
             style="fill:none;stroke:#5cae13;stroke-width:32;stroke-linecap:round;stroke-linejoin:round;stroke-miterlimit:10;stroke-dasharray:none;stroke-opacity:1"
             id="path179" /></g><g
           id="g181"
           transform="translate(350.4111,263.519)"><path
             d="M 0,0 C 9.241,-9.27 24.236,-9.27 33.477,0"
             style="fill:none;stroke:#5cae13;stroke-width:32;stroke-linecap:round;stroke-linejoin:round;stroke-miterlimit:10;stroke-dasharray:none;stroke-opacity:1"
             id="path183" /></g><g
           id="g185"
           transform="translate(325.8071,311.2266)"><path
             d="M 0,0 C 5.584,5.414 14.683,5.414 20.267,0"
             style="fill:none;stroke:#5cae13;stroke-width:32;stroke-linecap:round;stroke-linejoin:round;stroke-miterlimit:10;stroke-dasharray:none;stroke-opacity:1"
             id="path187" /></g><g
           id="g189"
           transform="translate(388.2246,311.2266)"><path
             d="M 0,0 C 5.613,5.414 14.684,5.414 20.268,0"
             style="fill:none;stroke:#5cae13;stroke-width:32;stroke-linecap:round;stroke-linejoin:round;stroke-miterlimit:10;stroke-dasharray:none;stroke-opacity:1"
             id="path191" /></g></g></g></g></svg>
