<svg width="16" height="16" viewBox="0 0 16 16" fill="none" xmlns="http://www.w3.org/2000/svg">
<g id="info">
<g id="Vector">
<path d="M7.99967 1.33325C4.32367 1.33325 1.33301 4.3238 1.33301 7.99956C1.33301 11.6754 4.32367 14.6659 7.99967 14.6659C11.6757 14.6659 14.6663 11.6754 14.6663 7.99956C14.6663 4.3238 11.6757 1.33325 7.99967 1.33325ZM7.99967 13.4538C4.99204 13.4538 2.54513 11.0071 2.54513 7.9996C2.54513 4.99212 4.99204 2.54537 7.99967 2.54537C11.0073 2.54537 13.4542 4.99212 13.4542 7.99956C13.4542 11.0071 11.0073 13.4538 7.99967 13.4538Z" fill="#4B4B4B"/>
<path d="M7.99967 6.5858C7.66497 6.5858 7.39361 6.85715 7.39361 7.19186V11.2316C7.39361 11.5663 7.66497 11.8376 7.99967 11.8376C8.33438 11.8376 8.60573 11.5663 8.60573 11.2316V7.19186C8.60573 6.85719 8.33438 6.5858 7.99967 6.5858Z" fill="#4B4B4B"/>
<path d="M7.99967 4.16168C7.84008 4.16168 7.68408 4.22632 7.57099 4.33905C7.45826 4.45178 7.39361 4.60814 7.39361 4.76774C7.39361 4.92733 7.45826 5.08329 7.57099 5.19643C7.68371 5.30915 7.84008 5.3738 7.99967 5.3738C8.15927 5.3738 8.31523 5.30915 8.42832 5.19643C8.54105 5.08329 8.60573 4.92733 8.60573 4.76774C8.60573 4.60814 8.54105 4.45178 8.42832 4.33905C8.31523 4.22628 8.15927 4.16168 7.99967 4.16168Z" fill="#4B4B4B"/>
</g>
</g>
</svg>
