<svg width="24" height="24" viewBox="0 0 24 24" fill="none" xmlns="http://www.w3.org/2000/svg">
<g id="info">
<g id="Vector">
<path d="M12 2C6.486 2 2 6.48582 2 11.9995C2 17.5132 6.486 21.999 12 21.999C17.514 21.999 22 17.5132 22 11.9995C22 6.48582 17.514 2 12 2ZM12 20.1808C7.48854 20.1808 3.81818 16.5107 3.81818 11.9995C3.81818 7.4883 7.48854 3.81818 12 3.81818C16.5115 3.81818 20.1818 7.4883 20.1818 11.9995C20.1818 16.5108 16.5115 20.1808 12 20.1808Z" fill="#F2AB27"/>
<path d="M12 9.87882C11.4979 9.87882 11.0909 10.2859 11.0909 10.7879V16.8475C11.0909 17.3495 11.4979 17.7566 12 17.7566C12.5021 17.7566 12.9091 17.3495 12.9091 16.8475V10.7879C12.9091 10.2859 12.5021 9.87882 12 9.87882Z" fill="#F2AB27"/>
<path d="M12 6.24264C11.7606 6.24264 11.5266 6.33961 11.357 6.5087C11.1879 6.67779 11.0909 6.91234 11.0909 7.15173C11.0909 7.39112 11.1879 7.62506 11.357 7.79476C11.5261 7.96385 11.7606 8.06082 12 8.06082C12.2394 8.06082 12.4733 7.96385 12.643 7.79476C12.8121 7.62506 12.9091 7.39112 12.9091 7.15173C12.9091 6.91234 12.8121 6.67779 12.643 6.5087C12.4733 6.33955 12.2394 6.24264 12 6.24264Z" fill="#F2AB27"/>
</g>
</g>
</svg>
