<svg width="80" height="80" viewBox="0 0 80 80" fill="none" xmlns="http://www.w3.org/2000/svg">
<g id="kruh">
<path id="Vector (Stroke)" fill-rule="evenodd" clip-rule="evenodd" d="M23.0634 18.0593C22.1393 18.7825 21.2532 19.5668 20.4099 20.41C19.5676 21.2524 18.7841 22.1375 18.0615 23.0606C18.0446 23.083 18.0273 23.1051 18.0096 23.1271C17.0112 24.4101 16.1301 25.7658 15.3717 27.1812L26.4962 29.2038C27.8264 27.5627 29.4351 26.1565 31.2502 25.057L29.3028 14.3462C27.1103 15.2956 25.0363 16.5235 23.124 18.012C23.104 18.0281 23.0837 18.0439 23.0634 18.0593ZM17.5307 15.7779L16.7308 14.978C16.2469 14.4941 15.4619 14.4938 14.9778 14.978C14.4937 15.4621 14.4937 16.2468 14.9778 16.731L15.7777 17.5309C16.0587 17.2292 16.3457 16.9318 16.6387 16.6388C16.6387 16.6388 16.6387 16.6388 16.6387 16.6388M12.437 21.7327L11.2065 20.5022C8.63962 17.9353 8.63962 13.7737 11.2065 11.2067C13.7734 8.63991 17.9351 8.63975 20.502 11.2067C20.5019 11.2067 20.502 11.2067 20.502 11.2067L21.7325 12.4371C27.2988 8.68515 33.8551 6.66675 40.7135 6.66675C47.5719 6.66675 54.1282 8.68514 59.6945 12.4371L60.925 11.2066C63.4918 8.63982 67.6536 8.63982 70.2203 11.2066C72.7873 13.7735 72.7873 17.9352 70.2204 20.5022C70.2204 20.5022 70.2204 20.5021 70.2204 20.5022L68.99 21.7326C72.742 27.299 74.7604 33.8552 74.7604 40.7136C74.7604 47.5721 72.7419 54.1284 68.9899 59.6947L70.2204 60.9252C72.7873 63.4921 72.7873 67.6538 70.2204 70.2207C67.6535 72.7875 63.4918 72.7877 60.925 70.2207C60.9249 70.2207 60.925 70.2208 60.925 70.2207L59.6944 68.9902C54.1281 72.7421 47.5719 74.7605 40.7135 74.7605C33.8551 74.7605 27.2989 72.7421 21.7326 68.9902L20.502 70.2208C17.9352 72.7876 13.7734 72.7876 11.2066 70.2208C8.63973 67.6539 8.63972 63.4922 11.2066 60.9252C11.2066 60.9253 11.2066 60.9252 11.2066 60.9252L12.4371 59.6947C8.68505 54.1283 6.66663 47.5721 6.66663 40.7136C6.66663 33.8552 8.68503 27.299 12.437 21.7327ZM18.0571 58.3611C18.043 58.3425 18.0287 58.3241 18.014 58.3059C16.1913 55.9647 14.7592 53.3812 13.7505 50.6344L24.264 48.7229C25.7658 51.8017 28.1066 54.3962 30.9888 56.2089L28.8541 66.8822C26.8242 65.961 24.9 64.7986 23.1165 63.4094C23.1014 63.3974 23.0862 63.3855 23.071 63.3739C22.1441 62.649 21.2555 61.8628 20.4099 61.0172C19.5659 60.1731 18.7809 59.2861 18.0571 58.3611ZM15.7778 63.8964L14.9779 64.6964C14.4938 65.1805 14.4938 65.9654 14.9779 66.4495C15.4619 66.9335 16.2467 66.9335 16.7307 66.4495L17.5308 65.6494C17.2291 65.3685 16.9317 65.0814 16.6387 64.7884C16.3457 64.4955 16.0588 64.1981 15.7778 63.8964ZM33.9435 68.6302C36.1336 69.1566 38.4021 69.4272 40.7135 69.4272C43.0249 69.4272 45.2934 69.1566 47.4835 68.6302L45.4355 58.39C43.9291 58.7914 42.3463 59.0053 40.7135 59.0053C39.0807 59.0053 37.4979 58.7914 35.9915 58.39L33.9435 68.6302ZM35.1471 52.4188C36.8335 53.2223 38.721 53.672 40.7135 53.672C42.7059 53.672 44.5934 53.2223 46.2798 52.4189C46.2866 52.4156 46.2934 52.4123 46.3002 52.4091C50.6603 50.3226 53.6718 45.8698 53.6718 40.7136C53.6718 38.3229 53.0244 36.0833 51.8953 34.1608C51.8835 34.1414 51.872 34.1219 51.8607 34.1023C51.8406 34.0684 51.8203 34.0346 51.7998 34.0008C51.7857 33.9785 51.7719 33.9559 51.7584 33.9331C49.4781 30.2266 45.3844 27.7553 40.7135 27.7553C36.2041 27.7553 32.2326 30.0587 29.9115 33.5532C29.8949 33.5795 29.8778 33.6054 29.8603 33.6309C28.5291 35.6667 27.7552 38.0998 27.7552 40.7136C27.7552 45.8699 30.7668 50.3227 35.1269 52.4092C35.1336 52.4124 35.1404 52.4156 35.1471 52.4188ZM23.6512 34.1073L13.2691 32.2197C12.4329 34.9344 12 37.7897 12 40.7136C12 42.321 12.1308 43.9076 12.3875 45.4615L22.6476 43.596C22.499 42.6571 22.4218 41.6944 22.4218 40.7136C22.4218 38.3842 22.8573 36.1564 23.6512 34.1073ZM57.9303 34.521L68.231 32.4609C69.0193 35.1033 69.427 37.8761 69.427 40.7136C69.427 42.241 69.3089 43.7497 69.0768 45.2293L58.84 43.182C58.9489 42.3747 59.0052 41.5507 59.0052 40.7136C59.0052 38.54 58.626 36.455 57.9303 34.521ZM57.352 48.3233C55.8614 51.5773 53.4443 54.3183 50.4382 56.2089L52.5729 66.8822C54.6019 65.9614 56.5253 64.7996 58.3082 63.4112C58.3248 63.398 58.3414 63.385 58.3582 63.3722C59.2843 62.6478 60.1722 61.8621 61.0171 61.0172C61.86 60.1742 62.6441 59.2884 63.3671 58.3646C63.3829 58.3437 63.3991 58.323 63.4156 58.3025C65.2878 55.897 66.7477 53.2359 67.7597 50.4049L57.352 48.3233ZM65.6491 63.8964C65.3682 64.1981 65.0813 64.4955 64.7883 64.7884C64.4953 65.0815 64.1979 65.3685 63.8961 65.6495L64.6961 66.4494C65.18 66.9334 65.965 66.9336 66.4491 66.4494C66.9333 65.9653 66.9333 65.1806 66.4491 64.6965L65.6491 63.8964ZM66.1874 27.4307C65.3996 25.9247 64.4739 24.4847 63.4168 23.1263C63.3993 23.1045 63.3822 23.0826 63.3654 23.0605C62.6429 22.1375 61.8594 21.2524 61.0171 20.4101C60.1736 19.5666 59.2873 18.7821 58.363 18.0588C58.343 18.0437 58.3233 18.0283 58.3037 18.0125C56.3912 16.5238 54.317 15.2957 52.1242 14.3462L50.1768 25.057C52.1425 26.2477 53.866 27.7981 55.256 29.6169L66.1874 27.4307ZM45.1372 22.9605L47.0052 12.6864C44.9637 12.2328 42.8571 12.0001 40.7135 12.0001C38.5699 12.0001 36.4632 12.2328 34.4218 12.6865L36.2898 22.9605C37.7063 22.6087 39.1881 22.422 40.7135 22.422C42.2389 22.422 43.7206 22.6087 45.1372 22.9605ZM63.8962 15.7779C64.1979 16.0588 64.4953 16.3458 64.7883 16.6388C65.0813 16.9318 65.3683 17.2292 65.6492 17.5309L66.4491 16.731C66.9332 16.2469 66.9332 15.462 66.4491 14.9778C65.9651 14.4939 65.1803 14.4939 64.6963 14.9778L63.8962 15.7779Z" fill="#001F94"/>
</g>
</svg>
