<svg width="80" height="80" viewBox="0 0 80 80" fill="none" xmlns="http://www.w3.org/2000/svg">
<g id="kruh">
<path id="Vector (Stroke)" fill-rule="evenodd" clip-rule="evenodd" d="M23.0632 18.0594C22.1392 18.7826 21.2531 19.5668 20.4098 20.4101C19.5675 21.2525 18.784 22.1376 18.0614 23.0606C18.0445 23.083 18.0272 23.1052 18.0094 23.1272C17.0111 24.4102 16.13 25.7659 15.3716 27.1813L26.4961 29.2039C27.8263 27.5628 29.4349 26.1566 31.2501 25.0571L29.3026 14.3462C27.1102 15.2957 25.0362 16.5236 23.1239 18.012C23.1038 18.0281 23.0836 18.0439 23.0632 18.0594ZM17.5306 15.778L16.7307 14.9781C16.2468 14.4941 15.4618 14.4939 14.9777 14.978C14.4935 15.4622 14.4935 16.2469 14.9777 16.731L15.7776 17.531C16.0586 17.2293 16.3456 16.9319 16.6385 16.6389C16.6385 16.6389 16.6386 16.6389 16.6385 16.6389M12.4369 21.7327L11.2064 20.5023C8.6395 17.9353 8.6395 13.7737 11.2064 11.2068C13.7733 8.63997 17.935 8.63981 20.5018 11.2068C20.5018 11.2067 20.5019 11.2068 20.5018 11.2068L21.7323 12.4372C27.2987 8.68521 33.855 6.66681 40.7134 6.66681C47.5718 6.66681 54.1281 8.6852 59.6944 12.4372L60.9249 11.2067C63.4917 8.63989 67.6534 8.63989 70.2202 11.2067C72.7871 13.7736 72.7871 17.9353 70.2203 20.5022C70.2203 20.5022 70.2203 20.5022 70.2203 20.5022L68.9899 21.7327C72.7418 27.299 74.7603 33.8553 74.7603 40.7137C74.7603 47.5722 72.7418 54.1284 68.9898 59.6948L70.2203 60.9253C72.7872 63.4922 72.7872 67.6538 70.2203 70.2207C67.6534 72.7876 63.4917 72.7877 60.9248 70.2208C60.9248 70.2207 60.9249 70.2208 60.9248 70.2208L59.6943 68.9903C54.128 72.7422 47.5717 74.7606 40.7134 74.7606C33.855 74.7606 27.2987 72.7422 21.7324 68.9902L20.5018 70.2208C17.9351 72.7876 13.7733 72.7876 11.2065 70.2208C8.63961 67.6539 8.6396 63.4922 11.2065 60.9253C11.2065 60.9253 11.2065 60.9253 11.2065 60.9253L12.437 59.6948C8.68493 54.1284 6.6665 47.5722 6.6665 40.7137C6.6665 33.8553 8.68491 27.2991 12.4369 21.7327ZM18.057 58.3611C18.0429 58.3426 18.0286 58.3242 18.0139 58.306C16.1911 55.9647 14.759 53.3812 13.7503 50.6345L24.2638 48.723C25.7657 51.8018 28.1065 54.3963 30.9886 56.2089L28.854 66.8822C26.8241 65.9611 24.8999 64.7986 23.1163 63.4095C23.1013 63.3974 23.0861 63.3856 23.0708 63.374C22.144 62.6491 21.2554 61.8628 20.4098 61.0173C19.5658 60.1732 18.7808 59.2862 18.057 58.3611ZM15.7777 63.8965L14.9778 64.6964C14.4937 65.1806 14.4936 65.9655 14.9778 66.4496C15.4617 66.9336 16.2466 66.9336 16.7306 66.4496L17.5307 65.6495C17.229 65.3685 16.9316 65.0815 16.6386 64.7885C16.3456 64.4955 16.0586 64.1982 15.7777 63.8965ZM33.9434 68.6302C36.1334 69.1567 38.402 69.4272 40.7134 69.4272C43.0248 69.4272 45.2933 69.1567 47.4834 68.6302L45.4354 58.39C43.929 58.7914 42.3462 59.0054 40.7134 59.0054C39.0806 59.0054 37.4977 58.7914 35.9914 58.39L33.9434 68.6302ZM35.147 52.4189C36.8334 53.2223 38.7209 53.672 40.7134 53.672C42.7058 53.672 44.5932 53.2223 46.2797 52.4189C46.2865 52.4157 46.2933 52.4124 46.3001 52.4092C50.6602 50.3227 53.6717 45.8699 53.6717 40.7137C53.6717 38.3229 53.0243 36.0834 51.8952 34.1608C51.8834 34.1415 51.8719 34.122 51.8606 34.1024C51.8405 34.0684 51.8201 34.0346 51.7997 34.0009C51.7856 33.9785 51.7718 33.9559 51.7583 33.9331C49.478 30.2267 45.3843 27.7554 40.7134 27.7554C36.2039 27.7554 32.2325 30.0588 29.9114 33.5533C29.8948 33.5795 29.8777 33.6054 29.8602 33.631C28.529 35.6667 27.755 38.0998 27.755 40.7137C27.755 45.8699 30.7666 50.3228 35.1268 52.4092C35.1335 52.4124 35.1403 52.4156 35.147 52.4189ZM23.6511 34.1074L13.269 32.2198C12.4328 34.9344 11.9998 37.7897 11.9998 40.7137C11.9998 42.321 12.1307 43.9076 12.3874 45.4615L22.6475 43.5961C22.4989 42.6571 22.4217 41.6944 22.4217 40.7137C22.4217 38.3842 22.8572 36.1565 23.6511 34.1074ZM57.9302 34.5211L68.2309 32.461C69.0192 35.1034 69.4269 37.8762 69.4269 40.7137C69.4269 42.2411 69.3088 43.7497 69.0767 45.2294L58.8399 43.182C58.9488 42.3748 59.0051 41.5508 59.0051 40.7137C59.0051 38.5401 58.6259 36.4551 57.9302 34.5211ZM57.3519 48.3234C55.8613 51.5773 53.4441 54.3184 50.4381 56.2089L52.5727 66.8822C54.6018 65.9615 56.5252 64.7997 58.3081 63.4113C58.3246 63.398 58.3413 63.385 58.3581 63.3722C59.2841 62.6478 60.1721 61.8622 61.0169 61.0173C61.8599 60.1743 62.644 59.2884 63.367 58.3647C63.3828 58.3438 63.399 58.3231 63.4155 58.3025C65.2877 55.8971 66.7476 53.236 67.7596 50.4049L57.3519 48.3234ZM65.649 63.8965C65.3681 64.1982 65.0811 64.4955 64.7882 64.7885C64.4952 65.0815 64.1977 65.3685 63.896 65.6495L64.696 66.4495C65.1799 66.9334 65.9649 66.9337 66.449 66.4495C66.9331 65.9654 66.9331 65.1806 66.449 64.6965L65.649 63.8965ZM66.1872 27.4308C65.3995 25.9247 64.4738 24.4848 63.4167 23.1263C63.3992 23.1046 63.382 23.0827 63.3653 23.0605C62.6427 22.1375 61.8593 21.2524 61.017 20.4101C60.1735 19.5667 59.2872 18.7822 58.3628 18.0588C58.3429 18.0437 58.3232 18.0283 58.3036 18.0126C56.391 16.5238 54.3168 15.2958 52.1241 14.3462L50.1766 25.057C52.1423 26.2477 53.8658 27.7981 55.2558 29.617L66.1872 27.4308ZM45.137 22.9605L47.0051 12.6865C44.9636 12.2329 42.8569 12.0001 40.7134 12.0001C38.5698 12.0001 36.4631 12.2329 34.4216 12.6865L36.2896 22.9606C37.7062 22.6087 39.188 22.422 40.7134 22.422C42.2387 22.422 43.7205 22.6087 45.137 22.9605ZM63.8961 15.7779C64.1978 16.0589 64.4952 16.3459 64.7882 16.6389C65.0812 16.9319 65.3682 17.2293 65.6491 17.531L66.4489 16.7311C66.9331 16.2469 66.9331 15.462 66.449 14.9779C65.965 14.4939 65.1801 14.4939 64.6961 14.9779L63.8961 15.7779Z" fill="#274F03"/>
</g>
</svg>
