<svg width="81" height="80" viewBox="0 0 81 80" fill="none" xmlns="http://www.w3.org/2000/svg">
<g id="lektor">
<path id="Vector" d="M29.3916 40.0001C27.1941 40.0001 25.0459 40.6517 23.2186 41.8726C21.3914 43.0936 19.9673 44.8289 19.1263 46.8592C18.2853 48.8895 18.0653 51.1235 18.494 53.2789C18.9228 55.4342 19.981 57.414 21.5349 58.9679C23.0888 60.5219 25.0686 61.5801 27.224 62.0088C29.3793 62.4375 31.6134 62.2175 33.6437 61.3765C35.674 60.5356 37.4093 59.1114 38.6302 57.2842C39.8511 55.457 40.5028 53.3088 40.5028 51.1112C40.5028 48.1643 39.3321 45.3382 37.2484 43.2545C35.1647 41.1707 32.3385 40.0001 29.3916 40.0001ZM29.3916 56.6668C28.2929 56.6668 27.2188 56.3409 26.3051 55.7305C25.3915 55.12 24.6795 54.2524 24.259 53.2372C23.8385 52.2221 23.7285 51.105 23.9428 50.0274C24.1572 48.9497 24.6863 47.9598 25.4633 47.1828C26.2402 46.4059 27.2301 45.8768 28.3078 45.6624C29.3855 45.448 30.5025 45.558 31.5177 45.9785C32.5328 46.399 33.4005 47.1111 34.0109 48.0247C34.6214 48.9383 34.9472 50.0124 34.9472 51.1112C34.9472 52.5846 34.3619 53.9977 33.32 55.0396C32.2781 56.0814 30.8651 56.6668 29.3916 56.6668ZM66.8916 28.889H30.0278C24.3434 28.826 18.8434 30.9034 14.62 34.7084C10.3965 38.5134 7.75877 43.7678 7.23054 49.4279C6.99861 52.4808 7.40006 55.5487 8.4097 58.4392C9.41934 61.3297 11.0154 63.9804 13.0977 66.2249C15.1801 68.4695 17.7038 70.2596 20.5106 71.4828C23.3173 72.706 26.3466 73.3361 29.4083 73.3334C30.598 73.333 31.7858 73.2402 32.9611 73.0556C36.4958 72.4752 39.8364 71.0443 42.6953 68.8861C45.5541 66.7279 47.8455 63.9072 49.3722 60.6668C50.7707 57.8201 51.5354 54.7041 51.6139 51.5334C51.595 50.8862 51.8029 50.2527 52.2016 49.7425C52.6002 49.2322 53.1646 48.8773 53.7972 48.739L68.1333 46.1334C69.7337 45.8426 71.1811 44.9992 72.2233 43.7504C73.2655 42.5016 73.8363 40.9266 73.8361 39.3001V35.8334C73.8361 34.9215 73.6565 34.0184 73.3075 33.1759C72.9585 32.3334 72.447 31.5678 71.8021 30.923C71.1573 30.2781 70.3917 29.7666 69.5492 29.4176C68.7066 29.0686 67.8036 28.889 66.8916 28.889ZM68.2805 39.3001C68.2805 39.6256 68.1662 39.9407 67.9576 40.1905C67.7489 40.4402 67.4591 40.6088 67.1389 40.6668L52.8 43.2751C50.9026 43.634 49.1903 44.6447 47.9592 46.1324C46.7282 47.6201 46.0558 49.4913 46.0583 51.4223C45.9945 53.7949 45.4193 56.1257 44.3722 58.2556C42.7052 61.7642 39.8625 64.5785 36.3373 66.21C32.8121 67.8416 28.8269 68.1874 25.0734 67.1876C21.3198 66.1877 18.0348 63.9053 15.7883 60.7363C13.5418 57.5673 12.4757 53.7119 12.775 49.839C13.1942 45.5761 15.201 41.6267 18.3971 38.7748C21.5932 35.923 25.7448 34.3773 30.0278 34.4445H66.8916C67.26 34.4445 67.6133 34.5909 67.8737 34.8513C68.1342 35.1118 68.2805 35.4651 68.2805 35.8334V39.3001ZM32.1694 17.7779V9.44453C32.1694 8.70781 32.4621 8.00127 32.983 7.48034C33.504 6.95941 34.2105 6.66675 34.9472 6.66675C35.6839 6.66675 36.3905 6.95941 36.9114 7.48034C37.4323 8.00127 37.725 8.70781 37.725 9.44453V17.7779C37.725 18.5146 37.4323 19.2211 36.9114 19.742C36.3905 20.263 35.6839 20.5556 34.9472 20.5556C34.2105 20.5556 33.504 20.263 32.983 19.742C32.4621 19.2211 32.1694 18.5146 32.1694 17.7779ZM42.1889 19.314L46.3555 10.9806C46.6848 10.3213 47.2626 9.81975 47.9617 9.58637C48.3078 9.47081 48.6734 9.42456 49.0374 9.45027C49.4014 9.47598 49.7568 9.57313 50.0833 9.73619C50.4098 9.89925 50.701 10.125 50.9402 10.4006C51.1794 10.6762 51.362 10.9962 51.4776 11.3423C51.5931 11.6885 51.6394 12.054 51.6137 12.4181C51.588 12.7821 51.4908 13.1375 51.3278 13.464L47.1611 21.7973C46.9998 22.1265 46.7749 22.4205 46.4994 22.6624C46.2239 22.9043 45.9033 23.0892 45.556 23.2066C45.2086 23.324 44.8415 23.3714 44.4758 23.3462C44.1101 23.321 43.7529 23.2237 43.425 23.0598C43.097 22.8959 42.8048 22.6688 42.5651 22.3914C42.3253 22.114 42.1429 21.7919 42.0283 21.4437C41.9136 21.0955 41.869 20.728 41.8971 20.3625C41.9251 19.997 42.0224 19.6406 42.1889 19.314ZM18.5778 13.4806C18.4105 13.1546 18.3094 12.7986 18.2804 12.4333C18.2513 12.068 18.2948 11.7006 18.4083 11.3522C18.5219 11.0038 18.7032 10.6813 18.942 10.4033C19.1807 10.1252 19.4721 9.89721 19.7994 9.7323C20.1266 9.5674 20.4833 9.46887 20.8487 9.4424C21.2142 9.41593 21.5814 9.46204 21.929 9.57808C22.2766 9.69411 22.5978 9.87778 22.8741 10.1185C23.1504 10.3592 23.3763 10.6522 23.5389 10.9806L27.75 19.314C27.9276 19.6408 28.0377 20 28.0739 20.3702C28.11 20.7404 28.0714 21.1141 27.9604 21.4691C27.8494 21.8241 27.6683 22.1532 27.4277 22.4369C27.1871 22.7206 26.892 22.953 26.5598 23.1205C26.2277 23.288 25.8653 23.387 25.4942 23.4118C25.123 23.4365 24.7507 23.3865 24.3992 23.2647C24.0478 23.1428 23.7244 22.9516 23.4483 22.7024C23.1721 22.4532 22.9488 22.1511 22.7916 21.814L18.5778 13.4806Z" fill="#015151"/>
</g>
</svg>
