<svg width="32" height="32" viewBox="0 0 32 32" fill="none" xmlns="http://www.w3.org/2000/svg">
<g id="pin">
<g id="Union">
<path fill-rule="evenodd" clip-rule="evenodd" d="M15.9994 12.7054C14.2667 12.7054 12.862 11.3008 12.862 9.56816C12.862 7.83547 14.2667 6.43084 15.9994 6.43084C17.7321 6.43084 19.1367 7.83547 19.1367 9.56816C19.1367 11.3008 17.732 12.7054 15.9994 12.7054ZM14.9507 9.56816C14.9507 10.1473 15.4202 10.6168 15.9994 10.6168C16.5786 10.6168 17.0481 10.1473 17.0481 9.56816C17.0481 8.98899 16.5785 8.51947 15.9994 8.51947C15.4202 8.51947 14.9507 8.98899 14.9507 9.56816Z" fill="#118C8C"/>
<path fill-rule="evenodd" clip-rule="evenodd" d="M19.224 19.8455C20.4268 19.9912 21.5057 20.2182 22.3762 20.5123C23.0006 20.7233 23.5774 20.9884 24.0192 21.3258C24.4436 21.65 24.9163 22.1803 24.9163 22.9273C24.9163 23.7699 24.3213 24.3355 23.8333 24.6614C23.3066 25.0132 22.6132 25.2893 21.8501 25.5049C20.3094 25.9401 18.2412 26.1956 15.9994 26.1956C13.7575 26.1956 11.6893 25.9401 10.1487 25.5049C9.38553 25.2893 8.69213 25.0132 8.16539 24.6614C7.67747 24.3355 7.08244 23.7699 7.08244 22.9273C7.08244 22.1803 7.55511 21.65 7.9795 21.3258C8.42135 20.9884 8.99808 20.7233 9.62249 20.5123C10.493 20.2182 11.572 19.9912 12.7747 19.8455C12.1035 18.6859 11.3763 17.3761 10.7231 16.0837C10.1581 14.966 9.63947 13.8438 9.25971 12.8326C8.89147 11.8521 8.60958 10.8641 8.60958 10.0563C8.60958 5.97507 11.9181 2.66663 15.9994 2.66663C20.0806 2.66663 23.3891 5.97507 23.3891 10.0563C23.3891 10.8641 23.1073 11.8521 22.739 12.8326C22.3593 13.8438 21.8406 14.966 21.2757 16.0837C20.6224 17.3761 19.8952 18.6859 19.224 19.8455ZM15.4235 20.2259C15.588 20.5 15.7439 20.7571 15.8884 20.9936C15.9393 21.0768 16.0594 21.0768 16.1103 20.9936C16.2547 20.7574 16.4104 20.5005 16.5747 20.2267C16.5825 20.213 16.5907 20.1994 16.5991 20.1861C17.442 18.7801 18.5043 16.9365 19.4116 15.1415C19.959 14.0586 20.441 13.011 20.7837 12.0983C21.138 11.155 21.3005 10.4651 21.3005 10.0563C21.3005 7.12862 18.9271 4.75525 15.9994 4.75525C13.0716 4.75525 10.6982 7.12862 10.6982 10.0563C10.6982 10.4651 10.8607 11.155 11.215 12.0983C11.5577 13.011 12.0397 14.0586 12.5871 15.1415C13.4946 16.9368 14.5572 18.7808 15.4001 20.1869C15.4082 20.1997 15.416 20.2127 15.4235 20.2259ZM13.9504 21.8269C12.4595 21.945 11.1923 22.1865 10.2911 22.491C9.84151 22.6429 9.52732 22.7959 9.32954 22.9273C9.60008 23.107 10.0583 23.309 10.7165 23.4949C12.0251 23.8646 13.8933 24.107 15.9994 24.107C18.1055 24.107 19.9736 23.8646 21.2822 23.4949C21.9404 23.309 22.3987 23.107 22.6692 22.9273C22.4714 22.7959 22.1572 22.6429 21.7077 22.491C20.8064 22.1865 19.5393 21.945 18.0484 21.8269C17.995 21.9147 17.943 22 17.8924 22.0828C17.0271 23.4985 14.9717 23.4985 14.1063 22.0828C14.0557 22 14.0037 21.9147 13.9504 21.8269ZM22.8663 22.7628C22.8661 22.7628 22.8656 22.7634 22.8647 22.7647C22.8641 22.7654 22.8635 22.7663 22.8628 22.7674C22.8621 22.7686 22.8612 22.7699 22.8603 22.7716C22.8649 22.7658 22.8666 22.7629 22.8663 22.7628Z" fill="#118C8C"/>
<path d="M5.33005 24.9248C4.82934 24.5226 4.75464 24.2417 4.75464 24.1138C4.75464 23.9246 4.94305 23.4408 6.04345 22.8363C6.54895 22.5586 6.73362 21.9236 6.45592 21.4181C6.17821 20.9126 5.5433 20.728 5.0378 21.0057C3.81808 21.6758 2.66602 22.6941 2.66602 24.1138C2.66602 25.1388 3.27907 25.9563 4.02208 26.5531C4.77472 27.1577 5.79979 27.656 6.97377 28.0549C9.33215 28.8561 12.5232 29.3332 15.9994 29.3332C19.4756 29.3332 22.6666 28.8561 25.025 28.0549C26.1989 27.656 27.224 27.1577 27.9766 26.5531C28.7196 25.9563 29.3327 25.1388 29.3327 24.1138C29.3327 22.6942 28.1807 21.6758 26.961 21.0057C26.4555 20.728 25.8205 20.9126 25.5428 21.4181C25.2651 21.9236 25.4498 22.5586 25.9553 22.8363C27.0557 23.4408 27.2441 23.9246 27.2441 24.1138C27.2441 24.2417 27.1694 24.5226 26.6687 24.9248C26.1776 25.3192 25.403 25.7206 24.3531 26.0773C22.2637 26.7871 19.3102 27.2446 15.9994 27.2446C12.6885 27.2446 9.73503 26.7871 7.64565 26.0773C6.59575 25.7206 5.82114 25.3192 5.33005 24.9248Z" fill="#118C8C"/>
</g>
</g>
</svg>
