<svg width="81" height="80" viewBox="0 0 81 80" fill="none" xmlns="http://www.w3.org/2000/svg">
<g id="pin">
<g id="Vector">
<path d="M41.7488 73.3334L39.8123 71.6736C37.1428 69.4383 13.8334 49.3074 13.8334 34.5822C13.8334 19.1649 26.3316 6.66675 41.7488 6.66675C57.166 6.66675 69.6642 19.1649 69.6642 34.5822C69.6642 49.3075 46.3547 69.4384 43.6963 71.6846L41.7488 73.3334ZM41.7488 12.7029C29.6709 12.7165 19.8833 22.5042 19.8696 34.582C19.8696 43.8328 34.2105 58.6106 41.7488 65.3744C49.2872 58.6079 63.6279 43.8216 63.6279 34.582C63.6143 22.5042 53.8268 12.7167 41.7488 12.7029Z" fill="#015151"/>
<path d="M41.5655 45.6476C35.4542 45.6476 30.5 40.6934 30.5 34.5822C30.5 28.4709 35.4542 23.5167 41.5655 23.5167C47.6767 23.5167 52.6309 28.4709 52.6309 34.5822C52.6309 40.6934 47.6769 45.6476 41.5655 45.6476ZM41.5655 29.0493C38.5098 29.0493 36.0328 31.5264 36.0328 34.582C36.0328 37.6377 38.5098 40.1147 41.5655 40.1147C44.6211 40.1147 47.0982 37.6377 47.0982 34.582C47.0982 31.5264 44.6212 29.0493 41.5655 29.0493Z" fill="#015151"/>
</g>
</g>
</svg>
