<svg width="80" height="80" viewBox="0 0 80 80" fill="none" xmlns="http://www.w3.org/2000/svg">
<g id="plavani">
<path id="Vector (Stroke)" fill-rule="evenodd" clip-rule="evenodd" d="M41.1655 17.5315C44.0395 15.8096 47.788 16.7374 49.5074 19.6213C51.233 22.5003 50.2968 26.2314 47.4204 27.959L40.3965 32.173L45.6956 37.4721C45.3904 35.0935 46.1512 32.6042 47.9781 30.7772C51.1089 27.6465 56.1848 27.6464 59.3157 30.7771C62.4463 33.9079 62.4464 38.9839 59.3158 42.1147C57.4888 43.9417 54.9994 44.7026 52.6208 44.3973L57.1238 48.9004C57.2631 49.0397 57.3799 49.1931 57.4741 49.3559C60.9226 52.3805 66.2858 52.2507 69.57 48.9665C70.4309 48.1056 71.8266 48.1056 72.6875 48.9665C73.5484 49.8274 73.5484 51.2232 72.6875 52.084C68.0381 56.7334 60.6706 57.1781 55.5014 53.418C50.8974 56.78 44.6042 56.7804 39.9998 53.4192C35.3954 56.7804 29.1023 56.78 24.4983 53.418C19.329 57.1781 11.9615 56.7334 7.31217 52.084C6.45128 51.2232 6.45128 49.8274 7.31217 48.9665C8.17305 48.1056 9.56881 48.1056 10.4297 48.9665C13.849 52.3858 19.5219 52.3858 22.9412 48.9665C23.1458 48.7619 23.3865 48.6017 23.6484 48.492L31.5843 40.556L28.0484 37.02C28.0484 37.02 28.0484 37.02 28.0484 37.02C26.2955 35.2671 25.4562 32.8362 25.7603 30.3722C26.0626 27.9132 27.4599 25.756 29.5886 24.4787C29.5886 24.4787 29.5886 24.4787 29.5886 24.4787L41.1655 17.5315ZM27.9631 50.4123L36.2606 42.1148C37.1215 41.2539 37.1215 39.8582 36.2606 38.9973L31.1659 33.9025C30.3714 33.108 29.9986 32.0256 30.136 30.9122C30.2729 29.7967 30.8959 28.8359 31.8571 28.2592L43.4314 21.3135C43.4311 21.3137 43.4317 21.3133 43.4314 21.3135C44.2273 20.8374 45.259 21.1038 45.7211 21.8801L45.7252 21.8869C46.1988 22.6759 45.9441 23.7026 45.1507 24.1792C45.1506 24.1793 45.1508 24.1792 45.1507 24.1792L35.7071 29.8449C35.125 30.1941 34.7363 30.7921 34.6533 31.4658C34.5703 32.1396 34.8024 32.814 35.2824 33.294L52.2667 50.2783C48.9006 52.3083 44.4631 51.871 41.5586 48.9665C41.1452 48.5531 40.5845 48.3209 39.9998 48.3209C39.4152 48.3209 38.8545 48.5531 38.4411 48.9665C35.6023 51.8053 31.2991 52.2873 27.9631 50.4123ZM56.1981 33.8946C54.7891 32.4857 52.5047 32.4857 51.0957 33.8946C49.6867 35.3037 49.6867 37.5882 51.0957 38.9973C52.5047 40.4063 54.7891 40.4063 56.1981 38.9973C57.6071 37.5882 57.6071 35.3037 56.1981 33.8946ZM7.31217 56.7165C8.17305 55.8556 9.56881 55.8556 10.4297 56.7165C13.849 60.1357 19.5219 60.1357 22.9412 56.7165C23.3546 56.303 23.9153 56.0708 24.5 56.0708C25.0846 56.0708 25.6453 56.303 26.0587 56.7165C29.478 60.1357 35.0218 60.1357 38.4411 56.7165C38.8545 56.303 39.4152 56.0708 39.9998 56.0708C40.5845 56.0708 41.1452 56.303 41.5586 56.7165C44.9779 60.1357 50.5217 60.1357 53.9409 56.7165C54.3544 56.303 54.9151 56.0708 55.4997 56.0708C56.0844 56.0708 56.6451 56.303 57.0585 56.7165C60.4777 60.1357 66.1507 60.1357 69.57 56.7165C70.4309 55.8556 71.8266 55.8556 72.6875 56.7165C73.5484 57.5773 73.5484 58.9731 72.6875 59.834C68.0381 64.4833 60.6706 64.928 55.5014 61.168C50.8974 64.53 44.6042 64.5304 39.9998 61.1692C35.3954 64.5304 29.1023 64.53 24.4983 61.168C19.329 64.928 11.9615 64.4833 7.31217 59.834C6.45128 58.9731 6.45128 57.5773 7.31217 56.7165Z" fill="#274F03"/>
</g>
</svg>
