<svg width="80" height="80" viewBox="0 0 80 80" fill="none" xmlns="http://www.w3.org/2000/svg">
<g id="plavani">
<path id="Vector (Stroke)" fill-rule="evenodd" clip-rule="evenodd" d="M41.1656 17.5314C44.0397 15.8096 47.7881 16.7373 49.5075 19.6212C51.2331 22.5002 50.297 26.2314 47.4205 27.959L40.3966 32.1729L45.6957 37.4721C45.3905 35.0934 46.1513 32.6041 47.9782 30.7771C51.109 27.6465 56.185 27.6464 59.3158 30.777C62.4464 33.9079 62.4465 38.9838 59.3159 42.1147C57.4889 43.9416 54.9995 44.7025 52.6209 44.3973L57.1239 48.9004C57.2633 49.0397 57.38 49.193 57.4743 49.3558C60.9227 52.3804 66.2859 52.2506 69.5701 48.9665C70.431 48.1056 71.8268 48.1056 72.6876 48.9665C73.5485 49.8273 73.5485 51.2231 72.6876 52.084C68.0383 56.7333 60.6708 57.178 55.5015 53.418C50.8975 56.78 44.6044 56.7804 40 53.4192C35.3956 56.7804 29.1024 56.78 24.4984 53.418C19.3292 57.178 11.9616 56.7333 7.31229 52.084C6.45141 51.2231 6.45141 49.8273 7.31229 48.9665C8.17317 48.1056 9.56894 48.1056 10.4298 48.9665C13.8491 52.3857 19.522 52.3857 22.9413 48.9665C23.1459 48.7618 23.3867 48.6016 23.6485 48.4919L31.5845 40.556L28.0485 37.0199C28.0485 37.0199 28.0485 37.02 28.0485 37.0199C26.2956 35.2671 25.4564 32.8361 25.7605 30.3721C26.0628 27.9132 27.46 25.7559 29.5887 24.4786C29.5887 24.4786 29.5888 24.4786 29.5887 24.4786L41.1656 17.5314ZM27.9632 50.4123L36.2607 42.1148C37.1216 41.2539 37.1216 39.8581 36.2607 38.9972L31.1661 33.9024C30.3715 33.1079 29.9987 32.0255 30.1361 30.9121C30.2731 29.7967 30.896 28.8358 31.8572 28.2591L43.4315 21.3135C43.4312 21.3136 43.4318 21.3133 43.4315 21.3135C44.2274 20.8374 45.2591 21.1038 45.7213 21.88L45.7253 21.8868C46.1989 22.6758 45.9442 23.7025 45.1509 24.1792C45.1507 24.1793 45.151 24.1791 45.1509 24.1792L35.7072 29.8448C35.1251 30.194 34.7364 30.792 34.6534 31.4657C34.5705 32.1395 34.8026 32.8139 35.2826 33.2939L52.2668 50.2783C48.9007 52.3082 44.4632 51.871 41.5587 48.9665C41.1453 48.553 40.5846 48.3208 40 48.3208C39.4153 48.3208 38.8546 48.553 38.4412 48.9665C35.6024 51.8053 31.2992 52.2872 27.9632 50.4123ZM56.1983 33.8946C54.7892 32.4857 52.5049 32.4857 51.0958 33.8946C49.6868 35.3036 49.6868 37.5881 51.0958 38.9972C52.5049 40.4062 54.7892 40.4062 56.1983 38.9972C57.6073 37.5881 57.6073 35.3036 56.1983 33.8946ZM7.31229 56.7164C8.17317 55.8555 9.56894 55.8555 10.4298 56.7164C13.8491 60.1357 19.522 60.1357 22.9413 56.7164C23.3547 56.303 23.9154 56.0707 24.5001 56.0707C25.0847 56.0707 25.6454 56.303 26.0589 56.7164C29.4781 60.1357 35.0219 60.1357 38.4412 56.7164C38.8546 56.303 39.4153 56.0707 40 56.0707C40.5846 56.0707 41.1453 56.303 41.5587 56.7164C44.978 60.1357 50.5218 60.1357 53.9411 56.7164C54.3545 56.303 54.9152 56.0707 55.4998 56.0707C56.0845 56.0707 56.6452 56.303 57.0586 56.7164C60.4779 60.1357 66.1508 60.1357 69.5701 56.7164C70.431 55.8555 71.8268 55.8555 72.6876 56.7164C73.5485 57.5773 73.5485 58.973 72.6876 59.8339C68.0383 64.4833 60.6708 64.9279 55.5015 61.1679C50.8975 64.5299 44.6044 64.5303 40 61.1691C35.3956 64.5303 29.1024 64.5299 24.4984 61.1679C19.3292 64.9279 11.9616 64.4833 7.31229 59.8339C6.45141 58.973 6.45141 57.5773 7.31229 56.7164Z" fill="#001F94"/>
</g>
</svg>
