<svg width="80" height="80" viewBox="0 0 80 80" fill="none" xmlns="http://www.w3.org/2000/svg">
<g id="ploutve">
<path id="Vector (Stroke)" fill-rule="evenodd" clip-rule="evenodd" d="M9.13582 6.66675C10.4995 6.66675 11.605 7.77222 11.605 9.13588C11.605 9.89416 12.2196 10.5088 12.9778 10.5088H18.7409C19.4991 10.5088 20.1137 9.89416 20.1137 9.13588C20.1137 7.77222 21.2192 6.66675 22.5829 6.66675C23.9465 6.66675 25.052 7.77222 25.052 9.13588C25.052 9.89416 25.6666 10.5088 26.4249 10.5088H32.1879C32.9462 10.5088 33.5608 9.89416 33.5608 9.13588C33.5608 7.77222 34.6663 6.66675 36.0299 6.66675C37.3936 6.66675 38.4991 7.77222 38.4991 9.13588V32.3161C38.4991 38.5505 36.4403 45.1422 34.4805 50.0419C33.4893 52.5199 32.4989 54.6244 31.755 56.1122C31.3826 56.857 31.0709 57.4495 30.8501 57.8595C30.8381 57.8817 30.8265 57.9033 30.815 57.9244L30.815 65.1013C30.815 69.6478 27.1294 73.3334 22.5829 73.3334C18.0364 73.3334 14.3507 69.6478 14.3507 65.1013V57.9255C14.3398 57.9054 14.3287 57.8848 14.3173 57.8638C14.0971 57.4561 13.7858 56.8673 13.4139 56.1288C12.6711 54.6537 11.6815 52.5722 10.6909 50.138C8.73623 45.3353 6.66669 38.897 6.66669 32.9752V9.13588C6.66669 7.77222 7.77216 6.66675 9.13582 6.66675ZM11.605 15.2973V32.9752C11.605 37.9203 13.3774 43.639 15.2648 48.2765C15.7491 49.4663 16.2336 50.5676 16.6853 51.5457C18.1807 50.0105 20.2704 49.057 22.5829 49.057C24.89 49.057 26.9754 50.0061 28.4701 51.535C28.923 50.5434 29.4093 49.423 29.8954 48.2079C31.7775 43.5025 33.5608 37.6076 33.5608 32.3161V15.2973C33.1188 15.3953 32.6594 15.447 32.1879 15.447H26.4249C24.9792 15.447 23.647 14.9609 22.5829 14.1433C21.5188 14.9609 20.1866 15.447 18.7409 15.447H12.9778C12.5063 15.447 12.0469 15.3953 11.605 15.2973ZM43.9701 6.66675C45.3338 6.66675 46.4392 7.77222 46.4392 9.13588C46.4392 9.89417 47.0538 10.5088 47.8121 10.5088H53.5752C54.3334 10.5088 54.948 9.89417 54.948 9.13588C54.948 7.77222 56.0535 6.66675 57.4172 6.66675C58.7808 6.66675 59.8863 7.77222 59.8863 9.13588C59.8863 9.89417 60.5009 10.5088 61.2592 10.5088H67.0222C67.7805 10.5088 68.3951 9.89416 68.3951 9.13588C68.3951 7.77222 69.5006 6.66675 70.8642 6.66675C72.2279 6.66675 73.3334 7.77222 73.3334 9.13588V32.3161C73.3334 38.5505 71.2746 45.1422 69.3147 50.0419C68.3236 52.5199 67.3332 54.6244 66.5893 56.1122C66.2169 56.857 65.9051 57.4495 65.6844 57.8595C65.6724 57.8817 65.6607 57.9033 65.6493 57.9244V65.1013C65.6493 69.6478 61.9637 73.3334 57.4172 73.3334C52.8706 73.3334 49.185 69.6478 49.185 65.1013V57.9255C49.1741 57.9054 49.163 57.8848 49.1516 57.8638C48.9314 57.4561 48.6201 56.8673 48.2482 56.1288C47.5054 54.6537 46.5158 52.5722 45.5251 50.138C43.5705 45.3353 41.501 38.897 41.501 32.9752V9.13588C41.501 7.77222 42.6064 6.66675 43.9701 6.66675ZM46.4392 15.2973V32.9752C46.4392 37.9203 48.2117 43.639 50.0991 48.2765C50.5833 49.4663 51.0679 50.5676 51.5196 51.5457C53.015 50.0105 55.1047 49.057 57.4172 49.057C59.7243 49.057 61.8097 50.0061 63.3043 51.535C63.7573 50.5434 64.2436 49.423 64.7297 48.2079C66.6118 43.5025 68.3951 37.6076 68.3951 32.3161V15.2973C67.9531 15.3953 67.4937 15.447 67.0222 15.447H61.2592C59.8134 15.447 58.4813 14.9609 57.4172 14.1433C56.3531 14.9609 55.0209 15.447 53.5752 15.447H47.8121C47.3406 15.447 46.8812 15.3953 46.4392 15.2973ZM16.5136 22.182C17.8667 22.0128 19.1008 22.9726 19.2699 24.3258L21.1909 39.6938C21.3601 41.047 20.4003 42.281 19.0471 42.4502C17.694 42.6193 16.4599 41.6595 16.2908 40.3063L14.3698 24.9383C14.2006 23.5851 15.1605 22.3511 16.5136 22.182ZM28.6522 22.182C30.0053 22.3511 30.9651 23.5851 30.796 24.9383L28.875 40.3063C28.7058 41.6595 27.4718 42.6193 26.1186 42.4502C24.7655 42.281 23.8057 41.047 23.9748 39.6938L25.8958 24.3258C26.065 22.9726 27.299 22.0128 28.6522 22.182ZM51.3479 22.182C52.701 22.0128 53.9351 22.9726 54.1042 24.3258L56.0252 39.6938C56.1944 41.047 55.2345 42.281 53.8814 42.4502C52.5283 42.6193 51.2942 41.6595 51.1251 40.3063L49.2041 24.9383C49.0349 23.5851 49.9948 22.3511 51.3479 22.182ZM63.4864 22.182C64.8396 22.3511 65.7994 23.5851 65.6303 24.9383L63.7093 40.3063C63.5401 41.6595 62.3061 42.6193 60.9529 42.4502C59.5998 42.281 58.64 41.047 58.8091 39.6938L60.7301 24.3258C60.8993 22.9726 62.1333 22.0128 63.4864 22.182ZM22.5829 53.9953C20.7637 53.9953 19.289 55.47 19.289 57.2892V65.1013C19.289 66.9204 20.7637 68.3952 22.5829 68.3952C24.4021 68.3952 25.8768 66.9204 25.8768 65.1013L25.8768 57.2892C25.8768 55.47 24.4021 53.9953 22.5829 53.9953ZM57.4172 53.9953C55.598 53.9953 54.1233 55.47 54.1233 57.2892V65.1013C54.1233 66.9204 55.598 68.3952 57.4172 68.3952C59.2364 68.3952 60.7111 66.9204 60.7111 65.1013V57.2892C60.7111 55.47 59.2364 53.9953 57.4172 53.9953Z" fill="#001F94"/>
</g>
</svg>
