<svg width="80" height="80" viewBox="0 0 80 80" fill="none" xmlns="http://www.w3.org/2000/svg">
<g id="ploutve">
<path id="Vector (Stroke)" fill-rule="evenodd" clip-rule="evenodd" d="M9.13564 6.66681C10.4993 6.66681 11.6048 7.77228 11.6048 9.13595C11.6048 9.89423 12.2194 10.5088 12.9777 10.5088H18.7407C19.499 10.5088 20.1136 9.89422 20.1136 9.13595C20.1136 7.77228 21.219 6.66681 22.5827 6.66681C23.9464 6.66681 25.0518 7.77228 25.0518 9.13595C25.0518 9.89422 25.6664 10.5088 26.4247 10.5088H32.1877C32.946 10.5088 33.5606 9.89422 33.5606 9.13595C33.5606 7.77228 34.6661 6.66681 36.0298 6.66681C37.3934 6.66681 38.4989 7.77228 38.4989 9.13595V32.3161C38.4989 38.5506 36.4402 45.1422 34.4803 50.042C33.4891 52.5199 32.4987 54.6244 31.7548 56.1123C31.3824 56.857 31.0707 57.4495 30.8499 57.8595C30.838 57.8817 30.8263 57.9034 30.8149 57.9245L30.8149 65.1013C30.8149 69.6478 27.1292 73.3335 22.5827 73.3335C18.0362 73.3335 14.3505 69.6478 14.3505 65.1013V57.9256C14.3396 57.9055 14.3285 57.8849 14.3171 57.8638C14.0969 57.4562 13.7856 56.8673 13.4138 56.1289C12.6709 54.6538 11.6813 52.5723 10.6907 50.1381C8.73605 45.3354 6.6665 38.897 6.6665 32.9753V9.13595C6.6665 7.77228 7.77197 6.66681 9.13564 6.66681ZM11.6048 15.2974V32.9753C11.6048 37.9204 13.3772 43.639 15.2646 48.2766C15.7489 49.4664 16.2334 50.5677 16.6851 51.5458C18.1805 50.0105 20.2703 49.0571 22.5827 49.0571C24.8898 49.0571 26.9752 50.0061 28.4699 51.5351C28.9229 50.5434 29.4091 49.4231 29.8952 48.2079C31.7773 43.5026 33.5606 37.6077 33.5606 32.3161V15.2974C33.1186 15.3954 32.6592 15.4471 32.1877 15.4471H26.4247C24.979 15.4471 23.6468 14.961 22.5827 14.1433C21.5186 14.961 20.1864 15.4471 18.7407 15.4471H12.9777C12.5062 15.4471 12.0468 15.3954 11.6048 15.2974ZM43.9699 6.66681C45.3336 6.66681 46.4391 7.77228 46.4391 9.13595C46.4391 9.89423 47.0537 10.5088 47.8119 10.5088H53.575C54.3333 10.5088 54.9478 9.89423 54.9478 9.13595C54.9478 7.77228 56.0533 6.66681 57.417 6.66681C58.7807 6.66681 59.8861 7.77228 59.8861 9.13595C59.8861 9.89423 60.5007 10.5088 61.259 10.5088H67.022C67.7803 10.5088 68.3949 9.89422 68.3949 9.13595C68.3949 7.77228 69.5004 6.66681 70.864 6.66681C72.2277 6.66681 73.3332 7.77228 73.3332 9.13595V32.3161C73.3332 38.5506 71.2744 45.1422 69.3146 50.042C68.3234 52.5199 67.333 54.6244 66.5891 56.1123C66.2167 56.857 65.905 57.4495 65.6842 57.8595C65.6722 57.8817 65.6606 57.9034 65.6491 57.9245V65.1013C65.6491 69.6479 61.9635 73.3335 57.417 73.3335C52.8705 73.3335 49.1848 69.6478 49.1848 65.1013V57.9256C49.1739 57.9055 49.1628 57.8849 49.1514 57.8638C48.9312 57.4562 48.6199 56.8673 48.2481 56.1289C47.5052 54.6538 46.5156 52.5723 45.525 50.1381C43.5703 45.3354 41.5008 38.897 41.5008 32.9753V9.13595C41.5008 7.77228 42.6063 6.66681 43.9699 6.66681ZM46.4391 15.2974V32.9753C46.4391 37.9204 48.2115 43.639 50.0989 48.2766C50.5832 49.4664 51.0677 50.5677 51.5194 51.5458C53.0148 50.0105 55.1045 49.0571 57.417 49.0571C59.7241 49.0571 61.8095 50.0061 63.3042 51.5351C63.7571 50.5434 64.2434 49.4231 64.7295 48.2079C66.6116 43.5026 68.3949 37.6077 68.3949 32.3161V15.2974C67.9529 15.3954 67.4935 15.4471 67.022 15.4471H61.259C59.8133 15.4471 58.4811 14.961 57.417 14.1433C56.3529 14.961 55.0207 15.4471 53.575 15.4471H47.8119C47.3405 15.4471 46.881 15.3954 46.4391 15.2974ZM16.5134 22.182C17.8666 22.0129 19.1006 22.9727 19.2697 24.3258L21.1908 39.6939C21.3599 41.047 20.4001 42.2811 19.0469 42.4502C17.6938 42.6194 16.4598 41.6595 16.2906 40.3064L14.3696 24.9383C14.2005 23.5852 15.1603 22.3512 16.5134 22.182ZM28.652 22.182C30.0051 22.3512 30.9649 23.5852 30.7958 24.9383L28.8748 40.3064C28.7056 41.6595 27.4716 42.6194 26.1185 42.4502C24.7653 42.2811 23.8055 41.047 23.9746 39.6939L25.8957 24.3258C26.0648 22.9727 27.2988 22.0129 28.652 22.182ZM51.3477 22.182C52.7008 22.0129 53.9349 22.9727 54.104 24.3258L56.025 39.6939C56.1942 41.047 55.2344 42.2811 53.8812 42.4502C52.5281 42.6194 51.294 41.6595 51.1249 40.3064L49.2039 24.9383C49.0347 23.5852 49.9946 22.3512 51.3477 22.182ZM63.4863 22.182C64.8394 22.3512 65.7992 23.5852 65.6301 24.9383L63.7091 40.3064C63.5399 41.6595 62.3059 42.6194 60.9527 42.4502C59.5996 42.2811 58.6398 41.047 58.8089 39.6939L60.7299 24.3258C60.8991 22.9727 62.1331 22.0129 63.4863 22.182ZM22.5827 53.9953C20.7635 53.9953 19.2888 55.47 19.2888 57.2892V65.1013C19.2888 66.9205 20.7635 68.3952 22.5827 68.3952C24.4019 68.3952 25.8766 66.9205 25.8766 65.1013L25.8766 57.2892C25.8766 55.47 24.4019 53.9953 22.5827 53.9953ZM57.417 53.9953C55.5978 53.9953 54.1231 55.47 54.1231 57.2892V65.1013C54.1231 66.9205 55.5978 68.3952 57.417 68.3952C59.2362 68.3952 60.7109 66.9205 60.7109 65.1013V57.2892C60.7109 55.47 59.2362 53.9953 57.417 53.9953Z" fill="#274F03"/>
</g>
</svg>
