<?xml version="1.0" encoding="UTF-8"?>
<svg id="Vrstva_1" data-name="Vrstva 1" xmlns="http://www.w3.org/2000/svg" viewBox="0 0 19.99 20">
  <defs>
    <style>
      .cls-1 {
        fill: #f2ab27;
      }
    </style>
  </defs>
  <g id="plus">
    <g id="Vector">
      <path class="cls-1" d="M17.07,2.93c-1.89-1.89-4.4-2.93-7.07-2.93S4.81,1.04,2.92,2.93C-.97,6.83-.97,13.17,2.92,17.07c1.89,1.89,4.4,2.93,7.07,2.93s5.18-1.04,7.07-2.93c3.9-3.9,3.9-10.24,0-14.14Zm-1.29,12.86c-1.55,1.55-3.6,2.4-5.79,2.4s-4.24-.85-5.79-2.4c-3.19-3.19-3.19-8.38,0-11.57,1.55-1.55,3.6-2.4,5.79-2.4s4.24,.85,5.79,2.4c3.19,3.19,3.19,8.38,0,11.57Z"/>
      <path class="cls-1" d="M15.45,9.09h-4.55V4.55c0-.5-.41-.91-.91-.91s-.91,.41-.91,.91v4.55H4.54c-.5,0-.91,.41-.91,.91s.41,.91,.91,.91h4.55v4.55c0,.5,.41,.91,.91,.91s.91-.41,.91-.91v-4.55h4.55c.5,0,.91-.41,.91-.91s-.41-.91-.91-.91Z"/>
    </g>
  </g>
</svg>