<svg width="24" height="24" viewBox="0 0 24 24" fill="none" xmlns="http://www.w3.org/2000/svg">
<g id="plus">
<g id="Vector">
<path d="M19.0663 4.92897C17.1776 3.04018 14.6663 2 11.9952 2C9.32417 2 6.81295 3.04018 4.92423 4.92897C1.02526 8.828 1.02526 15.1721 4.92423 19.0711C6.81295 20.9598 9.32417 22 11.9953 22C14.6663 22 17.1776 20.9598 19.0663 19.071C22.9653 15.1721 22.9653 8.82794 19.0663 4.92897ZM17.7807 17.7855C16.2353 19.3307 14.1807 20.1818 11.9953 20.1818C9.8098 20.1818 7.7552 19.3307 6.2098 17.7855C3.01974 14.5953 3.01974 9.40473 6.2098 6.21461C7.7552 4.66921 9.8098 3.81818 11.9952 3.81818C14.1807 3.81818 16.2353 4.66921 17.7807 6.21455C20.9707 9.40467 20.9707 14.5953 17.7807 17.7855Z" fill="#486EFF"/>
<path d="M17.4497 11.0909H12.9043V6.54545C12.9043 6.04339 12.4973 5.63636 11.9953 5.63636C11.4932 5.63636 11.0862 6.04339 11.0862 6.54545V11.0909H6.54071C6.03865 11.0909 5.63162 11.4979 5.63162 12C5.63162 12.5021 6.03865 12.9091 6.54071 12.9091H11.0862V17.4545C11.0862 17.9566 11.4932 18.3636 11.9953 18.3636C12.4973 18.3636 12.9043 17.9566 12.9043 17.4545V12.9091H17.4497C17.9518 12.9091 18.3588 12.5021 18.3588 12C18.3588 11.4979 17.9519 11.0909 17.4497 11.0909Z" fill="#486EFF"/>
</g>
</g>
</svg>
