<svg width="80" height="80" viewBox="0 0 80 80" fill="none" xmlns="http://www.w3.org/2000/svg">
<g id="potapeni">
<path id="Vector (Stroke)" fill-rule="evenodd" clip-rule="evenodd" d="M7.31214 7.31337C7.72555 6.89938 8.28627 6.66681 8.87094 6.66681H16.54C17.7575 6.66681 18.7444 7.65509 18.7444 8.87419V19.9145L20.4221 19.1732C20.6745 19.0617 20.9281 18.952 21.1829 18.8443C21.8983 12.0523 27.6363 6.7598 34.6086 6.7598H53.306C60.3159 6.7598 66.078 12.1093 66.7428 18.9538C66.9113 19.0261 67.0792 19.0992 67.2466 19.1731L72.0187 21.2817C72.8177 21.6348 73.3332 22.4268 73.3332 23.3012V37.2531C73.3332 37.823 73.1131 38.3708 72.7189 38.7818L62.6432 49.2906C60.5284 51.4964 57.573 52.7578 54.5199 52.7578C51.1741 52.7578 48.0202 51.2809 45.8754 48.7093L43.8345 46.2619L41.7937 48.709C39.6489 51.2805 36.4952 52.7576 33.1492 52.7576C30.0956 52.7576 27.1399 51.4961 25.0251 49.2901C25.025 49.2901 25.0251 49.2902 25.0251 49.2901L18.7444 42.7396V50.683C18.7444 54.2001 21.5918 57.0513 25.1043 57.0513H35.5134C35.8367 56.6001 36.2007 56.1693 36.6057 55.7638C40.6196 51.7445 47.1275 51.7445 51.1414 55.7638C55.1554 59.7831 55.1554 66.2997 51.1414 70.319C47.1275 74.3383 40.6196 74.3383 36.6057 70.319C36.0587 69.7713 35.5862 69.1771 35.1883 68.5493H23.1796C14.0609 68.5493 6.66848 61.1475 6.66818 52.0165L6.6665 8.87428C6.66648 8.28883 6.89872 7.72735 7.31214 7.31337ZM11.0765 36.9459L11.077 52.0163C11.0773 58.7091 16.4957 64.1345 23.1796 64.1345H33.653C33.5589 63.2469 33.5797 62.3493 33.7156 61.4661H25.1043C19.1569 61.4661 14.3356 56.6383 14.3356 50.683V36.9459H11.0765ZM14.3356 32.5312H11.0763L11.0762 29.1865H14.3356V32.5312ZM18.7444 34.7627C18.7445 34.7546 18.7446 34.7466 18.7446 34.7385C18.7446 34.7305 18.7445 34.7225 18.7444 34.7144V27.0033C18.7445 26.9952 18.7446 26.9872 18.7446 26.9792C18.7446 26.9711 18.7445 26.9631 18.7444 26.955V24.7399L22.202 23.2122C22.2019 23.2122 22.202 23.2122 22.202 23.2122C28.7057 20.3387 36.1884 18.8059 43.8344 18.8059C51.4803 18.8059 58.963 20.3387 65.4667 23.2122C65.4667 23.2122 65.4668 23.2122 65.4667 23.2122L68.9243 24.7399V36.365L59.4628 46.2332C58.1793 47.5719 56.3724 48.343 54.5199 48.343C52.4807 48.343 50.5665 47.4465 49.2595 45.8795C49.2595 45.8795 49.2595 45.8795 49.2595 45.8795L45.5265 41.4033C45.1077 40.9011 44.488 40.6108 43.8345 40.6108C43.1811 40.6108 42.5613 40.9011 42.1425 41.4033L38.4097 45.8791C38.4097 45.8791 38.4098 45.8791 38.4097 45.8791C37.1025 47.4463 35.1883 48.3429 33.1492 48.3429C31.2962 48.3429 29.489 47.5716 28.2055 46.2327L18.7444 36.365V34.7627ZM61.8401 17.1314C60.5608 13.6543 57.2226 11.1746 53.306 11.1746H34.6086C30.7252 11.1746 27.4103 13.6127 26.1074 17.0437C31.712 15.2959 37.7392 14.3911 43.8344 14.3911C50.0308 14.3911 56.1568 15.3262 61.8401 17.1314ZM14.3356 24.7718V23.3012C14.3356 23.3008 14.3356 23.3016 14.3356 23.3012V11.0816H11.0755L11.076 24.7718H14.3356ZM38.5846 60.4892C37.8426 62.0309 37.8119 63.8297 38.4925 65.3926C38.508 65.4252 38.5227 65.4581 38.5367 65.4915C38.8195 66.1095 39.215 66.6884 39.7232 67.1973C42.0154 69.4925 45.7317 69.4925 48.0239 67.1973C50.3161 64.902 50.3161 61.1807 48.0239 58.8855C45.7317 56.5902 42.0154 56.5902 39.7232 58.8855C39.3564 59.2528 39.0482 59.6567 38.7988 60.0854C38.7412 60.228 38.6692 60.3632 38.5846 60.4892ZM26.7471 29.9912V33.141L33.0897 39.7562L37.7735 34.14C40.9301 30.355 46.7388 30.355 49.8954 34.14L54.5791 39.7562L60.9217 33.141V29.9912C50.3386 25.7623 37.3304 25.7623 26.7471 29.9912ZM55.402 40.7429C55.4015 40.7424 55.4024 40.7434 55.402 40.7429V40.7429ZM23.6528 26.5048C36.026 21.0381 51.643 21.0381 64.0161 26.5048C64.8151 26.8578 65.3306 27.6499 65.3306 28.5243V34.0291C65.3306 34.599 65.1105 35.1468 64.7164 35.5579L56.8705 43.741C55.526 45.1432 53.2626 45.0652 52.0179 43.5727C52.0179 43.5726 52.0179 43.5727 52.0179 43.5727L46.5113 36.9698C45.1172 35.2981 42.5517 35.2981 41.1576 36.9698L35.651 43.5726C35.651 43.5726 35.651 43.5726 35.651 43.5726C34.4063 45.0651 32.1429 45.1432 30.7984 43.741L22.9525 35.5579C22.5584 35.1468 22.3383 34.599 22.3383 34.0291V28.5243C22.3383 27.6499 22.8538 26.8578 23.6528 26.5048Z" fill="#274F03"/>
</g>
</svg>
