<svg width="80" height="80" viewBox="0 0 80 80" fill="none" xmlns="http://www.w3.org/2000/svg">
<g id="potapeni">
<path id="Vector (Stroke)" fill-rule="evenodd" clip-rule="evenodd" d="M7.31226 7.31331C7.72567 6.89932 8.28639 6.66675 8.87106 6.66675H16.5401C17.7576 6.66675 18.7446 7.65503 18.7446 8.87413V19.9144L20.4222 19.1731C20.6746 19.0616 20.9282 18.952 21.1831 18.8443C21.8984 12.0523 27.6364 6.75974 34.6088 6.75974H53.3062C60.3161 6.75974 66.0781 12.1092 66.7429 18.9537C66.9114 19.026 67.0793 19.0991 67.2467 19.1731L72.0188 21.2817C72.8178 21.6347 73.3333 22.4267 73.3333 23.3012V37.253C73.3333 37.8229 73.1132 38.3707 72.7191 38.7818L62.6433 49.2905C60.5286 51.4964 57.5732 52.7577 54.52 52.7577C51.1742 52.7577 48.0204 51.2809 45.8756 48.7092L43.8346 46.2619L41.7938 48.7089C39.649 51.2804 36.4953 52.7576 33.1493 52.7576C30.0958 52.7576 27.14 51.496 25.0252 49.2901C25.0251 49.29 25.0252 49.2901 25.0252 49.2901L18.7446 42.7395V50.6829C18.7446 54.2001 21.5919 57.0513 25.1044 57.0513H35.5135C35.8368 56.6001 36.2009 56.1692 36.6058 55.7637C40.6197 51.7444 47.1276 51.7444 51.1416 55.7637C55.1555 59.783 55.1555 66.2996 51.1416 70.3189C47.1276 74.3382 40.6197 74.3382 36.6058 70.3189C36.0588 69.7712 35.5863 69.1771 35.1884 68.5492H23.1798C14.061 68.5492 6.6686 61.1474 6.66831 52.0164L6.66663 8.87422C6.6666 8.28877 6.89885 7.72729 7.31226 7.31331ZM11.0766 36.9459L11.0772 52.0163C11.0774 58.709 16.4959 64.1345 23.1798 64.1345H33.6531C33.559 63.2468 33.5799 62.3493 33.7157 61.466H25.1044C19.157 61.466 14.3357 56.6383 14.3357 50.6829V36.9459H11.0766ZM14.3357 32.5311H11.0764L11.0763 29.1865H14.3357V32.5311ZM18.7446 34.7626C18.7446 34.7546 18.7447 34.7465 18.7447 34.7385C18.7447 34.7304 18.7446 34.7224 18.7446 34.7144V27.0032C18.7446 26.9952 18.7447 26.9871 18.7447 26.9791C18.7447 26.9711 18.7446 26.963 18.7446 26.955V24.7399L22.2021 23.2121C22.2021 23.2121 22.2021 23.2121 22.2021 23.2121C28.7058 20.3387 36.1885 18.8058 43.8345 18.8058C51.4805 18.8058 58.9631 20.3386 65.4669 23.2121C65.4668 23.2121 65.4669 23.2121 65.4669 23.2121L68.9244 24.7399V36.3649L59.4629 46.2331C58.1794 47.5718 56.3725 48.3429 54.52 48.3429C52.4808 48.3429 50.5666 47.4465 49.2596 45.8794C49.2596 45.8794 49.2596 45.8794 49.2596 45.8794L45.5267 41.4032C45.1078 40.901 44.4881 40.6107 43.8346 40.6107C43.1812 40.6107 42.5614 40.901 42.1426 41.4032L38.4099 45.879C38.4098 45.8791 38.4099 45.879 38.4099 45.879C37.1027 47.4462 35.1884 48.3428 33.1493 48.3428C31.2963 48.3428 29.4891 47.5715 28.2057 46.2327L18.7446 36.3649V34.7626ZM61.8402 17.1314C60.5609 13.6542 57.2227 11.1745 53.3062 11.1745H34.6088C30.7253 11.1745 27.4104 13.6126 26.1075 17.0436C31.7121 15.2959 37.7393 14.3911 43.8345 14.3911C50.0309 14.3911 56.1569 15.3262 61.8402 17.1314ZM14.3357 24.7717V23.3012C14.3357 23.3008 14.3357 23.3016 14.3357 23.3012V11.0815H11.0756L11.0761 24.7717H14.3357ZM38.5847 60.4891C37.8427 62.0308 37.812 63.8296 38.4926 65.3926C38.5081 65.4251 38.5229 65.4581 38.5368 65.4914C38.8196 66.1094 39.2152 66.6884 39.7233 67.1972C42.0155 69.4925 45.7319 69.4925 48.024 67.1972C50.3162 64.902 50.3162 61.1807 48.024 58.8854C45.7319 56.5902 42.0155 56.5902 39.7233 58.8854C39.3565 59.2528 39.0483 59.6566 38.7989 60.0854C38.7413 60.228 38.6693 60.3631 38.5847 60.4891ZM26.7472 29.9911V33.141L33.0899 39.7562L37.7736 34.14C40.9302 30.355 46.7389 30.355 49.8955 34.14L54.5793 39.7562L60.9219 33.141V29.9911C50.3387 25.7623 37.3305 25.7622 26.7472 29.9911ZM55.4021 40.7428C55.4017 40.7423 55.4025 40.7433 55.4021 40.7428V40.7428ZM23.6529 26.5047C36.0261 21.038 51.6431 21.038 64.0162 26.5047C64.8152 26.8578 65.3307 27.6498 65.3307 28.5243V34.0291C65.3307 34.5989 65.1106 35.1467 64.7165 35.5578L56.8706 43.7409C55.5261 45.1431 53.2627 45.0651 52.018 43.5726C52.018 43.5726 52.018 43.5726 52.018 43.5726L46.5114 36.9697C45.1173 35.2981 42.5518 35.2981 41.1577 36.9697L35.6511 43.5725C35.6511 43.5726 35.6512 43.5725 35.6511 43.5725C34.4065 45.065 32.143 45.1432 30.7985 43.7409L22.9526 35.5578C22.5585 35.1467 22.3384 34.5989 22.3384 34.0291V28.5243C22.3384 27.6498 22.8539 26.8578 23.6529 26.5047Z" fill="#001F94"/>
</g>
</svg>
