<svg width="40" height="40" viewBox="0 0 40 40" fill="none" xmlns="http://www.w3.org/2000/svg">
<g id="primestak">
<path id="Vector (Stroke)" fill-rule="evenodd" clip-rule="evenodd" d="M15.2471 6.53397C16.0091 4.65712 17.8485 3.33337 19.9999 3.33337C22.1513 3.33337 23.9907 4.65712 24.7528 6.53397C24.8668 6.52499 24.9823 6.52036 25.0991 6.52036C26.7834 6.52036 28.2513 7.44732 29.0203 8.81891C29.573 8.5716 30.1864 8.43255 30.8357 8.43255C33.3167 8.43255 35.328 10.4439 35.328 12.9249C35.328 13.4217 35.2449 13.8947 35.096 14.3342C36.0108 15.0364 36.6028 16.1392 36.6028 17.3867C36.6028 19.0575 35.5399 20.4801 34.0532 21.0151V29.467C34.7601 29.4833 35.328 30.0613 35.328 30.7721C35.328 31.493 34.7436 32.0774 34.0227 32.0774H25.7365C25.0155 32.0774 24.4311 31.493 24.4311 30.7721C24.4311 30.0613 24.9991 29.4833 25.7059 29.467V21.2417H25.1297V23.1233C25.1297 23.4057 25.0381 23.6806 24.8686 23.9065L23.2175 26.108V34.0559H35.3612C36.0821 34.0559 36.6666 34.6404 36.6666 35.3613C36.6666 36.0823 36.0821 36.6667 35.3612 36.6667H4.63864C3.91769 36.6667 3.33325 36.0823 3.33325 35.3613C3.33325 34.6404 3.91769 34.0559 4.63864 34.0559H16.7823V27.171L13.1117 25.5979C12.7508 25.4432 12.4787 25.1343 12.3708 24.7567L11.3665 21.2417H7.25197C5.12286 21.2417 3.39699 19.5157 3.39699 17.3867C3.39699 16.1392 3.98904 15.0364 4.90383 14.3342C4.75495 13.8947 4.67179 13.4217 4.67179 12.9249C4.67179 10.4439 6.68311 8.43255 9.16416 8.43255C9.81341 8.43255 10.4269 8.57159 10.9795 8.81891C11.7486 7.44732 13.2164 6.52036 14.9007 6.52036C15.0175 6.52036 15.133 6.52499 15.2471 6.53397ZM12.3809 18.6309C12.3616 18.6305 12.3421 18.6305 12.3226 18.6309H7.25197C6.5648 18.6309 6.00777 18.0739 6.00777 17.3867C6.00777 16.8009 6.41754 16.3051 6.97519 16.1781C7.41341 16.0783 7.76946 15.76 7.91765 15.3357C8.06584 14.9114 7.98533 14.4407 7.70454 14.0898C7.43556 13.7536 7.28256 13.3537 7.28256 12.9249C7.28256 11.8858 8.125 11.0433 9.16416 11.0433C9.77294 11.0433 10.317 11.3389 10.668 11.8113C11.0051 12.2649 11.5959 12.4501 12.1316 12.2701C12.6674 12.09 13.0264 11.5857 13.0211 11.0205C13.021 11.0022 13.0204 10.9849 13.0196 10.9688C13.043 9.94995 13.8763 9.13114 14.9007 9.13114C15.1657 9.13114 15.4211 9.18958 15.6623 9.29706C16.0466 9.46827 16.4898 9.44381 16.8529 9.23137C17.216 9.01892 17.4544 8.64453 17.4934 8.22567C17.6125 6.94582 18.69 5.94415 19.9999 5.94415C21.3098 5.94415 22.3873 6.94582 22.5064 8.22567C22.5454 8.64453 22.7839 9.01892 23.147 9.23137C23.51 9.44381 23.9532 9.46827 24.3375 9.29706C24.5787 9.18958 24.8341 9.13114 25.0991 9.13114C26.1236 9.13114 26.9568 9.94993 26.9802 10.9688C26.9794 10.9849 26.9789 11.0022 26.9787 11.0205C26.9734 11.5857 27.3324 12.09 27.8682 12.2701C28.4039 12.4501 28.9947 12.2649 29.3318 11.8113C29.6828 11.3389 30.2269 11.0433 30.8357 11.0433C31.8748 11.0433 32.7173 11.8858 32.7173 12.9249C32.7173 13.3537 32.5643 13.7536 32.2953 14.0898C32.0145 14.4407 31.934 14.9114 32.0822 15.3357C32.2304 15.76 32.5864 16.0783 33.0246 16.1781C33.5823 16.3051 33.9921 16.8009 33.9921 17.3867C33.9921 18.0739 33.435 18.6309 32.7479 18.6309H12.3809ZM14.0817 21.2417L14.7106 23.4427L16.7823 24.3306V21.2417H14.0817ZM19.3931 21.2417V26.2814C19.3936 26.301 19.3936 26.3207 19.3931 26.3404V34.0559H20.6067V25.6729C20.6067 25.3904 20.6983 25.1156 20.8678 24.8897L22.5189 22.6882V21.2417H19.3931ZM13.0068 10.8367C13.0058 10.8298 13.005 10.8243 13.0052 10.8255L13.0057 10.829L13.0068 10.8367ZM28.3167 21.2417V29.4667H31.4425V21.2417H28.3167ZM26.9947 10.8257C26.9946 10.8258 26.9947 10.8255 26.9947 10.8257V10.8257Z" fill="#002FE0"/>
</g>
</svg>
