<svg width="32" height="32" viewBox="0 0 32 32" fill="none" xmlns="http://www.w3.org/2000/svg">
<g id="priroda">
<g id="Vector">
<path fill-rule="evenodd" clip-rule="evenodd" d="M2.67212 18.0283C2.67212 20.4022 4.59658 22.3265 6.97038 22.3265C7.88026 22.3265 8.72441 22.0431 9.41879 21.5612C10.1132 22.0432 10.9573 22.3265 11.8672 22.3265C13.524 22.3265 14.9602 21.3888 15.6769 20.02C15.9444 19.509 15.7471 18.8779 15.2361 18.6104C14.7252 18.3428 14.0941 18.5402 13.8266 19.0511C13.456 19.7588 12.7167 20.2379 11.8672 20.2379C11.2045 20.2379 10.6109 19.9474 10.2043 19.4832C10.0061 19.2569 9.71976 19.1271 9.41882 19.1271C9.11789 19.127 8.83158 19.2569 8.63329 19.4832C8.22661 19.9474 7.63306 20.2379 6.97038 20.2379C5.75007 20.2379 4.76075 19.2486 4.76075 18.0283C4.76075 16.9525 5.53071 16.0543 6.55023 15.8586C6.84952 15.8012 7.10878 15.6158 7.26 15.3512C7.41123 15.0866 7.43932 14.7692 7.33692 14.4821C6.82806 13.0557 7.88408 11.53 9.4188 11.53C9.99556 11.53 10.4631 11.0625 10.4631 10.4857C10.4631 9.90897 9.99556 9.44141 9.4188 9.44141C6.79719 9.44141 4.90776 11.7166 5.13696 14.1401C3.68023 14.8281 2.67212 16.3096 2.67212 18.0283Z" fill="#002FE0"/>
<path fill-rule="evenodd" clip-rule="evenodd" d="M9.37045 26.5797C9.94721 26.5797 10.4148 26.1122 10.4148 25.5354V21.1102C10.4148 20.5334 9.94721 20.0659 9.37045 20.0659C8.79369 20.0659 8.32614 20.5334 8.32614 21.1102V25.5354C8.32614 26.1122 8.79369 26.5797 9.37045 26.5797Z" fill="#002FE0"/>
<path fill-rule="evenodd" clip-rule="evenodd" d="M16.3451 20.0523C17.0673 21.4034 18.4939 22.3265 20.1376 22.3265C21.0475 22.3265 21.8917 22.0431 22.5861 21.5611C23.2804 22.0431 24.1246 22.3265 25.0344 22.3265C27.4083 22.3265 29.3327 20.4021 29.3327 18.0283C29.3327 16.3095 28.3246 14.8281 26.8679 14.1401C27.0971 11.7163 25.2075 9.44141 22.5861 9.44141C22.0093 9.44141 21.5417 9.90897 21.5417 10.4857C21.5417 11.0625 22.0093 11.53 22.5861 11.53C24.1207 11.53 25.1768 13.0555 24.6679 14.4821C24.5655 14.7692 24.5936 15.0866 24.7449 15.3512C24.8961 15.6158 25.1553 15.8011 25.4546 15.8586C26.4741 16.0543 27.2441 16.9525 27.2441 18.0283C27.2441 19.2486 26.2548 20.2379 25.0344 20.2379C24.3718 20.2379 23.7782 19.9474 23.3716 19.4832C23.1733 19.2569 22.887 19.1271 22.5861 19.1271C22.2851 19.1271 21.9988 19.2569 21.8005 19.4832C21.3939 19.9474 20.8003 20.2379 20.1376 20.2379C19.2948 20.2379 18.5605 19.7663 18.1871 19.0677C17.9152 18.5591 17.2824 18.3671 16.7738 18.639C16.2651 18.9109 16.0732 19.5437 16.3451 20.0523Z" fill="#002FE0"/>
<path fill-rule="evenodd" clip-rule="evenodd" d="M22.5377 26.5797C23.1145 26.5797 23.582 26.1122 23.582 25.5354V20.7457C23.582 20.1689 23.1145 19.7014 22.5377 19.7014C21.9609 19.7014 21.4934 20.1689 21.4934 20.7457V25.5354C21.4934 26.1122 21.9609 26.5797 22.5377 26.5797Z" fill="#002FE0"/>
<path fill-rule="evenodd" clip-rule="evenodd" d="M11.5036 17.3728C12.0971 19.2831 13.8771 20.6702 15.983 20.6702C18.0832 20.6702 19.8591 19.2907 20.4575 17.3886C22.3875 16.6081 23.6098 14.4491 23.6098 12.1419C23.6098 9.91484 22.472 7.82831 20.6586 6.98301C20.4681 4.56746 18.4475 2.66663 15.983 2.66663C13.5131 2.66663 11.4891 4.57584 11.3063 6.99897C9.51251 7.85462 8.38887 9.92777 8.38887 12.1419C8.38887 14.4352 9.59532 16.5793 11.5036 17.3728ZM15.983 18.5816C14.6893 18.5816 13.6144 17.636 13.4149 16.3982C13.3478 15.9816 13.0367 15.6464 12.6262 15.5485C11.5376 15.2888 10.4775 13.9905 10.4775 12.1419C10.4775 10.3045 11.5258 9.00866 12.6079 8.73952C13.1117 8.61423 13.4469 8.13791 13.3949 7.62139C13.386 7.53344 13.3814 7.44531 13.3814 7.35685C13.3814 5.92005 14.5462 4.75525 15.983 4.75525C17.4198 4.75525 18.5846 5.92005 18.5846 7.35685C18.5846 7.44399 18.5803 7.53046 18.5718 7.61618C18.5206 8.13622 18.8616 8.61408 19.37 8.7347C20.4595 8.99316 21.5212 10.2917 21.5212 12.1419C21.5212 14.0043 20.4467 15.3056 19.3503 15.5538C18.9353 15.6477 18.6188 15.984 18.5502 16.4039C18.3483 17.639 17.2747 18.5816 15.983 18.5816Z" fill="#002FE0"/>
<path fill-rule="evenodd" clip-rule="evenodd" d="M15.9994 25.9168C16.5761 25.9168 17.0437 25.4493 17.0437 24.8725V10.1359C17.0437 9.55913 16.5761 9.09158 15.9994 9.09158C15.4226 9.09158 14.955 9.55913 14.955 10.1359V24.8725C14.955 25.4493 15.4226 25.9168 15.9994 25.9168Z" fill="#002FE0"/>
<path fill-rule="evenodd" clip-rule="evenodd" d="M2.98031 29.0358C3.39274 29.4389 4.05392 29.4314 4.4571 29.019C5.12089 28.34 6.53517 27.6334 8.62425 27.1043C10.6699 26.5862 13.2198 26.2738 15.9994 26.2738C18.7789 26.2738 21.3288 26.5862 23.3745 27.1043C25.4635 27.6334 26.8778 28.34 27.5416 29.019C27.9448 29.4314 28.606 29.4389 29.0184 29.0358C29.4308 28.6326 29.4383 27.9714 29.0352 27.559C27.9595 26.4586 26.0817 25.6354 23.8873 25.0796C21.6495 24.5128 18.9245 24.1852 15.9994 24.1852C13.0742 24.1852 10.3493 24.5128 8.11144 25.0796C5.91705 25.6354 4.0392 26.4586 2.96356 27.559C2.56038 27.9714 2.56788 28.6326 2.98031 29.0358Z" fill="#002FE0"/>
</g>
</g>
</svg>
