<?xml version="1.0" encoding="UTF-8"?>
<svg id="Vrstva_1" data-name="Vrstva 1" xmlns="http://www.w3.org/2000/svg" viewBox="0 0 23.53 23.51">
  <defs>
    <style>
      .cls-1 {
        fill: #118c8c;
        fill-rule: 118C8C;
      }
    </style>
  </defs>
  <g id="priroda">
    <g id="Vector">
      <path class="cls-1" d="M0,13.54c0,2.1,1.7,3.79,3.79,3.79,.8,0,1.54-.25,2.16-.68,.61,.42,1.36,.68,2.16,.68,1.46,0,2.72-.83,3.36-2.04,.24-.45,.06-1.01-.39-1.24-.45-.24-1.01-.06-1.24,.39-.33,.63-.98,1.05-1.73,1.05-.58,0-1.11-.26-1.46-.66-.18-.2-.42-.32-.7-.32s-.52,.11-.7,.32c-.36,.41-.88,.66-1.46,.66-1.08,0-1.95-.87-1.95-1.95,0-.95,.68-1.74,1.58-1.91,.26-.05,.49-.21,.63-.45,.13-.23,.16-.51,.07-.77-.45-1.26,.48-2.6,1.83-2.6,.51,0,.92-.41,.92-.92s-.41-.92-.92-.92c-2.31,0-3.98,2.01-3.77,4.14-1.29,.6-2.18,1.9-2.18,3.42Z"/>
      <path class="cls-1" d="M5.91,21.08c.51,0,.92-.41,.92-.92v-3.91c0-.51-.41-.92-.92-.92s-.92,.41-.92,.92v3.91c0,.51,.41,.92,.92,.92Z"/>
      <path class="cls-1" d="M12.06,15.33c.63,1.19,1.9,2,3.34,2,.8,0,1.54-.25,2.16-.68,.61,.42,1.36,.68,2.16,.68,2.09,0,3.79-1.69,3.79-3.79,0-1.52-.89-2.82-2.17-3.43,.2-2.13-1.46-4.14-3.77-4.14-.51,0-.92,.41-.92,.92s.41,.92,.92,.92c1.35,0,2.28,1.35,1.83,2.6-.09,.26-.06,.53,.07,.77,.13,.23,.36,.4,.63,.45,.9,.18,1.58,.96,1.58,1.91,0,1.08-.87,1.95-1.95,1.95-.58,0-1.11-.26-1.46-.66-.18-.2-.42-.32-.7-.32s-.52,.11-.7,.32c-.36,.41-.88,.66-1.46,.66-.74,0-1.39-.41-1.72-1.03-.24-.45-.79-.62-1.24-.38-.45,.24-.62,.79-.38,1.24v.02Z"/>
      <path class="cls-1" d="M17.52,21.08c.51,0,.92-.41,.92-.92v-4.22c0-.51-.41-.92-.92-.92s-.92,.41-.92,.92v4.22c0,.51,.41,.92,.92,.92Z"/>
      <path class="cls-1" d="M7.79,12.97c.52,1.68,2.09,2.91,3.95,2.91s3.42-1.22,3.94-2.89c1.7-.69,2.78-2.59,2.78-4.63s-1.01-3.8-2.6-4.55c-.17-2.13-1.95-3.81-4.13-3.81s-3.96,1.68-4.13,3.82c-1.58,.76-2.57,2.58-2.57,4.53s1.07,3.91,2.74,4.61h.02Zm3.95,1.08c-1.14,0-2.09-.84-2.27-1.92-.06-.37-.34-.66-.7-.75-.96-.23-1.9-1.38-1.9-3.01s.93-2.76,1.88-3c.44-.11,.74-.53,.7-.99,0-.08,0-.16,0-.23,0-1.27,1.02-2.29,2.29-2.29s2.29,1.02,2.29,2.29c0,.08,0,.15,0,.23-.04,.46,.26,.88,.71,.99,.96,.23,1.9,1.38,1.9,3.01s-.94,2.79-1.91,3.01c-.36,.08-.64,.38-.71,.75-.18,1.09-1.13,1.92-2.27,1.92h0Z"/>
      <path class="cls-1" d="M11.75,20.5c.51,0,.92-.41,.92-.92V6.59c0-.51-.41-.92-.92-.92s-.92,.41-.92,.92v13c0,.51,.41,.92,.92,.92Z"/>
      <path class="cls-1" d="M.27,23.25c.36,.35,.94,.35,1.3-.02,.58-.6,1.83-1.23,3.68-1.68,1.81-.46,4.06-.73,6.51-.73s4.7,.27,6.51,.73c1.84,.47,3.09,1.09,3.68,1.68,.35,.36,.93,.37,1.3,.02,.36-.35,.37-.93,.02-1.3-.95-.97-2.6-1.69-4.54-2.19-1.98-.5-4.37-.78-6.96-.78s-4.98,.29-6.96,.78c-1.93,.49-3.59,1.22-4.54,2.19-.35,.36-.35,.94,.02,1.3h-.02Z"/>
    </g>
  </g>
</svg>