<?xml version="1.0" encoding="UTF-8"?>
<svg id="Vrstva_1" data-name="Vrstva 1" xmlns="http://www.w3.org/2000/svg" viewBox="0 0 26.67 26.67">
  <defs>
    <style>
      .cls-1 {
        fill: #5cae13;
        fill-rule: evenodd;
      }
    </style>
  </defs>
  <g id="priroda">
    <g id="Vector">
      <path class="cls-1" d="M0,15.36C0,17.74,1.93,19.66,4.3,19.66c.91,0,1.75-.28,2.45-.77,.69,.48,1.54,.77,2.45,.77,1.66,0,3.09-.94,3.81-2.31,.27-.51,.07-1.14-.44-1.41-.51-.27-1.14-.07-1.41,.44-.37,.71-1.11,1.19-1.96,1.19-.66,0-1.26-.29-1.66-.75-.2-.23-.48-.36-.79-.36-.3,0-.59,.13-.79,.36-.41,.46-1,.75-1.66,.75-1.22,0-2.21-.99-2.21-2.21,0-1.08,.77-1.97,1.79-2.17,.3-.06,.56-.24,.71-.51,.15-.26,.18-.58,.08-.87-.51-1.43,.55-2.95,2.08-2.95,.58,0,1.04-.47,1.04-1.04s-.47-1.04-1.04-1.04c-2.62,0-4.51,2.28-4.28,4.7C1.01,12.16,0,13.64,0,15.36Z"/>
      <path class="cls-1" d="M6.7,23.91c.58,0,1.04-.47,1.04-1.04v-4.43c0-.58-.47-1.04-1.04-1.04s-1.04,.47-1.04,1.04v4.43c0,.58,.47,1.04,1.04,1.04Z"/>
      <path class="cls-1" d="M13.68,17.39c.72,1.35,2.15,2.27,3.79,2.27,.91,0,1.75-.28,2.45-.77,.69,.48,1.54,.77,2.45,.77,2.37,0,4.3-1.92,4.3-4.3,0-1.72-1.01-3.2-2.46-3.89,.23-2.42-1.66-4.7-4.28-4.7-.58,0-1.04,.47-1.04,1.04s.47,1.04,1.04,1.04c1.53,0,2.59,1.53,2.08,2.95-.1,.29-.07,.6,.08,.87,.15,.26,.41,.45,.71,.51,1.02,.2,1.79,1.09,1.79,2.17,0,1.22-.99,2.21-2.21,2.21-.66,0-1.26-.29-1.66-.75-.2-.23-.48-.36-.79-.36s-.59,.13-.79,.36c-.41,.46-1,.75-1.66,.75-.84,0-1.58-.47-1.95-1.17-.27-.51-.9-.7-1.41-.43-.51,.27-.7,.9-.43,1.41Z"/>
      <path class="cls-1" d="M19.87,23.91c.58,0,1.04-.47,1.04-1.04v-4.79c0-.58-.47-1.04-1.04-1.04s-1.04,.47-1.04,1.04v4.79c0,.58,.47,1.04,1.04,1.04Z"/>
      <path class="cls-1" d="M8.84,14.71c.59,1.91,2.37,3.3,4.48,3.3s3.88-1.38,4.47-3.28c1.93-.78,3.15-2.94,3.15-5.25s-1.14-4.31-2.95-5.16c-.19-2.42-2.21-4.32-4.68-4.32s-4.49,1.91-4.68,4.33c-1.79,.86-2.92,2.93-2.92,5.14s1.21,4.44,3.11,5.23Zm4.48,1.21c-1.29,0-2.37-.95-2.57-2.18-.07-.42-.38-.75-.79-.85-1.09-.26-2.15-1.56-2.15-3.41s1.05-3.13,2.13-3.4c.5-.13,.84-.6,.79-1.12,0-.09-.01-.18-.01-.26,0-1.44,1.16-2.6,2.6-2.6s2.6,1.16,2.6,2.6c0,.09,0,.17-.01,.26-.05,.52,.29,1,.8,1.12,1.09,.26,2.15,1.56,2.15,3.41s-1.07,3.16-2.17,3.41c-.41,.09-.73,.43-.8,.85-.2,1.24-1.28,2.18-2.57,2.18Z"/>
      <path class="cls-1" d="M13.33,23.25c.58,0,1.04-.47,1.04-1.04V7.47c0-.58-.47-1.04-1.04-1.04s-1.04,.47-1.04,1.04v14.74c0,.58,.47,1.04,1.04,1.04Z"/>
      <path class="cls-1" d="M.31,26.37c.41,.4,1.07,.4,1.48-.02,.66-.68,2.08-1.39,4.17-1.91,2.05-.52,4.6-.83,7.38-.83s5.33,.31,7.38,.83c2.09,.53,3.5,1.24,4.17,1.91,.4,.41,1.06,.42,1.48,.02,.41-.4,.42-1.06,.02-1.48-1.08-1.1-2.95-1.92-5.15-2.48-2.24-.57-4.96-.89-7.89-.89s-5.65,.33-7.89,.89c-2.19,.56-4.07,1.38-5.15,2.48-.4,.41-.4,1.07,.02,1.48Z"/>
    </g>
  </g>
</svg>