<?xml version="1.0" encoding="UTF-8"?>
<svg id="Vrstva_1" data-name="Vrstva 1" xmlns="http://www.w3.org/2000/svg" viewBox="0 0 26.67 26.67">
  <defs>
    <style>
      .cls-1 {
        fill-rule: evenodd;
      }

      .cls-1, .cls-2 {
        fill: #002fe0;
      }
    </style>
  </defs>
  <g id="prispevek">
    <g id="Vector">
      <path class="cls-2" d="M15.34,10.84c-.4-.14-.6-.58-.46-.98s.58-.6,.98-.46c.4,.14,.6,.58,.46,.98-.14,.4-.58,.6-.98,.46Z"/>
      <path class="cls-2" d="M6.72,7.7c-.4-.14-.6-.58-.46-.98,.14-.4,.58-.6,.98-.46,.4,.14,.6,.58,.46,.98-.14,.4-.58,.6-.98,.46Z"/>
      <path class="cls-1" d="M15.4,14.14c.2-.54-.07-1.14-.61-1.34-1.6-.6-3.3-.94-5.04-.98-2.67-.07-5.28-.94-7.46-2.47L4.74,2.7c2.4,1.58,5.19,2.5,8.09,2.58,2.66,.07,5.24,.93,7.41,2.47l-1.56,4.3c-.2,.54,.08,1.14,.62,1.34,.54,.2,1.14-.08,1.34-.62l1.83-5.03c.15-.42,.02-.9-.33-1.18-2.64-2.09-5.88-3.27-9.25-3.37-2.9-.08-5.71-1.15-8-2.96-.26-.21-.61-.28-.93-.19-.32,.09-.58,.33-.7,.64L.06,9.36c-.16,.42-.02,.9,.33,1.18,2.64,2.1,5.94,3.27,9.3,3.37,1.5,.04,2.97,.33,4.36,.85,.54,.2,1.14-.07,1.34-.61Z"/>
      <path class="cls-1" d="M10.41,10.97c1.34,.49,2.81-.2,3.3-1.54s-.2-2.81-1.54-3.3m-1.76,4.84c-1.34-.49-2.02-1.96-1.54-3.3,.49-1.34,1.96-2.02,3.3-1.54m-.42,2.58c-.09,.25-.37,.38-.62,.29-.25-.09-.38-.37-.29-.62m.91,.33c.09-.25-.04-.53-.29-.62l.29,.62Zm-.29-.62c-.25-.09-.53,.04-.62,.29l.62-.29Z"/>
      <path class="cls-2" d="M11.33,20.41c.4-.14,.6-.58,.46-.98-.14-.4-.58-.6-.98-.46-.4,.14-.6,.58-.46,.98,.14,.4,.58,.6,.98,.46Z"/>
      <path class="cls-2" d="M19.95,17.27c.4-.14,.6-.58,.46-.98-.14-.4-.58-.6-.98-.46-.4,.14-.6,.58-.46,.98,.14,.4,.58,.6,.98,.46Z"/>
      <path class="cls-1" d="M8.04,26.63c.32,.09,.67,.02,.93-.19,2.29-1.82,5.1-2.89,8-2.96,3.36-.09,6.66-1.27,9.3-3.37,.35-.28,.49-.76,.33-1.18l-3.19-8.62c-.12-.31-.38-.55-.7-.64-.32-.09-.67-.02-.93,.19-2.28,1.81-5.09,2.83-8,2.91-3.36,.09-6.61,1.27-9.25,3.37-.35,.28-.49,.75-.33,1.17l3.14,8.68c.11,.32,.37,.56,.7,.65Zm.8-2.66l-2.41-6.65c2.17-1.53,4.74-2.39,7.41-2.47,2.89-.08,5.69-.96,8.09-2.53l2.44,6.61c-2.17,1.53-4.79,2.39-7.45,2.46-2.89,.08-5.69,1-8.09,2.58Z"/>
      <path class="cls-1" d="M15.54,18.58c-.25,.09-.53-.04-.62-.29-.09-.25,.04-.53,.29-.62,.25-.09,.53,.04,.62,.29m.42,2.58c-1.34,.49-2.81-.2-3.3-1.54-.49-1.34,.2-2.81,1.54-3.3m1.76,4.84c1.34-.49,2.02-1.96,1.54-3.3-.49-1.34-1.96-2.02-3.3-1.54m1.05,2.87c.25-.09,.38-.37,.29-.62l-.29,.62Z"/>
    </g>
  </g>
</svg>