<svg width="32" height="32" viewBox="0 0 32 32" fill="none" xmlns="http://www.w3.org/2000/svg">
<g id="prispevek">
<g id="Vector">
<path d="M18.0072 13.5021C17.6103 13.3577 17.4056 12.9187 17.5501 12.5218C17.6946 12.1248 18.1335 11.9202 18.5304 12.0646C18.9274 12.2091 19.1321 12.648 18.9876 13.045C18.8431 13.4419 18.4042 13.6466 18.0072 13.5021Z" fill="#486EFF"/>
<path d="M9.38241 10.363C8.98549 10.2185 8.78081 9.77957 8.92527 9.3826C9.06973 8.98563 9.50871 8.781 9.90563 8.92546C10.3026 9.06997 10.5073 9.50886 10.3628 9.90582C10.2183 10.3027 9.77938 10.5074 9.38241 10.363Z" fill="#486EFF"/>
<path fill-rule="evenodd" clip-rule="evenodd" d="M18.0624 16.8106C18.2648 16.2706 17.9911 15.6687 17.4511 15.4662C15.8488 14.8656 14.1481 14.5295 12.4153 14.4822C9.74858 14.4093 7.13068 13.5467 4.95946 12.0172L7.40579 5.36435C9.80199 6.94256 12.6004 7.86592 15.4975 7.94508C18.1613 8.01787 20.7379 8.87894 22.9047 10.411L21.34 14.71C21.1428 15.2519 21.4222 15.8512 21.9642 16.0485C22.5062 16.2457 23.1054 15.9663 23.3027 15.4243L25.1322 10.3976C25.286 9.97518 25.1522 9.50181 24.8001 9.22239C22.1635 7.12997 18.9193 5.94919 15.5545 5.85725C12.6527 5.77796 9.84185 4.71152 7.55027 2.89293C7.2878 2.68463 6.94132 2.61493 6.61872 2.70554C6.29612 2.79614 6.0366 3.03604 5.92095 3.35053L2.73073 12.0265C2.57516 12.4495 2.70861 12.9247 3.06171 13.2049C5.70157 15.2998 8.99764 16.4782 12.3583 16.57C13.8584 16.611 15.3307 16.902 16.718 17.422C17.2581 17.6244 17.86 17.3507 18.0624 16.8106Z" fill="#486EFF"/>
<path fill-rule="evenodd" clip-rule="evenodd" d="M13.0761 13.6325C14.412 14.1187 15.889 13.4298 16.3752 12.0941C16.8614 10.7583 16.1728 9.28108 14.8368 8.79487M13.0761 13.6325C11.7401 13.1463 11.0514 11.6691 11.5375 10.3333C12.0238 8.99753 13.5009 8.30868 14.8368 8.79487M14.4126 11.3797C14.3208 11.6316 14.0423 11.7615 13.7904 11.6698C13.5386 11.5782 13.4085 11.2996 13.5002 11.0477M14.4126 11.3797C14.5043 11.1277 14.3743 10.8492 14.1225 10.7575L14.4126 11.3797ZM14.1225 10.7575C13.8706 10.6659 13.5919 10.7958 13.5002 11.0477L14.1225 10.7575Z" fill="#486EFF"/>
<path d="M13.9924 23.0745C14.3893 22.9301 14.594 22.4911 14.4495 22.0942C14.305 21.6973 13.8661 21.4926 13.4691 21.637C13.0722 21.7815 12.8675 22.2204 13.012 22.6174C13.1565 23.0144 13.5954 23.219 13.9924 23.0745Z" fill="#486EFF"/>
<path d="M22.6173 19.9353C23.0142 19.7908 23.2189 19.3519 23.0744 18.9549C22.93 18.558 22.491 18.3533 22.0941 18.4978C21.6971 18.6423 21.4924 19.0812 21.6369 19.4782C21.7814 19.8751 22.2203 20.0798 22.6173 19.9353Z" fill="#486EFF"/>
<path fill-rule="evenodd" clip-rule="evenodd" d="M10.703 29.2936C11.0263 29.3853 11.3739 29.3159 11.6371 29.107C13.9288 27.2884 16.7396 26.222 19.6414 26.1427C23.0021 26.0508 26.2982 24.8725 28.938 22.7775C29.2917 22.4969 29.4249 22.0207 29.2683 21.5972L26.0781 12.9723C25.962 12.6584 25.7024 12.4192 25.38 12.329C25.0577 12.2388 24.7117 12.3085 24.4495 12.5166C22.1668 14.328 19.3582 15.3503 16.4452 15.4299C13.0804 15.5218 9.83625 16.7026 7.19963 18.795C6.8481 19.074 6.71411 19.5464 6.8668 19.9684L10.006 28.6443C10.1203 28.9603 10.3797 29.2019 10.703 29.2936ZM11.4988 26.6315L9.09376 19.9845C11.2609 18.4519 13.8379 17.5905 16.5023 17.5177C19.3916 17.4388 22.1922 16.5569 24.5954 14.9843L27.039 21.5907C24.868 23.1197 22.2506 23.982 19.5844 24.0548C16.6898 24.1339 13.8937 25.0558 11.4988 26.6315Z" fill="#486EFF"/>
<path fill-rule="evenodd" clip-rule="evenodd" d="M18.2092 21.2424C17.9574 21.3341 17.6788 21.2042 17.5871 20.9522C17.4954 20.7003 17.6253 20.4218 17.8772 20.3301C18.129 20.2384 18.4077 20.3683 18.4994 20.6202M18.9236 23.2051C17.5877 23.6913 16.1107 23.0024 15.6244 21.6666C15.1382 20.3308 15.8269 18.8537 17.1629 18.3674M18.9236 23.2051C20.2595 22.7188 20.9482 21.2417 20.4621 19.9059C19.9759 18.5701 18.4987 17.8813 17.1629 18.3674M18.2092 21.2424C18.4611 21.1507 18.5911 20.8721 18.4994 20.6202L18.2092 21.2424Z" fill="#486EFF"/>
</g>
</g>
</svg>
