<svg width="80" height="80" viewBox="0 0 80 80" fill="none" xmlns="http://www.w3.org/2000/svg">
<g id="skoky">
<path id="Vector (Stroke)" fill-rule="evenodd" clip-rule="evenodd" d="M39.805 18.5957C39.3725 18.0822 38.6041 18.0153 38.0888 18.4461C37.5735 18.8768 37.506 19.6424 37.9385 20.1558C38.3709 20.6692 39.1394 20.7363 39.6548 20.3054C40.1702 19.8745 40.2374 19.109 39.805 18.5957ZM34.7195 14.4461C37.4526 12.1615 41.5271 12.5169 43.8203 15.2393C46.1136 17.9619 45.757 22.0209 43.0241 24.3053C41.4551 25.6169 39.4438 26.0585 37.5813 25.6815L46.5136 36.2858C47.444 37.3903 47.2993 39.0371 46.1906 39.9639C45.0818 40.8907 43.4287 40.7467 42.4983 39.6421L35.9572 31.8766L24.9287 41.0952L26.197 43.3476C27.2596 45.2346 27.2993 47.5272 26.3025 49.4495L25.534 50.9314H27.5162C28.9637 50.9314 30.137 52.1003 30.137 53.5422V61.191C30.137 62.6329 28.9637 63.8018 27.5162 63.8018H22.8119L22.8105 68.3793C23.2536 68.2188 23.6533 68.0196 24.0935 67.8003L24.1354 67.7794C25.5634 67.0681 27.273 66.229 30.4261 66.229C33.5799 66.229 35.2898 67.068 36.7182 67.7793L36.7601 67.8001C37.8712 68.3535 38.7246 68.7786 40.6668 68.7786C42.6091 68.7786 43.4625 68.3535 44.5736 67.8001L44.6155 67.7793C46.0439 67.068 47.7538 66.229 50.9075 66.229C54.0607 66.229 55.7703 67.0681 57.1982 67.7794L57.2401 67.8003C58.3508 68.3536 59.2036 68.7786 61.1448 68.7786C63.0852 68.7786 63.9376 68.3537 65.0479 67.8004L65.0898 67.7795C66.5174 67.0682 68.2268 66.229 71.3794 66.229C72.8268 66.229 74.0002 67.3979 74.0002 68.8398C74.0002 70.2817 72.8268 71.4505 71.3794 71.4505C69.4391 71.4505 68.5867 71.8754 67.4764 72.4287L67.4345 72.4496C66.0068 73.1609 64.2975 74.0001 61.1448 74.0001C57.9917 74.0001 56.2821 73.161 54.8541 72.4497L54.8122 72.4288C53.7016 71.8755 52.8487 71.4505 50.9075 71.4505C48.9654 71.4505 48.112 71.8756 47.0009 72.429L46.959 72.4499C45.5306 73.1611 43.8207 74.0001 40.6668 74.0001C37.513 74.0001 35.8031 73.1611 34.3747 72.4499L34.3327 72.429C33.2217 71.8756 32.3683 71.4505 30.4261 71.4505C28.485 71.4505 27.6321 71.8755 26.5215 72.4288L26.4796 72.4497C25.0516 73.161 23.342 74.0001 20.1889 74.0001C17.0362 74.0001 15.3269 73.1609 13.8992 72.4496L13.8573 72.4287C12.747 71.8754 11.8946 71.4505 9.9543 71.4505C9.25922 71.4505 8.59261 71.1755 8.10111 70.6859C7.60962 70.1962 7.3335 69.5322 7.3335 68.8398L7.3335 53.5422C7.3335 52.1003 8.50687 50.9314 9.9543 50.9314H19.6343L21.6456 47.053C21.8335 46.6906 21.8261 46.2582 21.6256 45.9023L19.4315 42.0059L16.278 38.2619C13.5301 35 13.9575 30.1367 17.2318 27.3998L24.0939 21.6638C26.5342 19.624 29.8674 19.3407 32.5445 20.679C32.0813 18.4375 32.8362 16.0203 34.7195 14.4461ZM21.8988 36.8117L32.588 27.8767L30.9823 25.9705C30.0955 24.9177 28.52 24.7804 27.4631 25.6638L20.601 31.3997C19.5441 32.2832 19.4064 33.8528 20.2931 34.9053L21.8988 36.8117ZM21.1778 56.153H12.5751V58.5802H24.8954V56.153H21.2784C21.2449 56.1536 21.2114 56.1536 21.1778 56.153ZM12.5751 63.8018L12.5751 66.455C14.1718 66.7529 15.273 67.2958 16.2439 67.7795L16.2857 67.8004C16.726 68.0198 17.1258 68.2191 17.5689 68.3796L17.5703 63.8018H12.5751Z" fill="#274F03"/>
</g>
</svg>
