<svg width="80" height="80" viewBox="0 0 80 80" fill="none" xmlns="http://www.w3.org/2000/svg">
<g id="skoky">
<path id="Vector (Stroke)" fill-rule="evenodd" clip-rule="evenodd" d="M39.8049 18.5957C39.3724 18.0822 38.6039 18.0153 38.0886 18.4461C37.5733 18.8768 37.5059 19.6424 37.9383 20.1558C38.3708 20.6692 39.1392 20.7363 39.6547 20.3054C40.1701 19.8745 40.2373 19.109 39.8049 18.5957ZM34.7194 14.4461C37.4524 12.1615 41.527 12.5169 43.8202 15.2393C46.1135 17.9619 45.7568 22.0209 43.0239 24.3053C41.4549 25.6169 39.4437 26.0585 37.5812 25.6815L46.5135 36.2858C47.4438 37.3903 47.2992 39.0371 46.1904 39.9639C45.0816 40.8907 43.4286 40.7467 42.4982 39.6421L35.9571 31.8766L24.9286 41.0952L26.1969 43.3476C27.2595 45.2346 27.2992 47.5272 26.3024 49.4495L25.5339 50.9314H27.5161C28.9635 50.9314 30.1369 52.1003 30.1369 53.5422V61.191C30.1369 62.6329 28.9635 63.8018 27.5161 63.8018H22.8117L22.8104 68.3793C23.2535 68.2188 23.6532 68.0196 24.0934 67.8003L24.1353 67.7794C25.5633 67.0681 27.2729 66.229 30.426 66.229C33.5798 66.229 35.2897 67.068 36.7181 67.7793L36.76 67.8001C37.871 68.3535 38.7245 68.7786 40.6667 68.7786C42.609 68.7786 43.4624 68.3535 44.5734 67.8001L44.6153 67.7793C46.0438 67.068 47.7536 66.229 50.9074 66.229C54.0606 66.229 55.7701 67.0681 57.1981 67.7794L57.24 67.8003C58.3507 68.3536 59.2035 68.7786 61.1447 68.7786C63.085 68.7786 63.9375 68.3537 65.0478 67.8004L65.0897 67.7795C66.5173 67.0682 68.2266 66.229 71.3792 66.229C72.8267 66.229 74 67.3979 74 68.8398C74 70.2817 72.8267 71.4505 71.3792 71.4505C69.439 71.4505 68.5865 71.8754 67.4762 72.4287L67.4343 72.4496C66.0067 73.1609 64.2973 74.0001 61.1447 74.0001C57.9915 74.0001 56.282 73.161 54.854 72.4497L54.8121 72.4288C53.7014 71.8755 52.8486 71.4505 50.9074 71.4505C48.9653 71.4505 48.1119 71.8756 47.0008 72.429L46.9589 72.4499C45.5304 73.1611 43.8205 74.0001 40.6667 74.0001C37.5129 74.0001 35.803 73.1611 34.3745 72.4499L34.3326 72.429C33.2215 71.8756 32.3682 71.4505 30.426 71.4505C28.4848 71.4505 27.632 71.8755 26.5213 72.4288L26.4795 72.4497C25.0515 73.161 23.3419 74.0001 20.1887 74.0001C17.0361 74.0001 15.3268 73.1609 13.8991 72.4496L13.8572 72.4287C12.7469 71.8754 11.8945 71.4505 9.95418 71.4505C9.2591 71.4505 8.59249 71.1755 8.10099 70.6859C7.60949 70.1962 7.33337 69.5322 7.33337 68.8398L7.33338 53.5422C7.33338 52.1003 8.50675 50.9314 9.95418 50.9314H19.6342L21.6454 47.053C21.8334 46.6906 21.8259 46.2582 21.6255 45.9023L19.4314 42.0059L16.2779 38.2619C13.53 35 13.9573 30.1367 17.2317 27.3998L24.0937 21.6638C26.5341 19.624 29.8673 19.3407 32.5443 20.679C32.0811 18.4375 32.8361 16.0203 34.7194 14.4461ZM21.8987 36.8117L32.5878 27.8767L30.9821 25.9705C30.0954 24.9177 28.5198 24.7804 27.463 25.6638L20.6009 31.3997C19.544 32.2832 19.4063 33.8528 20.2929 34.9053L21.8987 36.8117ZM21.1777 56.153H12.575V58.5802H24.8953V56.153H21.2783C21.2448 56.1536 21.2113 56.1536 21.1777 56.153ZM12.575 63.8018L12.575 66.455C14.1717 66.7529 15.2729 67.2958 16.2437 67.7795L16.2856 67.8004C16.7259 68.0198 17.1257 68.2191 17.5688 68.3796L17.5701 63.8018H12.575Z" fill="#001F94"/>
</g>
</svg>
