<svg width="40" height="40" viewBox="0 0 40 40" fill="none" xmlns="http://www.w3.org/2000/svg">
<g id="skolka">
<path id="Vector (Stroke)" fill-rule="evenodd" clip-rule="evenodd" d="M25.7365 3.33337C26.4574 3.33337 27.0419 3.91782 27.0419 4.63876C27.0419 5.73253 26.4962 6.69881 25.6621 7.28019C26.8636 8.27311 27.8008 9.5747 28.3577 11.0605C29.7936 11.3834 30.8663 12.6663 30.8663 14.1997C30.8663 15.733 29.7936 17.016 28.3576 17.3389C28.0504 18.1587 27.6273 18.9223 27.1081 19.609C29.2294 21.6306 30.6101 24.5691 30.8341 27.7531C31.4188 26.939 32.3736 26.4072 33.449 26.4072C35.2261 26.4072 36.6666 27.8477 36.6666 29.6247V33.4491C36.6666 35.2262 35.2261 36.6667 33.449 36.6667H6.55083C4.77378 36.6667 3.33325 35.2262 3.33325 33.4491V29.6247C3.33325 27.8477 4.77378 26.4072 6.55083 26.4072C7.62623 26.4072 8.58102 26.939 9.16574 27.7531C9.38977 24.5691 10.7705 21.6306 12.8918 19.609C12.3725 18.9223 11.9495 18.1587 11.6422 17.3389C10.2062 17.016 9.13357 15.733 9.13357 14.1997C9.13357 12.6663 10.2062 11.3834 11.6422 11.0605C12.9112 7.67475 16.155 5.24557 19.9999 5.24557H23.8243C24.1595 5.24557 24.4311 4.97392 24.4311 4.63876C24.4311 3.91782 25.0156 3.33337 25.7365 3.33337ZM14.7532 21.4425C12.9404 23.1372 11.7443 25.7775 11.7443 28.6686C11.7443 28.9482 11.7556 29.2262 11.7779 29.502C11.7788 29.5115 11.7796 29.521 11.7803 29.5306C11.9069 31.0444 12.3663 32.4914 13.1208 33.759C13.2899 34.0437 13.6598 34.143 13.9543 33.9701C14.2413 33.7976 14.3343 33.4253 14.164 33.1393C13.3704 31.8047 12.958 30.2575 12.958 28.6686C12.958 28.6153 12.9584 28.562 12.9593 28.5089C12.9593 28.488 12.9597 28.4671 12.9606 28.4462C12.9795 27.6639 13.0977 26.9068 13.3026 26.1918C13.5012 25.4987 14.2241 25.0979 14.9171 25.2965C15.6102 25.4951 16.011 26.218 15.8124 26.911C15.7462 27.1418 15.6926 27.3801 15.6527 27.6247C17.0281 28.0769 18.491 28.3194 19.9999 28.3194C21.5089 28.3194 22.9717 28.0769 24.3471 27.6247C24.3072 27.3801 24.2536 27.1418 24.1875 26.911C23.9889 26.218 24.3897 25.4951 25.0827 25.2965C25.7758 25.0979 26.4986 25.4987 26.6972 26.1918C26.9021 26.9068 27.0203 27.6639 27.0392 28.4463C27.0401 28.4672 27.0406 28.488 27.0405 28.5087C27.0414 28.5619 27.0419 28.6152 27.0419 28.6686C27.0419 30.2575 26.6297 31.8043 25.836 33.1388C25.6656 33.4251 25.7587 33.798 26.046 33.9704C26.1464 34.0295 26.2521 34.0559 26.3555 34.0559C26.5667 34.0559 26.7664 33.9483 26.8787 33.7595C27.6332 32.492 28.0929 31.0446 28.2196 29.5308C28.2203 29.5211 28.221 29.5114 28.222 29.5017C28.2442 29.226 28.2555 28.9481 28.2555 28.6686C28.2555 25.7775 27.0595 23.1372 25.2466 21.4425C23.7779 22.5176 21.9676 23.1539 19.9999 23.1539C18.0322 23.1539 16.2219 22.5176 14.7532 21.4425ZM30.6668 30.9301C30.4732 32.0149 30.1402 33.0664 29.6742 34.0559H33.449C33.7842 34.0559 34.0558 33.7843 34.0558 33.4491V29.6247C34.0558 29.2896 33.7842 29.0179 33.449 29.0179C33.1182 29.0179 32.8422 29.294 32.8422 29.6247C32.8422 30.3457 32.2578 30.9301 31.5368 30.9301H30.6668ZM23.1977 34.0559C23.0539 33.3091 23.1728 32.5087 23.5923 31.8039C23.8521 31.3671 24.0551 30.8917 24.1964 30.3901C22.8494 30.7434 21.4417 30.9301 19.9999 30.9301C18.5581 30.9301 17.1505 30.7434 15.8035 30.3901C15.9447 30.8919 16.1479 31.3674 16.4077 31.8043C16.8271 32.5091 16.9458 33.3093 16.8021 34.0559H23.1977ZM10.3256 34.0559C9.85965 33.0664 9.52664 32.0149 9.33305 30.9301H8.46303C7.74208 30.9301 7.15764 30.3457 7.15764 29.6247C7.15764 29.294 6.88159 29.0179 6.55083 29.0179C6.21568 29.0179 5.94403 29.2896 5.94403 29.6247V33.4491C5.94403 33.7843 6.21568 34.0559 6.55083 34.0559H10.3256ZM19.9999 7.85635C17.0576 7.85635 14.5948 9.87511 13.8853 12.6148C13.7361 13.1907 13.2165 13.5929 12.6216 13.5929H12.3512C12.016 13.5929 11.7443 13.8646 11.7443 14.1997C11.7443 14.5348 12.0161 14.8065 12.3512 14.8065H12.6216C13.2165 14.8065 13.7361 15.2087 13.8853 15.7846C14.5949 18.5244 17.0578 20.5431 19.9999 20.5431C22.9421 20.5431 25.4049 18.5244 26.1146 15.7846C26.2637 15.2087 26.7834 14.8065 27.3782 14.8065H27.6487C27.9838 14.8065 28.2555 14.5348 28.2555 14.1997C28.2555 13.8646 27.9838 13.5929 27.6487 13.5929H27.3782C26.7833 13.5929 26.2637 13.1907 26.1145 12.6148C25.405 9.87511 22.9423 7.85635 19.9999 7.85635ZM18.0877 14.8065C18.8087 14.8065 19.3931 15.391 19.3931 16.1119C19.3931 16.4471 19.6648 16.7187 19.9999 16.7187C20.3351 16.7187 20.6067 16.4471 20.6067 16.1119C20.6067 15.391 21.1912 14.8065 21.9121 14.8065C22.6331 14.8065 23.2175 15.391 23.2175 16.1119C23.2175 17.889 21.777 19.3295 19.9999 19.3295C18.2229 19.3295 16.7823 17.889 16.7823 16.1119C16.7823 15.391 17.3668 14.8065 18.0877 14.8065Z" fill="#002FE0"/>
</g>
</svg>
