<svg width="40" height="40" viewBox="0 0 40 40" fill="none" xmlns="http://www.w3.org/2000/svg">
<g id="skola">
<path id="Vector (Stroke)" fill-rule="evenodd" clip-rule="evenodd" d="M23.9912 5.0317C24.4786 3.69283 25.9591 3.00225 27.2983 3.4897L28.4961 3.92572C28.4961 3.92572 28.4961 3.92573 28.4961 3.92572C29.8351 4.41308 30.5257 5.89355 30.0382 7.23271C30.0382 7.23275 30.0382 7.23268 30.0382 7.23271L28.8943 10.3756C30.0893 11.5391 30.8315 13.1653 30.8315 14.9649V20.0334H32.0757C34.2048 20.0334 35.9306 21.7594 35.9306 23.8883V29.6248C35.9306 31.7538 34.2048 33.4798 32.0757 33.4798H30.6389C30.0797 35.3242 28.3662 36.6667 26.3392 36.6667H13.5914C11.5644 36.6667 9.85093 35.3242 9.29171 33.4798H7.85493C5.72585 33.4798 4 31.7538 4 29.6248V23.8883C4 21.7594 5.72585 20.0334 7.85493 20.0334H9.09911V14.9649C9.09911 13.1653 9.84135 11.539 11.0364 10.3756L9.89247 7.23276C9.89246 7.23275 9.89247 7.23277 9.89247 7.23276C9.40506 5.89369 10.0956 4.41312 11.4345 3.92574C11.4345 3.92575 11.4345 3.92574 11.4345 3.92574L12.6324 3.48971C13.9713 3.00247 15.4521 3.69272 15.9394 5.03181C15.9394 5.03178 15.9394 5.03183 15.9394 5.03181L17.2237 8.5604H22.7069L23.9912 5.0317ZM23.5922 11.1711C23.6114 11.1716 23.6305 11.1716 23.6496 11.1711H24.427C25.2175 11.1711 25.9514 11.4129 26.559 11.8264C26.5879 11.8486 26.6179 11.8696 26.6488 11.8895C27.6012 12.5787 28.2208 13.6994 28.2208 14.9649V21.9456H11.7099V14.9649C11.7099 13.6996 12.3293 12.579 13.2814 11.8897C13.3127 11.8697 13.3429 11.8485 13.3721 11.8261C13.9796 11.4127 14.7134 11.1711 15.5036 11.1711H16.2811C16.3002 11.1716 16.3193 11.1716 16.3385 11.1711H23.5922ZM14.4753 8.64251L13.4966 5.95346L12.3562 6.36857L13.2962 8.95098C13.6738 8.81233 14.0681 8.70823 14.4753 8.64251ZM13.4861 5.92474C13.4861 5.92471 13.4861 5.92476 13.4861 5.92474V5.92474ZM9.09911 22.6442L9.09911 23.8577H6.61111C6.62736 23.1847 7.178 22.6442 7.85493 22.6442H9.09911ZM6.61075 26.4685V29.6248C6.61075 30.312 7.16777 30.869 7.85493 30.869H9.09911V26.4685H6.61075ZM11.7099 24.5563H28.2208V32.1744C28.2208 33.2135 27.3784 34.056 26.3392 34.056H13.5914C12.5523 34.056 11.7099 33.2135 11.7099 32.1744V24.5563ZM30.8315 30.869V26.4685H33.3199V29.6248C33.3199 30.312 32.7629 30.869 32.0757 30.869H30.8315ZM33.3195 23.8577C33.3033 23.1847 32.7526 22.6442 32.0757 22.6442H30.8315V23.8577H33.3195ZM26.6345 8.95099C26.2569 8.81233 25.8625 8.70823 25.4553 8.64251L26.434 5.95344L27.5744 6.36855L26.6345 8.95099ZM12.9234 19.4266C12.9234 15.5375 16.0762 12.3847 19.9653 12.3847C23.8545 12.3847 27.0072 15.5375 27.0072 19.4266C27.0072 20.1475 26.4228 20.732 25.7018 20.732H14.2288C13.5079 20.732 12.9234 20.1475 12.9234 19.4266ZM15.7296 18.1212H24.201C23.6439 16.3111 21.9583 14.9955 19.9653 14.9955C17.9724 14.9955 16.2868 16.3111 15.7296 18.1212ZM22.4843 28.3807V28.9874C22.4843 29.7084 23.0687 30.2928 23.7897 30.2928C24.5106 30.2928 25.095 29.7084 25.095 28.9874V28.3807H25.7018C26.4228 28.3807 27.0072 27.7962 27.0072 27.0753C27.0072 26.3543 26.4228 25.7699 25.7018 25.7699H23.7917C23.791 25.7699 23.7903 25.7699 23.7897 25.7699C23.789 25.7699 23.7883 25.7699 23.7876 25.7699H14.2288C13.5079 25.7699 12.9234 26.3543 12.9234 27.0753C12.9234 27.7962 13.5079 28.3807 14.2288 28.3807H22.4843Z" fill="#002FE0"/>
</g>
</svg>
