<svg width="32" height="32" viewBox="0 0 32 32" fill="none" xmlns="http://www.w3.org/2000/svg">
<g id="sportovni">
<path id="Vector (Stroke)" fill-rule="evenodd" clip-rule="evenodd" d="M9.90601 7.11589C8.51293 8.97193 7.68723 11.2778 7.68723 13.7751C7.68723 19.9064 12.6643 24.8834 18.7956 24.8834C24.6176 24.8834 29.399 20.3957 29.8664 14.6933C29.8668 14.689 29.8672 14.6846 29.8676 14.6803C29.8751 14.587 29.8814 14.4934 29.8866 14.3995C29.8981 14.1928 29.9039 13.9846 29.9039 13.7751C29.9039 13.5835 29.899 13.393 29.8894 13.2038C29.7972 11.3863 29.2673 9.68357 28.4033 8.19893C28.0604 7.60969 27.665 7.05488 27.2235 6.54105C27.2189 6.53575 27.2143 6.53051 27.2097 6.52532C25.26 4.26502 22.4159 2.79761 19.2292 2.67507C19.0853 2.66954 18.9408 2.66675 18.7956 2.66675C18.6998 2.66675 18.6042 2.66796 18.509 2.67038C15.259 2.75283 12.3542 4.2338 10.3744 6.53346C10.3722 6.53598 10.37 6.53851 10.3679 6.54105C10.2077 6.72738 10.0537 6.9191 9.90601 7.11589ZM12.3835 7.49811L13.6688 11.4552C13.8115 11.8946 13.6551 12.376 13.2813 12.6476L9.91675 15.0923C10.0657 16.1032 10.3835 17.0594 10.8405 17.9315H15.0003C15.4624 17.9315 15.872 18.2291 16.0148 18.6686L17.3003 22.6258C17.7867 22.7075 18.2862 22.7501 18.7956 22.7501C19.305 22.7501 19.8046 22.7075 20.2909 22.6258L21.5765 18.6686C21.7193 18.2291 22.1288 17.9315 22.591 17.9315H26.7506C27.2076 17.0594 27.5254 16.1031 27.6744 15.0922L24.31 12.6476C23.9362 12.376 23.7798 11.8946 23.9225 11.4552L25.2078 7.49826C24.5082 6.7837 23.6903 6.18541 22.786 5.73524L19.4192 8.18083C19.0454 8.45238 18.5392 8.45236 18.1654 8.18078L14.8016 5.73697C13.8988 6.18691 13.0821 6.78453 12.3835 7.49811ZM10.8335 9.63203L11.4004 11.3773L9.91718 12.455C10.0656 11.4503 10.3807 10.4997 10.8335 9.63203ZM17.3103 4.92266L18.7924 5.9994L20.2758 4.92183C19.8682 4.85404 19.4512 4.81378 19.0271 4.80302C18.9501 4.80106 18.873 4.80008 18.7956 4.80008C18.6893 4.80008 18.5834 4.80193 18.478 4.80561C18.0817 4.81942 17.692 4.85898 17.3103 4.92266ZM26.7577 9.63224L26.1909 11.3773L27.6739 12.4548C27.5256 11.4503 27.2105 10.4998 26.7577 9.63224ZM25.1949 20.0648H23.366L22.7997 21.8079C23.6926 21.3615 24.5014 20.7703 25.1949 20.0648ZM14.7915 21.8079L14.2253 20.0648H12.3963C13.0899 20.7703 13.8986 21.3615 14.7915 21.8079ZM18.1686 8.84558C18.5425 8.57392 19.0488 8.57392 19.4226 8.84558L23.2899 11.6556C23.6638 11.9272 23.8202 12.4087 23.6774 12.8482L22.2 17.3945C22.0571 17.834 21.6476 18.1315 21.1855 18.1315H16.4052C15.9431 18.1315 15.5336 17.8339 15.3908 17.3944L13.9138 12.8481C13.7711 12.4086 13.9275 11.9272 14.3013 11.6556L18.1686 8.84558ZM16.1822 12.9259L17.1803 15.9982H20.4106L21.4089 12.9259L18.7956 11.027L16.1822 12.9259ZM7.9108 19.6386C8.32736 20.0552 8.32736 20.7305 7.9108 21.1471L4.48742 24.5705C4.07086 24.987 3.39548 24.987 2.97892 24.5705C2.56236 24.1539 2.56236 23.4785 2.97892 23.062L6.40231 19.6386C6.81887 19.222 7.49424 19.222 7.9108 19.6386ZM10.0844 22.4863C10.501 22.9028 10.501 23.5782 10.0844 23.9947L4.48742 29.5917C4.07086 30.0083 3.39548 30.0083 2.97892 29.5917C2.56236 29.1752 2.56236 28.4998 2.97892 28.0832L8.5759 22.4863C8.99246 22.0697 9.66784 22.0697 10.0844 22.4863ZM12.9313 24.6595C13.3478 25.076 13.3478 25.7514 12.9312 26.1679L9.5078 29.5909C9.09122 30.0075 8.41584 30.0074 7.99931 29.5908C7.58277 29.1742 7.58282 28.4989 7.9994 28.0823L11.4228 24.6594C11.8394 24.2428 12.5147 24.2429 12.9313 24.6595Z" fill="#002FE0"/>
</g>
</svg>
