<?xml version="1.0" encoding="UTF-8"?>
<svg id="Vrstva_1" data-name="Vrstva 1" xmlns="http://www.w3.org/2000/svg" viewBox="0 0 27.24 27.24">
  <defs>
    <style>
      .cls-1 {
        fill: #5cae13;
        fill-rule: evenodd;
      }
    </style>
  </defs>
  <g id="sportovni">
    <path id="Vector_Stroke_" data-name="Vector (Stroke)" class="cls-1" d="M7.24,4.45c-1.39,1.86-2.22,4.16-2.22,6.66,0,6.13,4.98,11.11,11.11,11.11s10.6-4.49,11.07-10.19c0,0,0,0,0-.01,0-.09,.01-.19,.02-.28,.01-.21,.02-.41,.02-.62,0-.19,0-.38-.01-.57-.09-1.82-.62-3.52-1.49-5-.34-.59-.74-1.14-1.18-1.66,0,0,0-.01-.01-.02C22.59,1.6,19.75,.13,16.56,0c-.14,0-.29,0-.43,0-.1,0-.19,0-.29,0-3.25,.08-6.15,1.56-8.13,3.86,0,0,0,0,0,0-.16,.19-.31,.38-.46,.57Zm2.48,.38l1.29,3.96c.14,.44-.01,.92-.39,1.19l-3.36,2.44c.15,1.01,.47,1.97,.92,2.84h4.16c.46,0,.87,.3,1.01,.74l1.29,3.96c.49,.08,.99,.12,1.5,.12s1.01-.04,1.5-.12l1.29-3.96c.14-.44,.55-.74,1.01-.74h4.16c.46-.87,.77-1.83,.92-2.84l-3.36-2.44c-.37-.27-.53-.75-.39-1.19l1.29-3.96c-.7-.71-1.52-1.31-2.42-1.76l-3.37,2.45c-.37,.27-.88,.27-1.25,0l-3.36-2.44c-.9,.45-1.72,1.05-2.42,1.76Zm-1.55,2.13l.57,1.75-1.48,1.08c.15-1,.46-1.96,.92-2.82ZM14.64,2.26l1.48,1.08,1.48-1.08c-.41-.07-.82-.11-1.25-.12-.08,0-.15,0-.23,0-.11,0-.21,0-.32,0-.4,.01-.79,.05-1.17,.12Zm9.45,4.71l-.57,1.75,1.48,1.08c-.15-1-.46-1.95-.92-2.82Zm-1.56,10.43h-1.83l-.57,1.74c.89-.45,1.7-1.04,2.4-1.74Zm-10.4,1.74l-.57-1.74h-1.83c.69,.71,1.5,1.3,2.4,1.74Zm3.38-12.96c.37-.27,.88-.27,1.25,0l3.87,2.81c.37,.27,.53,.75,.39,1.19l-1.48,4.55c-.14,.44-.55,.74-1.01,.74h-4.78c-.46,0-.87-.3-1.01-.74l-1.48-4.55c-.14-.44,.01-.92,.39-1.19l3.87-2.81Zm-1.99,4.08l1,3.07h3.23l1-3.07-2.61-1.9-2.61,1.9Zm-8.27,6.71c.42,.42,.42,1.09,0,1.51l-3.42,3.42c-.42,.42-1.09,.42-1.51,0-.42-.42-.42-1.09,0-1.51l3.42-3.42c.42-.42,1.09-.42,1.51,0Zm2.17,2.85c.42,.42,.42,1.09,0,1.51L1.82,26.92c-.42,.42-1.09,.42-1.51,0-.42-.42-.42-1.09,0-1.51l5.6-5.6c.42-.42,1.09-.42,1.51,0Zm2.85,2.17c.42,.42,.42,1.09,0,1.51l-3.42,3.42c-.42,.42-1.09,.42-1.51,0-.42-.42-.42-1.09,0-1.51l3.42-3.42c.42-.42,1.09-.42,1.51,0Z"/>
  </g>
</svg>