<svg width="81" height="80" viewBox="0 0 81 80" fill="none" xmlns="http://www.w3.org/2000/svg">
<g id="stars">
<path id="Vector" d="M47.1674 71.4197C45.4936 71.4137 43.8662 70.8693 42.5258 69.8669L34.9285 63.8475L27.3924 69.8031C26.0563 70.8147 24.4306 71.3704 22.7548 71.3884C21.0789 71.4064 19.4417 70.8857 18.0841 69.9031C16.7274 68.9455 15.7161 67.5755 15.2006 65.997C14.6851 64.4184 14.693 62.7157 15.223 61.1419L17.8508 52.0419L10.4035 46.7114C9.0629 45.7395 8.06457 44.368 7.55181 42.7935C7.03905 41.2191 7.03821 39.5227 7.54942 37.9477C8.06062 36.3728 9.05759 35.0002 10.3973 34.027C11.7369 33.0539 13.3505 32.5301 15.0063 32.5308H24.5396L27.4452 23.1031C27.9655 21.5335 28.9667 20.1675 30.3068 19.1988C31.6468 18.2301 33.2579 17.7078 34.9114 17.706C36.565 17.7041 38.1771 18.2228 39.5194 19.1886C40.8616 20.1543 41.8658 21.518 42.3896 23.0864L45.3119 32.5308H54.848C56.5023 32.5288 58.1148 33.0504 59.4546 34.021C60.7943 34.9915 61.7925 36.3611 62.3062 37.9337C62.8199 39.5062 62.8227 41.201 62.3143 42.7753C61.8059 44.3495 60.8122 45.7225 59.4757 46.6975L52.0396 52.0419L54.6702 61.2336C55.179 62.7996 55.1718 64.4874 54.6498 66.049C54.1278 67.6106 53.1184 68.9635 51.7702 69.9086C50.4336 70.885 48.8226 71.4139 47.1674 71.4197ZM34.9174 57.5308C35.5427 57.5313 36.1495 57.7427 36.6396 58.1308L45.8952 65.4475C46.2742 65.7328 46.7379 65.8829 47.2122 65.8739C47.6865 65.8648 48.144 65.6971 48.5119 65.3975C48.9206 65.1304 49.226 64.7319 49.3776 64.2677C49.5291 63.8035 49.5177 63.3015 49.3452 62.8447L46.1619 51.6975C46.0058 51.1481 46.0229 50.564 46.2108 50.0247C46.3987 49.4854 46.7483 49.0171 47.2119 48.6836L56.2119 42.2086C56.6017 41.9239 56.8912 41.5228 57.0386 41.0631C57.186 40.6034 57.1837 40.1088 57.032 39.6505C56.8804 39.1922 56.5872 38.7938 56.1947 38.5127C55.8023 38.2317 55.3307 38.0824 54.848 38.0864H43.2785C42.6869 38.087 42.1106 37.8987 41.6334 37.549C41.1563 37.1993 40.8032 36.7063 40.6258 36.1419L37.0896 24.7531C36.9347 24.2993 36.641 23.9058 36.2501 23.6282C35.8593 23.3505 35.391 23.2028 34.9116 23.2059C34.4322 23.209 33.9658 23.3627 33.5786 23.6453C33.1913 23.9279 32.9027 24.3252 32.7535 24.7808L29.2424 36.1419C29.0649 36.7063 28.7119 37.1993 28.2348 37.549C27.7576 37.8987 27.1813 38.087 26.5896 38.0864H15.0063C14.5251 38.0869 14.0564 38.2394 13.6671 38.5222C13.2778 38.8049 12.9877 39.2034 12.8384 39.6608C12.689 40.1182 12.6879 40.6111 12.8353 41.0691C12.9827 41.5272 13.271 41.927 13.6591 42.2114L22.673 48.6669C23.1398 49.001 23.4917 49.4715 23.6802 50.0136C23.8687 50.5558 23.8846 51.1431 23.7258 51.6947L20.5258 62.7642C20.3366 63.2293 20.3141 63.7455 20.4619 64.2254C20.6097 64.7053 20.9188 65.1194 21.3369 65.3975C21.7245 65.6876 22.1957 65.8444 22.6799 65.8444C23.1641 65.8444 23.6353 65.6876 24.023 65.3975L33.2063 58.1419C33.6943 57.7485 34.3017 57.5329 34.9285 57.5308H34.9174ZM62.723 24.6031L66.8369 27.6281C67.2197 27.9105 67.6822 28.0641 68.1579 28.0669C68.6336 28.0696 69.0979 27.9213 69.484 27.6434C69.8701 27.3654 70.1579 26.9721 70.3062 26.5201C70.4545 26.0681 70.4555 25.5807 70.3091 25.1281L68.7202 20.2086L72.9035 17.1531C73.2883 16.8741 73.5748 16.4803 73.7217 16.0283C73.8687 15.5763 73.8685 15.0893 73.7213 14.6374C73.574 14.1855 73.2873 13.7919 72.9023 13.5132C72.5173 13.2346 72.0538 13.0851 71.5785 13.0864H66.4285L64.8646 8.20861C64.7144 7.75951 64.4268 7.369 64.0424 7.09231C63.6581 6.81562 63.1965 6.66675 62.723 6.66675C62.2494 6.66675 61.7878 6.81562 61.4035 7.09231C61.0192 7.369 60.7316 7.75951 60.5813 8.20861L59.0174 13.0864H53.8702C53.3954 13.0853 52.9325 13.2347 52.5478 13.513C52.1632 13.7913 51.8765 14.1844 51.7291 14.6357C51.5816 15.087 51.5809 15.5734 51.727 16.0252C51.8731 16.4769 52.1586 16.8708 52.5424 17.1503L56.7258 20.2058L55.1369 25.1253C54.9814 25.5782 54.9787 26.0695 55.1292 26.5241C55.2797 26.9787 55.5751 27.3714 55.9702 27.6419C56.3546 27.9239 56.8194 28.0747 57.2961 28.0722C57.7728 28.0697 58.236 27.914 58.6174 27.6281L62.723 24.6031Z" fill="#015151"/>
</g>
</svg>
