<?xml version="1.0" encoding="UTF-8"?>
<svg id="Vrstva_1" data-name="Vrstva 1" xmlns="http://www.w3.org/2000/svg" viewBox="0 0 26.67 26.67">
  <defs>
    <style>
      .cls-1 {
        fill: #f2ab27;
        fill-rule: evenodd;
      }
    </style>
  </defs>
  <g id="stravovani">
    <g id="Vector">
      <path class="cls-1" d="M19.52,24.76c.37,1.37,1.78,2.19,3.15,1.82,1.37-.37,2.19-1.78,1.82-3.15l-1.58-5.91c-.15-.56-.72-.89-1.28-.74l-2.96,.79c-.27,.07-.5,.25-.63,.49-.14,.24-.18,.52-.1,.79l1.58,5.91s0,0,0,0Zm2.61-.2c-.26,.07-.53-.08-.59-.34l-1.31-4.9,.94-.25,1.31,4.9s0,0,0,0c.07,.26-.08,.53-.34,.59Z"/>
      <path class="cls-1" d="M11.37,13.09c.56,.15,1.13-.18,1.28-.74l1.19-4.43c.15-.56-.18-1.13-.74-1.28-.56-.15-1.13,.18-1.28,.74l-1.19,4.43c-.15,.56,.18,1.13,.74,1.28Z"/>
      <path class="cls-1" d="M7.74,24.76h0l1.58-5.91c.07-.27,.03-.55-.1-.79-.14-.24-.37-.41-.63-.49l-2.96-.79c-.56-.15-1.13,.18-1.28,.74l-1.58,5.91h0c-.37,1.37,.45,2.78,1.82,3.15,1.37,.37,2.78-.45,3.15-1.82Zm-2.61-.2c-.26-.07-.41-.34-.34-.59l1.31-4.9,.94,.25-1.31,4.9c-.07,.26-.34,.41-.59,.34Z"/>
      <path class="cls-1" d="M8.6,15.51c1.65,.44,3.34-.54,3.78-2.18l.26-.98c.15-.56-.18-1.13-.74-1.28l-5.91-1.58c-.27-.07-.55-.03-.79,.1-.24,.14-.41,.37-.49,.63l-.26,.99s0,0,0,0c-.44,1.65,.54,3.34,2.18,3.78m0,0l1.97,.53h0m-2.14-3.74l3.89,1.04c-.15,.52-.69,.82-1.21,.68l-1.97-.53c-.52-.14-.84-.67-.71-1.2Z"/>
      <path class="cls-1" d="M5.45,11.5c.56,.15,1.13-.18,1.28-.74l1.19-4.43c.15-.56-.18-1.13-.74-1.28-.56-.15-1.13,.18-1.28,.74l-1.19,4.43c-.15,.56,.18,1.13,.74,1.28Z"/>
      <path class="cls-1" d="M8.41,12.29c.56,.15,1.13-.18,1.28-.74l1.19-4.43c.15-.56-.18-1.13-.74-1.28-.56-.15-1.13,.18-1.28,.74l-1.19,4.43c-.15,.56,.18,1.13,.74,1.28Z"/>
      <path class="cls-1" d="M6.56,19.19c.56,.15,1.13-.18,1.28-.74l1.06-3.94c.15-.56-.18-1.13-.74-1.28-.56-.15-1.13,.18-1.28,.74l-1.06,3.94c-.15,.56,.18,1.13,.74,1.28Z"/>
      <path class="cls-1" d="M16.94,19.88c.24,.14,.52,.18,.79,.1l4.43-1.19c.56-.15,.89-.72,.74-1.28l-3.04-11.33c-.15-.56-.72-.89-1.28-.74-3.01,.81-4.79,3.89-3.98,6.9l1.85,6.9c.07,.27,.25,.5,.49,.63Zm1.26-2.18l-1.58-5.89c-.41-1.54,.25-3.11,1.54-3.92l2.45,9.16-2.42,.65Z"/>
      <path class="cls-1" d="M13.33,24.58c-2.16,0-4.17-.61-5.88-1.66-.49-.3-1.13-.15-1.44,.34-.3,.49-.15,1.13,.34,1.44,2.03,1.25,4.42,1.97,6.97,1.97,2.78,0,5.37-.86,7.51-2.32,.48-.33,.6-.98,.27-1.45-.33-.48-.98-.6-1.45-.27-1.8,1.23-3.98,1.95-6.33,1.95Zm-8.31-2.13c.42-.39,.45-1.05,.06-1.48-1.86-2.01-2.99-4.69-2.99-7.63C2.09,7.12,7.12,2.09,13.33,2.09s11.24,5.03,11.24,11.24c0,2.73-.97,5.22-2.58,7.17-.37,.44-.31,1.1,.14,1.47,.44,.37,1.1,.31,1.47-.14,1.91-2.31,3.06-5.27,3.06-8.5C26.67,5.97,20.7,0,13.33,0S0,5.97,0,13.33c0,3.49,1.35,6.68,3.55,9.05,.39,.42,1.05,.45,1.48,.06Z"/>
    </g>
  </g>
</svg>