<?xml version="1.0" encoding="UTF-8"?>
<svg id="Vrstva_1" data-name="Vrstva 1" xmlns="http://www.w3.org/2000/svg" viewBox="0 0 25.12 25.13">
  <defs>
    <style>
      .cls-1 {
        fill: #0031e0c8;
        fill-rule: evenodd;
      }
    </style>
  </defs>
  <g id="stravovani">
    <g id="Vector">
      <path class="cls-1" d="M18.39,23.33c.35,1.29,1.68,2.06,2.97,1.71,1.29-.35,2.06-1.68,1.71-2.97l-1.49-5.57c-.14-.53-.68-.84-1.21-.7l-2.79,.74c-.25,.07-.47,.24-.59,.46-.13,.23-.17,.49-.09,.74,0,0,1.49,5.57,1.49,5.57Zm2.46-.19c-.24,.07-.5-.08-.56-.32l-1.23-4.62,.89-.24,1.23,4.62c.07,.24-.08,.5-.32,.56h0Z"/>
      <path class="cls-1" d="M10.71,12.33c.53,.14,1.06-.17,1.21-.7l1.12-4.17c.14-.53-.17-1.06-.7-1.21-.53-.14-1.06,.17-1.21,.7l-1.12,4.17c-.14,.53,.17,1.06,.7,1.21Z"/>
      <path class="cls-1" d="M7.29,23.33l1.49-5.57c.07-.25,.03-.52-.09-.74-.13-.23-.35-.39-.59-.46l-2.79-.74c-.53-.14-1.06,.17-1.21,.7l-1.49,5.57c-.35,1.29,.42,2.62,1.71,2.97,1.29,.35,2.62-.42,2.97-1.71Zm-2.46-.19c-.24-.07-.39-.32-.32-.56l1.23-4.62,.89,.24-1.23,4.62c-.07,.24-.32,.39-.56,.32h0Z"/>
      <path class="cls-1" d="M8.1,14.61c1.55,.41,3.15-.51,3.56-2.05l.24-.92c.14-.53-.17-1.06-.7-1.21l-5.57-1.49c-.25-.07-.52-.03-.74,.09-.23,.13-.39,.35-.46,.59l-.24,.92c-.41,1.55,.51,3.15,2.05,3.56m0,0l1.86,.5-1.86-.5Zm-.16-3.02l3.66,.98c-.14,.49-.65,.77-1.14,.64l-1.86-.5c-.49-.13-.79-.63-.67-1.13h0Z"/>
      <path class="cls-1" d="M5.13,10.83c.53,.14,1.06-.17,1.21-.7l1.12-4.17c.14-.53-.17-1.06-.7-1.21-.53-.14-1.06,.17-1.21,.7l-1.12,4.17c-.14,.53,.17,1.06,.7,1.21Z"/>
      <path class="cls-1" d="M7.92,11.58c.53,.14,1.06-.17,1.21-.7l1.12-4.17c.14-.53-.17-1.06-.7-1.21-.53-.14-1.06,.17-1.21,.7l-1.12,4.17c-.14,.53,.17,1.06,.7,1.21Z"/>
      <path class="cls-1" d="M6.18,18.08c.53,.14,1.06-.17,1.21-.7l1-3.71c.14-.53-.17-1.06-.7-1.21-.53-.14-1.06,.17-1.21,.7l-1,3.71c-.14,.53,.17,1.06,.7,1.21Z"/>
      <path class="cls-1" d="M15.96,18.73c.23,.13,.49,.17,.74,.09l4.17-1.12c.53-.14,.84-.68,.7-1.21l-2.86-10.67c-.14-.53-.68-.84-1.21-.7-2.84,.76-4.51,3.66-3.75,6.5l1.74,6.5c.07,.25,.24,.47,.46,.59h0Zm1.19-2.04l-1.49-5.55c-.39-1.45,.24-2.93,1.45-3.69l2.31,8.63-2.28,.61h0Z"/>
      <path class="cls-1" d="M12.56,23.16c-2.03,0-3.93-.57-5.54-1.56-.46-.28-1.06-.14-1.36,.32-.28,.46-.14,1.06,.32,1.36,1.91,1.18,4.16,1.86,6.57,1.86,2.62,0,5.06-.81,7.08-2.19,.45-.31,.57-.92,.25-1.37-.31-.45-.92-.57-1.37-.25-1.7,1.16-3.75,1.84-5.96,1.84h0Zm-7.83-2.01c.4-.37,.42-.99,.06-1.39-1.75-1.89-2.82-4.42-2.82-7.19,0-5.86,4.74-10.6,10.59-10.6s10.59,4.74,10.59,10.59c0,2.57-.91,4.92-2.43,6.75-.35,.41-.29,1.04,.13,1.38,.41,.35,1.04,.29,1.38-.13,1.8-2.18,2.88-4.96,2.88-8.01,0-6.93-5.61-12.56-12.56-12.56S0,5.62,0,12.56c0,3.29,1.27,6.29,3.34,8.53,.37,.4,.99,.42,1.39,.06h0Z"/>
    </g>
  </g>
</svg>