<svg width="32" height="32" viewBox="0 0 32 32" fill="none" xmlns="http://www.w3.org/2000/svg">
<g id="stravovani">
<g id="Vector">
<path fill-rule="evenodd" clip-rule="evenodd" d="M22.1816 27.4249C22.5496 28.7981 23.961 29.613 25.3342 29.2451C26.7072 28.8771 27.5223 27.4658 27.1543 26.0925L25.5706 20.182C25.4213 19.6249 24.8487 19.2943 24.2916 19.4436L21.3363 20.2355C21.0688 20.3071 20.8407 20.4822 20.7022 20.722C20.5637 20.9619 20.5262 21.2469 20.5979 21.5145L22.1816 27.4249C22.1817 27.4249 22.1816 27.4249 22.1816 27.4249ZM24.7936 27.2277C24.5346 27.297 24.2685 27.1433 24.1991 26.8844L22.8856 21.9826L23.8234 21.7313L25.1369 26.633C25.1369 26.633 25.1369 26.6331 25.1369 26.633C25.2062 26.892 25.0526 27.1582 24.7936 27.2277Z" fill="#002FE0"/>
<path fill-rule="evenodd" clip-rule="evenodd" d="M14.0318 15.7532C14.5889 15.9025 15.1616 15.5719 15.3108 15.0148L16.4986 10.5819C16.6479 10.0248 16.3173 9.4522 15.7602 9.30292C15.2031 9.15365 14.6305 9.48426 14.4812 10.0414L13.2934 14.4742C13.1441 15.0313 13.4747 15.604 14.0318 15.7532Z" fill="#002FE0"/>
<path fill-rule="evenodd" clip-rule="evenodd" d="M10.4016 27.4249C10.4016 27.4249 10.4016 27.4249 10.4016 27.4249L11.9854 21.5145C12.0571 21.2469 12.0195 20.9619 11.881 20.722C11.7426 20.4822 11.5145 20.3071 11.2469 20.2355L8.29168 19.4436C7.73458 19.2943 7.16195 19.6249 7.01268 20.182L5.429 26.0925C5.429 26.0925 5.429 26.0925 5.429 26.0925C5.06101 27.4657 5.876 28.8771 7.24906 29.2451C8.62223 29.613 10.0337 28.798 10.4016 27.4249ZM7.78966 27.2276C7.53063 27.1582 7.37704 26.892 7.44642 26.6331L8.75983 21.7313L9.69764 21.9826L8.3842 26.8843C8.31481 27.1433 8.04859 27.297 7.78966 27.2276Z" fill="#002FE0"/>
<path fill-rule="evenodd" clip-rule="evenodd" d="M11.2698 18.1805C12.915 18.6214 14.606 17.645 15.0468 15.9998L15.3108 15.0148C15.4601 14.4577 15.1294 13.885 14.5723 13.7357L8.66189 12.152C8.39436 12.0804 8.1093 12.1179 7.86944 12.2564C7.62958 12.3949 7.45456 12.623 7.38288 12.8905L7.11896 13.8756C7.11896 13.8756 7.11897 13.8755 7.11896 13.8756C6.67814 15.5207 7.65441 17.2118 9.29962 17.6526M9.29962 17.6526L11.2698 18.1805C11.2698 18.1805 11.2698 18.1805 11.2698 18.1805M9.13035 14.4398L13.0228 15.4828C12.8709 15.9995 12.3335 16.3032 11.8104 16.1631L9.8402 15.6352C9.31714 15.495 9.00352 14.9633 9.13035 14.4398Z" fill="#002FE0"/>
<path fill-rule="evenodd" clip-rule="evenodd" d="M8.12109 14.1695C8.67819 14.3187 9.25082 13.9881 9.4001 13.431L10.5879 8.99822C10.7372 8.44112 10.4066 7.86849 9.84946 7.71921C9.29236 7.56993 8.71973 7.90054 8.57046 8.45764L7.38288 12.8905C7.2336 13.4476 7.56399 14.0202 8.12109 14.1695Z" fill="#002FE0"/>
<path fill-rule="evenodd" clip-rule="evenodd" d="M11.0765 14.9614C11.6336 15.1106 12.2063 14.78 12.3555 14.2229L13.5433 9.7901C13.6926 9.233 13.362 8.66037 12.8049 8.51109C12.2478 8.36182 11.6752 8.69242 11.5259 9.24952L10.3381 13.6823C10.1888 14.2394 10.5194 14.8121 11.0765 14.9614Z" fill="#002FE0"/>
<path fill-rule="evenodd" clip-rule="evenodd" d="M9.22902 21.8571C9.78612 22.0064 10.3588 21.6758 10.508 21.1187L11.5638 17.1784C11.7131 16.6213 11.3825 16.0487 10.8254 15.8994C10.2683 15.7501 9.69563 16.0807 9.54636 16.6378L8.49059 20.5781C8.34131 21.1352 8.67192 21.7078 9.22902 21.8571Z" fill="#002FE0"/>
<path fill-rule="evenodd" clip-rule="evenodd" d="M19.6068 22.5447C19.8466 22.6831 20.1317 22.7207 20.3992 22.649L24.832 21.4612C25.3891 21.3119 25.7199 20.7391 25.5706 20.182L22.5351 8.85385C22.3858 8.29676 21.8132 7.96615 21.2561 8.11541C18.2508 8.92063 16.4673 12.0097 17.2725 15.015L19.1202 21.9105C19.1919 22.1781 19.3669 22.4062 19.6068 22.5447ZM20.8674 20.3612L19.29 14.4745C18.8773 12.9345 19.545 11.3595 20.8284 10.5541L23.2827 19.714L20.8674 20.3612Z" fill="#002FE0"/>
<path fill-rule="evenodd" clip-rule="evenodd" d="M15.9997 27.2446C13.8431 27.2446 11.8314 26.638 10.1215 25.5871C9.63014 25.2851 8.987 25.4386 8.685 25.93C8.38301 26.4213 8.53653 27.0645 9.02789 27.3665C11.057 28.6136 13.4457 29.3332 15.9997 29.3332C18.7843 29.3332 21.3719 28.4779 23.5112 27.0166C23.9875 26.6913 24.1098 26.0415 23.7845 25.5653C23.4592 25.089 22.8094 24.9667 22.3332 25.292C20.5296 26.5239 18.3504 27.2446 15.9997 27.2446ZM7.68808 25.1104C8.11139 24.7186 8.13698 24.0579 7.74525 23.6346C5.88871 21.6284 4.75511 18.9479 4.75511 16C4.75511 9.78976 9.78947 4.75535 15.9997 4.75535C22.2099 4.75535 27.2443 9.78976 27.2443 16C27.2443 18.7252 26.2759 21.2215 24.6636 23.1679C24.2957 23.612 24.3575 24.2704 24.8017 24.6383C25.2459 25.0062 25.9042 24.9444 26.2721 24.5002C28.1831 22.1931 29.3329 19.2296 29.3329 16C29.3329 8.63626 23.3635 2.66675 15.9997 2.66675C8.63596 2.66675 2.6665 8.63626 2.6665 16C2.6665 19.4946 4.01291 22.6765 6.21232 25.0532C6.60405 25.4765 7.26477 25.5021 7.68808 25.1104Z" fill="#002FE0"/>
</g>
</g>
</svg>
