<svg width="32" height="32" viewBox="0 0 32 32" fill="none" xmlns="http://www.w3.org/2000/svg">
<g id="terminy">
<path id="Vector (Stroke)" fill-rule="evenodd" clip-rule="evenodd" d="M12.9404 4C13.5171 4 13.9847 4.46755 13.9847 5.04431V5.52975H17.2502V5.04431C17.2502 4.46755 17.7177 4 18.2945 4C18.8712 4 19.3388 4.46755 19.3388 5.04431V5.52975H22.6553V5.04431C22.6553 4.46755 23.1229 4 23.6996 4C24.2764 4 24.7439 4.46755 24.7439 5.04431V5.52975H28.2889C28.8656 5.52975 29.3332 5.9973 29.3332 6.57406V26.4608C29.3332 27.0376 28.8656 27.5051 28.2889 27.5051H8.30012C7.72336 27.5051 7.25581 27.0376 7.25581 26.4608V24.4456H3.71087C3.27119 24.4456 2.87861 24.1702 2.72893 23.7568C2.57972 23.3447 2.70378 22.8834 3.03921 22.6017C3.04024 22.6008 3.04128 22.5999 3.04232 22.5991L3.71087 23.4013C3.04232 22.5991 3.04271 22.5987 3.04232 22.5991L3.04083 22.6003L3.03921 22.6017C3.04024 22.6008 3.04128 22.5999 3.04232 22.5991L3.06619 22.5779C3.09042 22.5563 3.13014 22.52 3.18317 22.4688C3.28927 22.3665 3.44841 22.2051 3.6432 21.9833C4.03292 21.5394 4.56403 20.8551 5.09878 19.9193C6.16512 18.0532 7.25581 15.1707 7.25581 11.1633V6.57406C7.25581 5.9973 7.72336 5.52975 8.30012 5.52975H11.8961V5.04431C11.8961 4.46755 12.3636 4 12.9404 4ZM11.8961 7.61837H9.34443V10.119H27.2446V7.61837H24.7439V8.10381C24.7439 8.68057 24.2764 9.14812 23.6996 9.14812C23.1229 9.14812 22.6553 8.68057 22.6553 8.10381V7.61837H19.3388V8.10381C19.3388 8.68057 18.8712 9.14812 18.2945 9.14812C17.7177 9.14812 17.2502 8.68057 17.2502 8.10381V7.61837H13.9847V8.10381C13.9847 8.68057 13.5171 9.14812 12.9404 9.14812C12.3636 9.14812 11.8961 8.68057 11.8961 8.10381V7.61837ZM27.2194 12.2076H9.32151C9.14989 16.085 8.04133 18.9796 6.91221 20.9555C6.60653 21.4905 6.29995 21.9571 6.01098 22.357H23.2849C23.3798 22.261 23.4973 22.1366 23.6319 21.9833C24.0217 21.5394 24.5528 20.8551 25.0875 19.9193C26.0589 18.2194 27.0504 15.6762 27.2194 12.2076ZM23.6996 23.4013C24.3682 24.2036 24.3686 24.2032 24.3691 24.2028L24.3701 24.202L24.3724 24.2L24.3783 24.195L24.395 24.1807C24.4083 24.1693 24.4259 24.1539 24.4474 24.1347C24.4904 24.0962 24.5492 24.0422 24.6217 23.9723C24.7666 23.8326 24.966 23.6295 25.2014 23.3613C25.6722 22.8252 26.2884 22.0275 26.901 20.9555C27.016 20.7542 27.1309 20.5433 27.2446 20.3227V25.4165H9.34443V24.4456H23.6996C23.9439 24.4456 24.1814 24.3592 24.3691 24.2028L23.6996 23.4013Z" fill="#002FE0"/>
</g>
</svg>
