<?xml version="1.0" encoding="UTF-8"?>
<svg id="Vrstva_1" data-name="Vrstva 1" xmlns="http://www.w3.org/2000/svg" viewBox="0 0 26.67 23.51">
  <defs>
    <style>
      .cls-1 {
        fill: #00a5ff;
        fill-rule: evenodd;
      }
    </style>
  </defs>
  <g id="terminy">
    <path id="Vector_Stroke_" data-name="Vector (Stroke)" class="cls-1" d="M10.27,0c.58,0,1.04,.47,1.04,1.04v.49h3.27v-.49c0-.58,.47-1.04,1.04-1.04s1.04,.47,1.04,1.04v.49h3.32v-.49c0-.58,.47-1.04,1.04-1.04s1.04,.47,1.04,1.04v.49h3.55c.58,0,1.04,.47,1.04,1.04V22.46c0,.58-.47,1.04-1.04,1.04H5.63c-.58,0-1.04-.47-1.04-1.04v-2.02H1.04c-.44,0-.83-.28-.98-.69-.15-.41-.03-.87,.31-1.16,0,0,0,0,0,0l.67,.8q-.67-.8-.67-.8h0s0,0,0,0c0,0,0,0,0,0l.02-.02s.06-.06,.12-.11c.11-.1,.27-.26,.46-.49,.39-.44,.92-1.13,1.46-2.06,1.07-1.87,2.16-4.75,2.16-8.76V2.57c0-.58,.47-1.04,1.04-1.04h3.6v-.49c0-.58,.47-1.04,1.04-1.04Zm-1.04,3.62h-2.55v2.5H24.58V3.62h-2.5v.49c0,.58-.47,1.04-1.04,1.04s-1.04-.47-1.04-1.04v-.49h-3.32v.49c0,.58-.47,1.04-1.04,1.04s-1.04-.47-1.04-1.04v-.49h-3.27v.49c0,.58-.47,1.04-1.04,1.04s-1.04-.47-1.04-1.04v-.49Zm15.32,4.59H6.66c-.17,3.88-1.28,6.77-2.41,8.75-.31,.53-.61,1-.9,1.4H20.62c.09-.1,.21-.22,.35-.37,.39-.44,.92-1.13,1.46-2.06,.97-1.7,1.96-4.24,2.13-7.71Zm-3.52,11.19q.67,.8,.67,.8h0s0,0,0,0h0s.02-.02,.02-.02c.01-.01,.03-.03,.05-.05,.04-.04,.1-.09,.17-.16,.14-.14,.34-.34,.58-.61,.47-.54,1.09-1.33,1.7-2.41,.12-.2,.23-.41,.34-.63v5.09H6.68v-.97h14.36c.24,0,.48-.09,.67-.24l-.67-.8Z"/>
  </g>
</svg>