<svg width="32" height="32" viewBox="0 0 32 32" fill="none" xmlns="http://www.w3.org/2000/svg">
<g id="vybavenost">
<g id="Union">
<path fill-rule="evenodd" clip-rule="evenodd" d="M14.955 24.2096C14.955 24.7864 15.4226 25.254 15.9993 25.254H24.158C24.7348 25.254 25.2023 24.7864 25.2023 24.2096V18.6005C25.2023 18.0238 24.7348 17.5562 24.158 17.5562H15.9993C15.4226 17.5562 14.955 18.0238 14.955 18.6005V24.2096ZM17.0437 23.1653V19.6449H23.1137V23.1653H17.0437Z" fill="#002FE0"/>
<path fill-rule="evenodd" clip-rule="evenodd" d="M12.2803 3.53035L10.2024 2.73555C9.88139 2.61275 9.52048 2.65579 9.23733 2.85065C8.95417 3.0455 8.78503 3.36722 8.78503 3.71094V4.80829H5.80099C5.37397 4.80829 4.98997 5.06827 4.83138 5.46476L2.80057 10.5418C2.74803 10.6647 2.7184 10.7998 2.71706 10.9417L2.71701 10.9518V12.5835C2.71701 13.5463 3.10665 14.4181 3.73684 15.0498V27.2447H3.71033C3.13357 27.2447 2.66602 27.7122 2.66602 28.289C2.66602 28.8657 3.13357 29.3333 3.71033 29.3333H28.2884C28.8651 29.3333 29.3327 28.8657 29.3327 28.289C29.3327 27.7122 28.8651 27.2447 28.2884 27.2447H28.2618V15.0498C28.892 14.4181 29.2817 13.5463 29.2817 12.5835V10.9557L29.2817 10.9518C29.2817 10.9365 29.2814 10.9213 29.2807 10.906C29.2751 10.7773 29.2463 10.6546 29.1982 10.5421L27.1673 5.46476C27.0087 5.06827 26.6247 4.80829 26.1977 4.80829H23.1627V3.71094C23.1627 3.36619 22.9925 3.04366 22.708 2.84901C22.4234 2.65436 22.0612 2.61269 21.7399 2.73764L19.7147 3.52519C19.3399 3.00516 18.729 2.66664 18.039 2.66664H13.9597C13.2674 2.66664 12.6548 3.0074 12.2803 3.53035ZM10.2024 8.25576C9.88139 8.37856 9.52048 8.33552 9.23733 8.14066C8.95417 7.94581 8.78503 7.62409 8.78503 7.28037V6.89692H6.50803L5.30381 9.90747H26.6949L25.4907 6.89692H23.1627V7.28037C23.1627 7.62512 22.9925 7.94765 22.708 8.1423C22.4234 8.33695 22.0612 8.37862 21.7399 8.25367L19.7147 7.46612C19.3399 7.98615 18.729 8.32468 18.039 8.32468H13.9597C13.2674 8.32468 12.6547 7.98391 12.2803 7.46097L10.2024 8.25576ZM13.9841 27.2447H26.1732V16.0546C26.0473 16.0684 25.9194 16.0754 25.7898 16.0754C24.8364 16.0754 23.9723 15.6934 23.3422 15.0741C22.712 15.6934 21.8479 16.0754 20.8946 16.0754C19.9412 16.0754 19.0771 15.6934 18.447 15.0741C17.8168 15.6934 16.9527 16.0754 15.9993 16.0754C15.046 16.0754 14.1819 15.6934 13.5517 15.0741C12.9216 15.6934 12.0575 16.0754 11.1041 16.0754C10.1508 16.0754 9.28666 15.6934 8.65653 15.0741C8.0264 15.6934 7.16228 16.0754 6.20892 16.0754C6.07933 16.0754 5.95139 16.0684 5.82547 16.0546V27.2447H6.79635V18.6005C6.79635 18.0238 7.2639 17.5562 7.84066 17.5562H12.9398C13.5166 17.5562 13.9841 18.0238 13.9841 18.6005V27.2447ZM11.8955 22.6554H11.4101C10.8333 22.6554 10.3658 23.123 10.3658 23.6997C10.3658 24.2765 10.8333 24.744 11.4101 24.744H11.8955V27.2447H8.88497V19.6449H11.8955V22.6554ZM5.31943 13.669C5.3692 13.6989 5.41626 13.733 5.46016 13.7706C5.67684 13.9075 5.93362 13.9868 6.20892 13.9868C6.98396 13.9868 7.61222 13.3586 7.61222 12.5835V11.9961H4.80563V12.5835C4.80563 13.0209 5.00575 13.4116 5.31943 13.669ZM26.5385 13.7706C26.5824 13.733 26.6295 13.699 26.6792 13.669C26.9929 13.4116 27.1931 13.0209 27.1931 12.5835V11.9961H24.3865V12.5835C24.3865 13.3586 25.0147 13.9868 25.7898 13.9868C26.0651 13.9868 26.3218 13.9075 26.5385 13.7706ZM13.9841 6.23606H18.0145V4.75526H13.9841V6.23606ZM10.8737 5.2285V5.76281L11.5721 5.49566L10.8737 5.2285ZM20.4104 5.49566L21.074 5.23756V5.75375L20.4104 5.49566ZM19.4913 11.9961H22.2978V12.5835C22.2978 13.3586 21.6696 13.9868 20.8946 13.9868C20.1195 13.9868 19.4913 13.3586 19.4913 12.5835V11.9961ZM14.5961 11.9961H17.4026V12.5835C17.4026 13.3586 16.7744 13.9868 15.9993 13.9868C15.2243 13.9868 14.5961 13.3586 14.5961 12.5835V11.9961ZM9.70084 11.9961H12.5074V12.5835C12.5074 13.3586 11.8792 13.9868 11.1041 13.9868C10.3291 13.9868 9.70084 13.3586 9.70084 12.5835L9.70084 11.9961Z" fill="#002FE0"/>
</g>
</g>
</svg>
