<svg width="40" height="40" viewBox="0 0 40 40" fill="none" xmlns="http://www.w3.org/2000/svg">
<g id="ikona">
<path id="Vector" d="M23.642 20.6271L29.0295 15.2341C29.3793 14.8365 29.5646 14.3207 29.5477 13.7914C29.5308 13.2622 29.313 12.7592 28.9386 12.3848C28.5641 12.0103 28.0612 11.7925 27.5319 11.7756C27.0026 11.7587 26.4868 11.944 26.0892 12.2938L20.6962 17.6813L15.2934 12.2771C15.0999 12.0836 14.8702 11.9301 14.6173 11.8254C14.3645 11.7207 14.0935 11.6667 13.8198 11.6667C13.5461 11.6667 13.2751 11.7207 13.0223 11.8254C12.7694 11.9301 12.5397 12.0836 12.3462 12.2771C12.1527 12.4707 11.9992 12.7004 11.8944 12.9532C11.7897 13.2061 11.7358 13.4771 11.7358 13.7507C11.7358 14.0244 11.7897 14.2954 11.8944 14.5483C11.9992 14.8011 12.1527 15.0308 12.3462 15.2244L17.7504 20.6271L12.3629 26.0188C12.1516 26.2077 11.981 26.4377 11.8617 26.6947C11.7424 26.9518 11.6767 27.2305 11.6688 27.5138C11.6609 27.797 11.7108 28.079 11.8156 28.3423C11.9204 28.6056 12.0778 28.8448 12.2782 29.0452C12.4786 29.2456 12.7177 29.403 12.981 29.5077C13.2444 29.6125 13.5263 29.6625 13.8096 29.6546C14.0929 29.6466 14.3716 29.581 14.6286 29.4616C14.8857 29.3423 15.1157 29.1718 15.3045 28.9605L20.6962 23.573L26.0823 28.9605C26.4731 29.3513 27.0032 29.5709 27.5559 29.5709C28.1086 29.5709 28.6387 29.3513 29.0295 28.9605C29.4204 28.5696 29.6399 28.0396 29.6399 27.4869C29.6399 26.9341 29.4204 26.4041 29.0295 26.0133L23.642 20.6271Z" fill="black"/>
</g>
</svg>
