<?xml version="1.0" encoding="UTF-8" standalone="no"?>
<!DOCTYPE svg PUBLIC "-//W3C//DTD SVG 1.1//EN" "http://www.w3.org/Graphics/SVG/1.1/DTD/svg11.dtd">
<svg width="100%" height="100%" viewBox="0 0 40 40" version="1.1" xmlns="http://www.w3.org/2000/svg" xmlns:xlink="http://www.w3.org/1999/xlink" xml:space="preserve" xmlns:serif="http://www.serif.com/" style="fill-rule:evenodd;clip-rule:evenodd;stroke-linejoin:round;stroke-miterlimit:2;">
    <g id="socka-yt" serif:id="socka/yt">
        <path id="Subtract" d="M36.667,20C36.667,29.205 29.205,36.667 20,36.667C10.795,36.667 3.333,29.205 3.333,20C3.333,10.795 10.795,3.333 20,3.333C29.205,3.333 36.667,10.795 36.667,20ZM25.483,14.202C26.507,14.344 27.61,14.956 27.943,15.991C28.466,18.639 28.469,21.362 27.952,24.011C27.618,25.035 26.515,25.658 25.5,25.8C21.849,26.186 18.168,26.186 14.518,25.8C13.493,25.658 12.39,25.044 12.048,24.011C11.528,21.363 11.528,18.639 12.048,15.991C12.382,14.965 13.485,14.344 14.5,14.202C18.151,13.814 21.832,13.814 25.483,14.202ZM23.206,20L18.007,16.807L18.007,23.193C19.303,22.4 20.576,21.617 21.863,20.826C22.308,20.552 22.756,20.277 23.206,20Z" style="fill:rgb(235,0,0);"/>
    </g>
</svg>
