<svg width="40" height="40" viewBox="0 0 40 40" fill="none" xmlns="http://www.w3.org/2000/svg">
<g id="socka/yt">
<path id="Subtract" fill-rule="evenodd" clip-rule="evenodd" d="M36.6667 19.9999C36.6667 29.2047 29.2048 36.6666 20 36.6666C10.7953 36.6666 3.33334 29.2047 3.33334 19.9999C3.33334 10.7952 10.7953 3.33325 20 3.33325C29.2048 3.33325 36.6667 10.7952 36.6667 19.9999ZM25.4825 14.2017C26.5066 14.3442 27.6097 14.9561 27.943 15.9911C28.4656 18.6386 28.4686 21.3623 27.9518 24.0109C27.6184 25.035 26.5154 25.6578 25.5 25.8004C21.8494 26.1863 18.1682 26.1863 14.5176 25.8004C13.4934 25.6578 12.3904 25.0438 12.0483 24.0109C11.5285 21.3629 11.5285 18.6391 12.0483 15.9911C12.3816 14.9648 13.4847 14.3442 14.5 14.2017C18.1505 13.8135 21.8319 13.8135 25.4825 14.2017ZM23.2061 19.9999L18.0066 16.8069V23.1929C19.3033 22.3996 20.5758 21.6171 21.8627 20.8258C22.3083 20.5518 22.7555 20.2768 23.2061 19.9999Z" fill="#CFA44A"/>
</g>
</svg>
