<svg width="32" height="32" viewBox="0 0 32 32" fill="none" xmlns="http://www.w3.org/2000/svg">
<g id="zabava">
<g id="Vector">
<path fill-rule="evenodd" clip-rule="evenodd" d="M10.6193 10.6724L21.3275 21.3807C21.5746 21.6277 21.6818 21.982 21.613 22.3246C21.5442 22.6672 21.3086 22.9527 20.9853 23.0853L6.21438 29.1425L6.21257 29.1433C5.91135 29.2661 5.58261 29.3334 5.24057 29.3334C3.81888 29.3334 2.6665 28.1808 2.6665 26.7594C2.6665 26.4176 2.73362 26.0886 2.85682 25.7869L8.9146 11.0146C9.04718 10.6913 9.33268 10.4557 9.67528 10.3869C10.0179 10.3182 10.3722 10.4253 10.6193 10.6724ZM5.24057 27.2448C4.97249 27.2448 4.75513 27.0274 4.75513 26.7594C4.75513 26.6926 4.76799 26.6317 4.79019 26.5771L4.93544 26.2229H7.82921L5.42373 27.2093C5.3686 27.2317 5.30702 27.2448 5.24057 27.2448ZM12.9225 24.1343H5.79194L6.81739 21.6337H18.6268L18.7413 21.7481L12.9225 24.1343ZM8.69934 17.0444L7.67388 19.545H16.5382L14.0375 17.0444H8.69934ZM11.9489 14.9558H9.55583L10.2518 13.2587L11.9489 14.9558Z" fill="#486EFF"/>
<path d="M28.5401 19.5757C29.0999 19.7145 29.4412 20.2808 29.3025 20.8406C29.1637 21.4005 28.5973 21.7418 28.0375 21.603L21.8675 20.0732C21.3077 19.9344 20.9664 19.3681 21.1052 18.8083C21.244 18.2485 21.8103 17.9072 22.3701 18.046L28.5401 19.5757Z" fill="#486EFF"/>
<path d="M13.9846 9.88107C13.9846 10.4578 13.5171 10.9254 12.9403 10.9254C12.3636 10.9254 11.896 10.4578 11.896 9.88107V3.71106C11.896 3.1343 12.3636 2.66675 12.9403 2.66675C13.5171 2.66675 13.9846 3.1343 13.9846 3.71106V9.88107Z" fill="#486EFF"/>
<path d="M21.578 15.0112C21.8767 15.3099 22.361 15.3099 22.6597 15.0112C22.9584 14.7125 22.9584 14.2282 22.6597 13.9295C22.361 13.6308 21.8767 13.6308 21.578 13.9295C21.2793 14.2282 21.2793 14.7125 21.578 15.0112Z" fill="#486EFF"/>
<path d="M16.5407 11.9517C16.242 12.2504 15.7577 12.2504 15.459 11.9517C15.1603 11.653 15.1603 11.1687 15.459 10.87C15.7577 10.5713 16.242 10.5713 16.5407 10.87C16.8394 11.1687 16.8394 11.653 16.5407 11.9517Z" fill="#486EFF"/>
<path d="M27.8034 16.0001C27.8034 16.5768 27.3359 17.0444 26.7591 17.0444C26.1823 17.0444 25.7148 16.5768 25.7148 16.0001V15.5146H25.2294C24.6526 15.5146 24.185 15.0471 24.185 14.4703C24.185 13.8936 24.6526 13.426 25.2294 13.426H25.7148V12.9406C25.7148 12.3638 26.1823 11.8963 26.7591 11.8963C27.3359 11.8963 27.8034 12.3638 27.8034 12.9406V13.426H28.2889C28.8656 13.426 29.3332 13.8936 29.3332 14.4703C29.3332 15.0471 28.8656 15.5146 28.2889 15.5146H27.8034V16.0001Z" fill="#486EFF"/>
<path d="M18.5739 6.77057C18.5739 7.34733 18.1063 7.81488 17.5296 7.81488C16.9528 7.81488 16.4853 7.34733 16.4853 6.77057V6.28513H15.9998C15.4231 6.28513 14.9555 5.81757 14.9555 5.24082C14.9555 4.66406 15.4231 4.1965 15.9998 4.1965H16.4853V3.71106C16.4853 3.1343 16.9528 2.66675 17.5296 2.66675C18.1063 2.66675 18.5739 3.1343 18.5739 3.71106V4.1965H19.0593C19.6361 4.1965 20.1037 4.66406 20.1037 5.24082C20.1037 5.81757 19.6361 6.28513 19.0593 6.28513H18.5739V6.77057Z" fill="#486EFF"/>
<path fill-rule="evenodd" clip-rule="evenodd" d="M24.2099 11.2833C24.6025 11.3455 24.9964 11.1794 25.2259 10.8549L26.1905 9.49083L27.8611 9.51217C28.2586 9.51725 28.6245 9.29623 28.805 8.94205C28.9854 8.58787 28.9492 8.16195 28.7114 7.84337L27.7123 6.50442L28.2488 4.92222C28.3764 4.54577 28.2793 4.12949 27.9982 3.84841C27.7171 3.56734 27.3008 3.47021 26.9244 3.59786L25.3422 4.13441L24.0033 3.13521C23.6847 2.89746 23.2588 2.86119 22.9046 3.04166C22.5504 3.22212 22.3294 3.58801 22.3345 3.98549L22.3558 5.65603L20.9917 6.62071C20.6671 6.85023 20.501 7.24411 20.5632 7.63672C20.6254 8.02934 20.9051 8.35261 21.2847 8.4706L22.8801 8.9665L23.376 10.5619C23.494 10.9415 23.8173 11.2212 24.2099 11.2833ZM24.7424 7.92122L24.7117 7.82224C24.6096 7.494 24.3526 7.23699 24.0244 7.13496L23.9254 7.10418L24.01 7.04431C24.2906 6.84586 24.4557 6.52202 24.4513 6.17833L24.4499 6.07468L24.533 6.13666C24.8085 6.34224 25.1674 6.3991 25.493 6.28872L25.5913 6.25538L25.558 6.35363C25.4476 6.67913 25.5044 7.0381 25.71 7.31356L25.772 7.39669L25.6682 7.39537C25.3246 7.39098 25.0007 7.55598 24.8023 7.83662L24.7424 7.92122Z" fill="#486EFF"/>
</g>
</g>
</svg>
