<?xml version="1.0" encoding="UTF-8"?>
<svg id="Vrstva_1" data-name="Vrstva 1" xmlns="http://www.w3.org/2000/svg" viewBox="0 0 26.67 26.67">
  <defs>
    <style>
      .cls-1 {
        fill-rule: evenodd;
      }

      .cls-1, .cls-2 {
        fill: #00a5ff;
      }
    </style>
  </defs>
  <g id="zabava">
    <g id="Vector">
      <path class="cls-1" d="M7.95,8.01l10.71,10.71c.25,.25,.35,.6,.29,.94s-.3,.63-.63,.76L3.55,26.48h0c-.3,.12-.63,.19-.97,.19-1.42,0-2.57-1.15-2.57-2.57,0-.34,.07-.67,.19-.97L6.25,8.35c.13-.32,.42-.56,.76-.63,.34-.07,.7,.04,.94,.29ZM2.57,24.58c-.27,0-.49-.22-.49-.49,0-.07,.01-.13,.04-.18l.15-.35h2.89l-2.41,.99c-.06,.02-.12,.04-.18,.04Zm7.68-3.11H3.13l1.03-2.5H15.96l.11,.11-5.82,2.39Zm-4.22-7.09l-1.03,2.5H13.87l-2.5-2.5H6.03Zm3.25-2.09h-2.39l.7-1.7,1.7,1.7Z"/>
      <path class="cls-2" d="M25.87,16.91c.56,.14,.9,.71,.76,1.26-.14,.56-.71,.9-1.26,.76l-6.17-1.53c-.56-.14-.9-.71-.76-1.26s.71-.9,1.26-.76l6.17,1.53Z"/>
      <path class="cls-2" d="M11.32,7.21c0,.58-.47,1.04-1.04,1.04s-1.04-.47-1.04-1.04V1.04c0-.58,.47-1.04,1.04-1.04s1.04,.47,1.04,1.04V7.21Z"/>
      <path class="cls-2" d="M18.91,12.34c.3,.3,.78,.3,1.08,0s.3-.78,0-1.08c-.3-.3-.78-.3-1.08,0-.3,.3-.3,.78,0,1.08Z"/>
      <path class="cls-2" d="M13.87,9.28c-.3,.3-.78,.3-1.08,0-.3-.3-.3-.78,0-1.08,.3-.3,.78-.3,1.08,0,.3,.3,.3,.78,0,1.08Z"/>
      <path class="cls-2" d="M25.14,13.33c0,.58-.47,1.04-1.04,1.04s-1.04-.47-1.04-1.04v-.49h-.49c-.58,0-1.04-.47-1.04-1.04s.47-1.04,1.04-1.04h.49v-.49c0-.58,.47-1.04,1.04-1.04s1.04,.47,1.04,1.04v.49h.49c.58,0,1.04,.47,1.04,1.04s-.47,1.04-1.04,1.04h-.49v.49Z"/>
      <path class="cls-2" d="M15.91,4.1c0,.58-.47,1.04-1.04,1.04s-1.04-.47-1.04-1.04v-.49h-.49c-.58,0-1.04-.47-1.04-1.04s.47-1.04,1.04-1.04h.49v-.49c0-.58,.47-1.04,1.04-1.04s1.04,.47,1.04,1.04v.49h.49c.58,0,1.04,.47,1.04,1.04s-.47,1.04-1.04,1.04h-.49v.49Z"/>
      <path class="cls-1" d="M21.54,8.62c.39,.06,.79-.1,1.02-.43l.96-1.36,1.67,.02c.4,0,.76-.22,.94-.57,.18-.35,.14-.78-.09-1.1l-1-1.34,.54-1.58c.13-.38,.03-.79-.25-1.07-.28-.28-.7-.38-1.07-.25l-1.58,.54-1.34-1c-.32-.24-.74-.27-1.1-.09-.35,.18-.58,.55-.57,.94l.02,1.67-1.36,.96c-.32,.23-.49,.62-.43,1.02,.06,.39,.34,.72,.72,.83l1.6,.5,.5,1.6c.12,.38,.44,.66,.83,.72Zm.53-3.36l-.03-.1c-.1-.33-.36-.59-.69-.69l-.1-.03,.08-.06c.28-.2,.45-.52,.44-.87v-.1s.08,.06,.08,.06c.28,.21,.63,.26,.96,.15l.1-.03-.03,.1c-.11,.33-.05,.68,.15,.96l.06,.08h-.1c-.34,0-.67,.16-.87,.44l-.06,.08Z"/>
    </g>
  </g>
</svg>