<svg width="40" height="40" viewBox="0 0 40 40" fill="none" xmlns="http://www.w3.org/2000/svg">
<g id="socka/insta">
<g id="Subtract">
<path d="M18.538 22.188C18.9707 22.4772 19.4795 22.6315 20 22.6315C20.6979 22.6315 21.3673 22.3543 21.8608 21.8607C22.3543 21.3672 22.6316 20.6979 22.6316 19.9999C22.6316 19.4795 22.4772 18.9707 22.1881 18.5379C21.8989 18.1051 21.4879 17.7679 21.0071 17.5687C20.5262 17.3695 19.9971 17.3174 19.4866 17.4189C18.9761 17.5205 18.5072 17.7711 18.1392 18.1391C17.7712 18.5072 17.5205 18.9761 17.419 19.4865C17.3174 19.997 17.3696 20.5261 17.5687 21.007C17.7679 21.4879 18.1052 21.8989 18.538 22.188Z" fill="#CFA44A"/>
<path fill-rule="evenodd" clip-rule="evenodd" d="M25.6944 25.6943C26.3113 25.0775 26.6579 24.2408 26.6579 23.3683V16.6315C26.6579 15.7591 26.3113 14.9224 25.6944 14.3055C25.0775 13.6886 24.2409 13.342 23.3684 13.342H16.6316C15.7592 13.342 14.9225 13.6886 14.3056 14.3055C13.6887 14.9224 13.3421 15.7591 13.3421 16.6315V23.3683C13.3421 24.2408 13.6887 25.0775 14.3056 25.6943C14.9225 26.3112 15.7592 26.6578 16.6316 26.6578H23.3684C24.2409 26.6578 25.0775 26.3112 25.6944 25.6943ZM17.6039 16.4164C18.3132 15.9428 19.1471 15.6903 20 15.6907C21.1425 15.6919 22.2379 16.1463 23.0458 16.9541C23.8537 17.762 24.3081 18.8574 24.3092 19.9999C24.3096 20.8528 24.0571 21.6867 23.5835 22.396C23.1099 23.1054 22.4366 23.6583 21.6487 23.9849C20.8608 24.3115 19.9938 24.3971 19.1572 24.2308C18.3207 24.0645 17.5523 23.6538 16.9492 23.0508C16.3461 22.4477 15.9354 21.6792 15.7691 20.8427C15.6029 20.0062 15.6884 19.1391 16.015 18.3512C16.3416 17.5633 16.8945 16.89 17.6039 16.4164ZM24.3355 16.7565C24.9242 16.7565 25.4013 16.2793 25.4013 15.6907C25.4013 15.1021 24.9242 14.6249 24.3355 14.6249C23.7469 14.6249 23.2697 15.1021 23.2697 15.6907C23.2697 16.2793 23.7469 16.7565 24.3355 16.7565Z" fill="#CFA44A"/>
<path fill-rule="evenodd" clip-rule="evenodd" d="M36.6667 19.9999C36.6667 29.2047 29.2048 36.6666 20 36.6666C10.7953 36.6666 3.33334 29.2047 3.33334 19.9999C3.33334 10.7952 10.7953 3.33325 20 3.33325C29.2048 3.33325 36.6667 10.7952 36.6667 19.9999ZM13.1228 13.1227C14.0535 12.192 15.3153 11.6683 16.6316 11.6666H23.3684C24.6847 11.6683 25.9465 12.192 26.8772 13.1227C27.808 14.0534 28.3316 15.3153 28.3333 16.6315V23.3683C28.3322 24.6848 27.8087 25.9469 26.8779 26.8778C25.947 27.8086 24.6849 28.3321 23.3684 28.3333H16.6316C15.3153 28.3315 14.0535 27.8079 13.1228 26.8771C12.1921 25.9464 11.6684 24.6846 11.6667 23.3683V16.6315C11.6684 15.3153 12.1921 14.0534 13.1228 13.1227Z" fill="#CFA44A"/>
</g>
</g>
</svg>
