<?xml version="1.0" encoding="UTF-8"?>
<svg id="Vrstva_1" data-name="Vrstva 1" xmlns="http://www.w3.org/2000/svg" viewBox="0 0 20 20">
  <defs>
    <style>
      .cls-1 {
        fill: #5cae13;
      }
    </style>
  </defs>
  <path class="cls-1" d="M19.17,9.17h-3.4c-.07-.46-.19-.91-.36-1.34l2.94-1.7c.1-.05,.18-.12,.25-.21,.07-.09,.12-.19,.15-.29,.03-.11,.04-.22,.03-.33-.01-.11-.05-.22-.11-.31-.06-.1-.13-.18-.22-.25-.09-.07-.19-.12-.3-.14-.11-.03-.22-.03-.33-.02-.11,.02-.22,.06-.31,.11l-2.94,1.71c-.28-.36-.6-.68-.96-.96l1.71-2.94c.1-.19,.13-.41,.07-.62-.06-.21-.2-.39-.38-.49-.19-.11-.41-.14-.62-.09-.21,.05-.39,.19-.51,.37l-1.71,2.94c-.43-.17-.88-.29-1.34-.36V.83c0-.22-.09-.43-.24-.59-.16-.16-.37-.24-.59-.24s-.43,.09-.59,.24c-.16,.16-.24,.37-.24,.59v3.4c-.46,.06-.91,.18-1.34,.36l-1.7-2.94c-.11-.18-.3-.32-.51-.37-.21-.05-.43-.02-.62,.09-.19,.11-.33,.29-.38,.49-.06,.21-.03,.43,.07,.62l1.7,2.94c-.36,.28-.68,.6-.96,.96l-2.94-1.71c-.09-.06-.2-.1-.31-.11-.11-.02-.22-.01-.33,.02-.11,.03-.21,.08-.3,.14-.09,.07-.16,.15-.22,.25-.06,.1-.09,.2-.11,.31-.01,.11,0,.22,.03,.33,.03,.11,.08,.21,.15,.29,.07,.09,.16,.16,.25,.21l2.94,1.7c-.17,.43-.29,.88-.36,1.34H.83c-.22,0-.43,.09-.59,.24-.16,.16-.24,.37-.24,.59s.09,.43,.24,.59c.16,.16,.37,.24,.59,.24h3.4c.06,.46,.18,.91,.36,1.34l-2.94,1.7c-.1,.05-.18,.12-.25,.21s-.12,.19-.15,.29c-.03,.11-.04,.22-.03,.33,.01,.11,.05,.22,.11,.31,.06,.1,.13,.18,.22,.25,.09,.07,.19,.12,.3,.14,.11,.03,.22,.03,.33,.02,.11-.02,.22-.06,.31-.11l2.94-1.71c.28,.36,.6,.68,.96,.96l-1.7,2.94c-.1,.19-.13,.41-.07,.62,.06,.21,.2,.39,.38,.49,.19,.11,.41,.14,.62,.09,.21-.05,.39-.19,.51-.37l1.7-2.94c.43,.17,.88,.29,1.34,.36v3.4c0,.22,.09,.43,.24,.59,.16,.16,.37,.24,.59,.24s.43-.09,.59-.24c.16-.16,.24-.37,.24-.59v-3.4c.46-.07,.91-.19,1.34-.36l1.7,2.94c.11,.18,.3,.32,.51,.37,.21,.05,.43,.02,.62-.09s.33-.29,.38-.49c.06-.21,.03-.43-.07-.62l-1.7-2.94c.35-.28,.68-.6,.96-.96l2.94,1.71c.09,.06,.2,.1,.31,.11,.11,.02,.22,.01,.33-.02,.11-.03,.21-.08,.3-.14,.09-.07,.16-.15,.22-.25,.06-.1,.09-.2,.11-.31,.01-.11,0-.22-.03-.33-.03-.11-.08-.21-.15-.29-.07-.09-.16-.16-.25-.21l-2.94-1.7c.17-.43,.29-.88,.36-1.34h3.4c.22,0,.43-.09,.59-.24,.16-.16,.24-.37,.24-.59s-.09-.43-.24-.59c-.16-.16-.37-.24-.59-.24Zm-9.17,5c-5.51-.18-5.51-8.16,0-8.33,5.51,.18,5.5,8.16,0,8.33Z"/>
</svg>