<?xml version="1.0" encoding="UTF-8"?>
<svg id="e52c7836-7ddc-4cf9-b65e-05bac7fe6e86" xmlns="http://www.w3.org/2000/svg" viewBox="0 0 52.22 50.13">
  <defs>
    <style>
      .cls-1 {
        fill: #00a5ff;
        stroke: #00a5ff;
        stroke-linecap: round;
        stroke-linejoin: round;
        stroke-width: 1.5px;
      }
    </style>
  </defs>
  <path class="cls-1" d="M34.28,11.25c6.18,2.7,10.79-6.91,4.95-10.05-2.19-.98-4.77-.32-6.21,1.58-.31,.4-.25,.98,.15,1.31,.39,.31,.95,.26,1.28-.12,2.82-3.31,7.04-.17,5.18,3.68-1.47,3.15-5.88,2.91-6.16-.64-.04-.51-.48-.89-1-.85-.51,.04-.89,.48-.85,.99,.09,1.74,1.1,3.31,2.66,4.1h0Z"/>
  <path class="cls-1" d="M24.59,37.01l2.59-5.06,2.88,4.18c.24,.3,.17,1.53,.23,1.88,.04,.51,.48,.89,.99,.85,.5-.04,.88-.46,.85-.96l-.08-1.44c-.03-.5-.19-.98-.46-1.39l-6.64-9.63c-.35-.51-.38-1.17-.07-1.69l3.33-5.93c.45-.81,.17-1.83-.65-2.29-.11-.06-.23-.11-.35-.15-.75-.18-1.85-.73-2.56-.18l-5.78,3.59c-.44,.26-1.02,.11-1.28-.33-.23-.4-.14-.92,.23-1.2l4.81-3.68c1.29-.97,2.92-1.36,4.5-1.06l3.85,.73c1.66,.31,3.17,1.17,4.29,2.43l3.47,3.87c.79,.89,1.97,1.33,3.16,1.17l3.43-.48c.38-.06,.72,.21,.78,.59,.05,.32-.14,.63-.44,.74l-5.45,1.76c-.56,.19-1.18,.06-1.63-.31l-2.81-2.31c-.72-.59-1.79-.49-2.38,.23-.09,.12-.18,.25-.24,.39l-2.21,5.08c-.27,.63-.19,1.35,.2,1.91l4.4,6.2c.12,.17,.17,.38,.15,.58l-.59,6.82c-.16,1.01,.71,1.99,1.22,2.76h-4.13l.23-1.68c0-.46,0-.92-.05-1.38-.04-.51-.48-.9-.99-.86-.5,.04-.88,.46-.86,.96l.06,.89v.15l-.3,2.12c-.11,.79,.44,1.51,1.22,1.62,.06,0,.13,0,.19,.02h5.41c.8,0,1.44-.66,1.43-1.45,0-.28-.08-.55-.24-.78l-1.27-1.86c-.07-.1-.1-.23-.09-.36l.59-6.82c.06-.64-.11-1.28-.48-1.81l-4.4-6.21s-.03-.06,0-.1l2.12-4.87,2.64,2.17c.94,.79,2.21,1.04,3.38,.66l3.56-1.15-5.05,21.46c-.11,.5,.2,.99,.7,1.1,.49,.11,.97-.19,1.09-.68l5.31-22.57c1.3-.53,1.92-2.01,1.39-3.3-.44-1.07-1.56-1.71-2.7-1.55l-3.43,.48c-.56,.08-1.14-.13-1.52-.56l-3.47-3.87c-1.4-1.56-3.27-2.61-5.32-3.01l-3.85-.73c-2.1-.39-4.26,.13-5.96,1.42l-4.79,3.67L2.23,4.49c-.41-.31-.99-.22-1.3,.19-.3,.4-.23,.96,.16,1.28l14.6,11.36c-.25,.92,0,1.9,.66,2.59,.92,.95,2.37,1.15,3.5,.46l5.69-3.54,.94,.27-3.23,5.74c-.65,1.15-.58,2.56,.17,3.66l2.56,3.71-3.05,5.96c-.24,.48-.74,.77-1.28,.75l-6.64-.24c-1.19-.08-1.74,1.22-2.31,2.02l-1.91-3.85,7.93-1.06c.95-.13,1.81-.68,2.31-1.49l1.75-2.81c.27-.44,.12-1.01-.31-1.27-.43-.26-.98-.13-1.26,.29l-1.75,2.81c-.22,.35-.58,.58-.99,.64l-8.18,1.09c-.93,.13-1.56,.99-1.43,1.92,.03,.18,.07,.34,.15,.49l2.15,4.34c.42,.83,1.44,1.16,2.27,.74,.25-.13,.46-.31,.63-.55l.98-1.45,6.54,.23c1.26,.05,2.43-.64,3-1.76h0Z"/>
  <path class="cls-1" d="M15.62,46.36h-1.24c-.9,0-1.71-.52-2.1-1.33L4.18,27.92c-.22-.46-.78-.65-1.24-.43-.45,.22-.64,.76-.44,1.21l8.09,17.11c.69,1.45,2.17,2.39,3.78,2.39h1.24c.51,0,.92-.43,.92-.94s-.41-.91-.92-.92Z"/>
  <path class="cls-1" d="M51.09,45.35c-.42-.3-.99-.2-1.29,.2h0l-.73,1.02c-.44,.6-1.14,.96-1.89,.96H24.92c-.51,0-.92,.43-.92,.94s.41,.91,.92,.92h22.26c1.34,0,2.6-.65,3.39-1.73l.73-1.02c.3-.42,.2-.99-.2-1.3h0Z"/>
</svg>