<?xml version="1.0" encoding="UTF-8"?>
<svg id="Vrstva_1" data-name="Vrstva 1" xmlns="http://www.w3.org/2000/svg" viewBox="0 0 17.65 17.15">
  <defs>
    <style>
      .cls-1 {
        fill: #002fe0;
      }
    </style>
  </defs>
  <path class="cls-1" d="M1.97,3.29l-.32-1.33c-.09-.4-.45-.67-.85-.65C.27,1.33-.1,1.83,.03,2.34l.83,3.44c.11,.45,.56,.72,1,.62l3.44-.82c1.08-.26,.69-1.89-.39-1.62l-1.65,.4c1.14-1.45,2.83-2.46,4.81-2.67,3.92-.42,7.42,2.41,7.84,6.33,.09,1.14,1.82,.96,1.66-.18C17.08,3.32,13.24-.05,8.34,0,5.47,.28,3.38,1.52,1.97,3.29ZM12.33,11.55c-1.13,.23-.72,1.93,.39,1.62l1.65-.4c-1.14,1.45-2.83,2.45-4.81,2.66-3.92,.42-7.42-2.4-7.84-6.32-.04-.44-.41-.77-.85-.76-.49,.01-.87,.45-.81,.94,.51,4.82,4.85,8.32,9.67,7.81,2.42-.26,4.51-1.5,5.92-3.26l.32,1.33c.2,1.17,1.96,.74,1.62-.39l-.83-3.44c-.09-.4-.46-.67-.94-.63l-3.5,.84Z"/>
</svg>