<?xml version="1.0" encoding="UTF-8"?>
<svg id="Outline" xmlns="http://www.w3.org/2000/svg" viewBox="0 0 495.03 479">
  <defs>
    <style>
      .cls-1 {
        fill: #002fe0;
        stroke: #002fe0;
        stroke-miterlimit: 10;
        stroke-width: 15px;
      }
    </style>
  </defs>
  <path class="cls-1" d="M463.5,408.51c.01-.34,.02-.67,.02-1.01-.02-17.66-14.34-31.98-32-32V227.5l28.8-21.6c3.53-2.65,4.25-7.67,1.6-11.2-.47-.63-1.04-1.19-1.68-1.66l-68.72-50.22V55.5c4.42,0,8-3.58,8-8V15.5c0-4.42-3.58-8-8-8h-80c-4.42,0-8,3.58-8,8V47.5c0,4.42,3.58,8,8,8v28.86l-59.28-43.32c-2.81-2.05-6.63-2.05-9.44,0L34.8,193.04c-3.57,2.61-4.35,7.61-1.74,11.18,.47,.64,1.03,1.2,1.66,1.68l28.8,21.6v148c-17.66,.02-31.98,14.34-32,32,0,.33,0,.67,.02,1.01-17.12,4.4-27.42,21.84-23.02,38.96,3.64,14.15,16.4,24.04,31.01,24.03H455.52c17.67,0,32.01-14.31,32.01-31.99,0-14.61-9.88-27.37-24.03-31.01ZM319.52,23.5h64v16h-64V23.5Zm8,72V55.5h48v75.63l-48.76-35.63h.76Zm-80-38.09l194.55,142.18-18.63,13.97L252.23,89.03c-2.81-2.04-6.61-2.04-9.41,0L71.59,213.55l-18.63-13.97L247.52,57.41ZM23.52,439.5c0-8.74,7.02-15.86,15.76-16h.02c.41,.06,.82,.11,1.24,.13,4.41,.28,8.21-3.07,8.49-7.48,.07-1.1-.09-2.2-.47-3.24-.66-1.73-1.01-3.56-1.04-5.42,.01-8.83,7.17-15.99,16-16v64h-24c-8.83-.01-15.99-7.17-16-16Zm344,16h-96v-176h96v176Zm16,0v-184c0-4.42-3.58-8-8-8h-112c-4.42,0-8,3.58-8,8v184H79.52V227.57L247.52,105.39l168,122.18v227.93h-32Zm72,0h-24v-64c8.83,.01,15.99,7.17,16,16-.02,1.85-.37,3.69-1.04,5.42-1.51,4.15,.63,8.74,4.79,10.25,1.04,.38,2.14,.53,3.24,.47,.42-.03,.83-.08,1.23-.13h.02c8.84,.07,15.95,7.28,15.88,16.12s-7.28,15.95-16.12,15.88h0Z"/>
  <path class="cls-1" d="M215.52,263.5H119.52c-4.42,0-8,3.58-8,8v112c0,4.42,3.58,8,8,8h96c4.42,0,8-3.58,8-8v-112c0-4.42-3.58-8-8-8Zm-8,56h-32v-40h32v40Zm-48-40v40h-32v-40h32Zm-32,56h32v40h-32v-40Zm48,40v-40h32v40h-32Z"/>
  <circle class="cls-1" cx="295.52" cy="359.5" r="8"/>
</svg>