<?xml version="1.0" encoding="UTF-8"?>
<svg id="Vrstva_1" data-name="Vrstva 1" xmlns="http://www.w3.org/2000/svg" viewBox="0 0 471.81 508.8">
  <defs>
    <style>
      .cls-1 {
        fill: #00a5ff;
        stroke: #00a5ff;
        stroke-miterlimit: 10;
        stroke-width: 16px;
      }
    </style>
  </defs>
  <path class="cls-1" d="M406.28,8c-17.58-.06-34.21,7.95-45.11,21.72-10.91,13.77-14.89,31.8-10.8,48.9-23.73-14.62-54.11-12.62-75.72,5l-56.48,45.88-91.97-43.8,4.17-8.33c2.03-4.06,.38-8.99-3.68-11.02-4.06-2.03-8.99-.38-11.02,3.68l-4.33,8.6-25.89-12.32c-2.68-1.52-5.97-1.42-8.55,.26s-3.99,4.65-3.69,7.71,2.3,5.68,5.17,6.8l25.6,12.2-4.79,9.57c-2.03,4.06-.38,9,3.68,11.02s8.99,.38,11.02-3.68l4.93-9.86,85.21,40.62-14.34,11.66c-5.01,4.09-9.24,9.04-12.49,14.61-11.48,24.2-3.5,53.16,18.75,68.06l78.01,49.96-80.95,35.99c-13.48,5.8-21.7,19.59-20.41,34.19l-102.84-62.71c-2.5-1.56-5.66-1.67-8.26-.26s-4.24,4.1-4.3,7.05c-.06,2.95,1.46,5.71,4,7.23l301.63,183.95c24.01,14.76,54.61,13.3,77.1-3.7,3.63-2.72,4.36-7.87,1.64-11.5-2.71-3.63-7.86-4.36-11.49-1.65-17.12,12.93-40.42,14.03-58.69,2.81l-154.59-94.29c.53-.2,1.11-.3,1.65-.53l115.51-51.37c22.81-10.28,33.31-36.84,23.72-59.95-3.56-8.56-9.67-15.82-17.5-20.8l-61.69-43.52,21.35-10.67,28.89,20.09,25.46,17.73c12.45,8.93,29.35,8.42,41.24-1.25l27.92,13.27c2.65,1.26,5.77,1.01,8.19-.65,2.42-1.67,3.76-4.49,3.53-7.41s-2.01-5.51-4.65-6.77l-25.56-12.18c1.95-5.15,2.55-10.71,1.75-16.17-1.38-8.9-6.33-16.85-13.72-22.01l-21.9-15.2,2.46-.52c8.86-1.92,14.5-10.66,12.58-19.52l-4.93-22.71c-.44-2.05-1.14-4.01-1.76-6.01,21.13,11.23,47,8.2,64.96-7.6,17.96-15.8,24.26-41.08,15.79-63.46-8.47-22.34-29.9-37.14-53.81-37.13Zm-22.84,185.65c3.71,2.58,6.18,6.56,6.86,11.02,.67,4.46-.52,9-3.29,12.56-5.93,6.84-16.12,7.99-23.43,2.63l-19.93-13.88-12.04-8.37-26.42-18.37h-.04l-7.53-5.24c-3.42-2.37-5.8-5.96-6.68-10.03l-3.15-14.59c-.92-4.25-.13-8.71,2.23-12.38s6.07-6.25,10.34-7.16l16.66-3.61c4.43-.96,7.25-5.32,6.29-9.76s-5.32-7.26-9.76-6.29l-16.66,3.61c-17.72,3.85-28.98,21.31-25.18,39.04l3.14,14.6c1.47,6.63,4.97,12.64,9.99,17.2l-16.84,8.43c-.96,.48-1.83,1.16-2.54,1.96-3.14,3.63-4.53,8.44-3.83,13.19,.65,4.59,3.24,8.69,7.12,11.23l62.29,43.97c5.13,3.21,9.14,7.93,11.49,13.51,6.16,14.85-.59,31.92-15.25,38.53l-115.54,51.43c-4.12,1.83-8.82,1.89-12.98,.15s-7.43-5.1-9.04-9.32c-2.78-8.63,1.55-17.96,9.94-21.41l80.95-36.04c5.52-2.45,9.24-7.75,9.69-13.76s-2.44-11.81-7.52-15.06l-78.01-49.95c-15.01-10.23-20.57-29.73-13.22-46.35,2.23-3.72,5.1-7.02,8.47-9.75l84.94-68.97c19.57-15.99,48.08-14.52,65.9,3.39,7.12,7.11,12.04,16.13,14.15,25.98l4.93,22.71-11.66,2.46c-4.8,1.03-8.54,4.81-9.5,9.63-.96,4.82,1.03,9.75,5.06,12.54l29.54,20.57,.03-.04Zm22.84-87.11c-22.68,0-41.06-18.38-41.06-41.05s18.38-41.06,41.06-41.06,41.06,18.38,41.06,41.06c-.03,22.67-18.39,41.03-41.06,41.05Z"/>
  <path class="cls-1" d="M81.91,237.93c3.67,0,6.88-2.43,7.9-5.94,1.01-3.52-.43-7.29-3.54-9.23L20.58,181.7c-3.86-2.41-8.93-1.22-11.33,2.63-2.41,3.86-1.23,8.93,2.63,11.33l65.69,41.06c1.31,.8,2.81,1.22,4.34,1.21Z"/>
  <path class="cls-1" d="M69.35,195.62l65.69,41.06c3.85,2.41,8.93,1.22,11.33-2.63,2.41-3.86,1.23-8.93-2.63-11.33l-65.69-41.05c-3.85-2.41-8.93-1.23-11.33,2.63-2.41,3.85-1.22,8.93,2.63,11.33h0Z"/>
</svg>