<?xml version="1.0" encoding="UTF-8"?>
<svg id="Leafs" xmlns="http://www.w3.org/2000/svg" viewBox="0 0 330.51 352.52">
  <defs>
    <style>
      .cls-1 {
        fill: #5cae13;
        stroke: #5cae13;
        stroke-miterlimit: 10;
        stroke-width: 9px;
      }
    </style>
  </defs>
  <path class="cls-1" d="M321.16,61.89h0c-1.53-9.62-9.96-16.81-19.68-16.81h-.19c-60.43,.63-118.71,22.18-165.02,60.77-1.44-16.95-6.28-33.47-14.27-48.61-10.91-20.64-27.35-37.88-47.41-49.85h0c-8.09-4.84-18.2-3.5-24.51,3.25h0C19.99,42.69,3.81,84.54,4.52,128.5c.67,42.33,16.95,82.17,45.97,112.78-2.73,10.44-4.79,21.07-6.17,31.89-.57,4.45,2.53,8.52,7.04,9.15,.34,.05,.72,.05,1.06,.05,4.02,0,7.52-2.96,8.04-7.09,1.49-11.25,3.69-22.27,6.66-32.95,.34-.72,.52-1.44,.63-2.21,29.34-102.9,124.25-177.6,233.82-178.75h.05c1.72,0,3.35,1.38,3.64,3.07h0c6.03,38.07,6.23,76.67,.57,114.79-.09,.29-.19,.57-.24,.86-11.25,48.32-42.67,89.6-86.29,113.21-38.45,20.88-83.23,26.34-125.23,15.75,14.18-9.33,27.78-19.59,40.75-30.74,34.24-29.45,63.02-64.26,85.52-103.39,2.25-3.88,.91-8.86-3.02-11.11-3.88-2.25-8.86-.91-11.11,3.02-32.85,56.74-79.83,104.15-135.66,137.58-.24,.09-.43,.24-.67,.38-17.91,10.68-36.68,19.87-56.22,27.54-4.16,1.63-6.28,6.37-4.6,10.53,1.24,3.21,4.31,5.17,7.57,5.17,1.01,0,2.01-.19,2.96-.57,19.34-7.57,37.93-16.57,55.74-26.96,19.83,6.71,40.41,10.05,60.96,10.05,31.31,0,62.5-7.71,90.56-22.99,47.21-25.57,81.41-70.11,94.01-122.25,.29-.67,.52-1.38,.63-2.15,6.17-40.23,6.03-81.02-.34-121.25h.02ZM86.27,161.3c-.09-8.72-.48-16.81-1.15-24.57-1.49-16.57-4.31-34-8.62-53.4-.95-4.41-5.31-7.14-9.72-6.17-4.41,.95-7.14,5.31-6.17,9.72,4.16,18.68,6.89,35.44,8.29,51.29,1.34,15.18,1.49,31.89,.38,52.43-5.17,10.44-9.67,21.21-13.41,32.32C6.82,164.41,8.5,78.55,61.85,21.76h0c1.06-1.15,2.87-1.29,4.36-.43h0c34.91,20.78,55.45,58.42,54.16,98.84-12.83,12.6-24.23,26.38-34.09,41.13h0Z"/>
</svg>