<?xml version="1.0" encoding="UTF-8"?>
<svg id="Icons" xmlns="http://www.w3.org/2000/svg" viewBox="0 0 499.34 413.92">
  <defs>
    <style>
      .cls-1 {
        fill: #5cae13;
        stroke: #5cae13;
        stroke-linecap: round;
        stroke-miterlimit: 10;
        stroke-width: 15px;
      }
    </style>
  </defs>
  <path class="cls-1" d="M270.41,91.47h-.48c-3.81-.25-6.7-3.54-6.46-7.35,0-.09,.01-.17,.02-.26l.83-11.97c-29.82,3.46-46.36-5.81-55.35-14.74-5.12-5.13-6.93-12.69-4.7-19.58,2.09-7.12,8-12.47,15.29-13.84l78.53-14.6c11.91-2.29,23.7,4.52,27.68,15.98l14.53,41.51c1.28,3.61-.61,7.58-4.22,8.86-3.61,1.28-7.58-.61-8.86-4.22h0l-14.53-41.51c-1.79-5.04-7.01-7.99-12.25-6.92l-78.05,14.88c-2.21,.43-4,2.06-4.64,4.22-.71,1.99-.19,4.2,1.31,5.67,10.45,10.59,28.23,13.84,51.55,9.55,2.09-.37,4.23,.25,5.81,1.66,1.61,1.41,2.47,3.47,2.35,5.6l-1.38,20.76c-.33,3.6-3.37,6.35-6.99,6.3h0Z"/>
  <path class="cls-1" d="M308.67,138.65c-3.81-.25-6.7-3.55-6.44-7.36,.17-2.61,1.81-4.91,4.23-5.92l57.01-19.65c6.88-2.33,10.61-9.76,8.37-16.67l-2.91-9.06c-2.13-6.7-9.09-10.6-15.91-8.93l-101.09,24.7c-3.65,1.13-7.53-.91-8.65-4.57s.91-7.53,4.57-8.65c.27-.08,.55-.15,.84-.2l101.02-24.84c13.92-3.44,28.12,4.52,32.45,18.2l2.91,8.99c4.39,14.03-3.19,29-17.09,33.76l-57.01,19.65c-.72,.31-1.5,.5-2.28,.55h0Z"/>
  <path class="cls-1" d="M311.92,188.82c-2.76,0-5.26-1.62-6.37-4.15-1.53-3.5,.06-7.58,3.56-9.12,.01,0,.03-.01,.04-.02l55.97-24.29c6.39-2.93,9.42-10.31,6.92-16.88l-1.11-3.11c-2.72-6.62-10.04-10.07-16.88-7.96l-43.52,15.01c-3.8,.41-7.21-2.34-7.62-6.14-.3-2.77,1.1-5.46,3.54-6.8l43.52-15.01c14.01-5.08,29.49,2.16,34.56,16.17,.01,.03,.02,.06,.03,.09l1.18,3.04c5.11,13.6-1.34,28.81-14.67,34.59l-56.04,24.29c-1,.35-2.07,.45-3.11,.28h0Z"/>
  <path class="cls-1" d="M329.77,236.07c-3.82-.02-6.9-3.13-6.88-6.95,.01-2.53,1.41-4.85,3.63-6.05l52.24-27.68c6.11-3.23,8.73-10.6,6.02-16.95l-2.01-4.64c-1.43-3.29-4.09-5.89-7.4-7.26-3.29-1.31-6.95-1.31-10.24,0l-39.37,16.88c-3.52,1.53-7.6-.08-9.13-3.6s.08-7.6,3.6-9.13l39.16-16.95c13.82-5.97,29.87,.4,35.83,14.22,.02,.06,.05,.12,.07,.17l2.01,4.84c5.52,12.96,.2,27.99-12.25,34.59l-52.24,27.68c-.94,.51-1.98,.79-3.04,.83Z"/>
  <path class="cls-1" d="M105.46,406.42c-3.82,.03-6.94-3.05-6.97-6.87-.02-2.51,1.32-4.83,3.51-6.07l146.4-84.34,139.62-73.06c6.52-3.41,9.08-11.43,5.74-17.99-1.64-3.16-4.48-5.53-7.89-6.57-3.42-1.11-7.15-.76-10.31,.97l-37.09,19.79c-3.24,2.03-7.51,1.04-9.54-2.19-2.03-3.24-1.04-7.51,2.19-9.54,.27-.17,.55-.32,.84-.45l37.09-19.86c13.3-7.05,29.8-1.99,36.86,11.31,.03,.06,.06,.12,.09,.17,6.92,13.28,1.76,29.66-11.52,36.58-.01,0-.02,.01-.03,.02l-139.42,72.93-146.2,84.27c-1.03,.59-2.2,.9-3.39,.9h0Z"/>
  <path class="cls-1" d="M160.95,74.79c-1.03,0-2.05-.24-2.98-.69-3.43-1.65-4.88-5.76-3.25-9.2l20.76-43.38c4.56-9.54,14.69-15.11,25.18-13.84l66.01,7.82c3.82,.44,6.56,3.89,6.12,7.71-.44,3.82-3.89,6.56-7.71,6.12l-66.08-7.75c-4.58-.49-8.98,1.94-11,6.09l-20.76,43.38c-1.21,2.34-3.66,3.79-6.3,3.74Z"/>
  <path class="cls-1" d="M197.27,137.82c-3.37,0-6.72-.59-9.89-1.73l-67.39-24.56c-15.17-5.58-22.94-22.41-17.36-37.58,.04-.11,.08-.23,.13-.34l1.8-4.7c2.74-7.34,8.36-13.24,15.57-16.33,7.18-3.18,15.34-3.33,22.62-.42l66.56,26.57c14.79,5.97,22.1,22.65,16.47,37.57l-1.11,2.84c-4.42,11.27-15.29,18.69-27.4,18.68h0ZM117.5,73.69l-1.8,4.77c-1.52,3.82-1.39,8.1,.35,11.83,1.79,3.82,5.06,6.75,9.06,8.1l67.25,24.7c7.92,2.82,16.65-1.16,19.72-8.99l1.11-2.84c2.98-7.89-.89-16.71-8.72-19.86l-66.91-26.5c-3.81-1.59-8.09-1.59-11.9,0-3.78,1.63-6.73,4.73-8.16,8.58v.21Z"/>
  <path class="cls-1" d="M185.79,181.21c-2.91,0-5.8-.44-8.58-1.31l-69.19-21.17c-15.46-4.72-24.16-21.08-19.44-36.54,.21-.67,.44-1.34,.69-2l1.25-3.81c5.8-14.84,22.39-22.34,37.36-16.88l68.01,24.98c15.17,5.58,22.95,22.4,17.37,37.57-4.22,11.47-15.11,19.11-27.33,19.17h-.14ZM117.71,111.53c-6.36,0-12.08,3.9-14.39,9.82l-1.52,3.81c-3.06,7.99,.95,16.95,8.94,20.01,.31,.12,.63,.23,.95,.33l69.54,21.38c8.08,2.71,16.83-1.64,19.55-9.72,2.71-8.08-1.64-16.83-9.72-19.55h0l-68.08-24.91c-1.66-.73-3.45-1.13-5.26-1.18Z"/>
  <path class="cls-1" d="M176.45,227.15h-2.7c-27-2.61-53.15-10.89-76.73-24.29-14.29-8.26-19.19-26.54-10.93-40.83,6.97-12.06,21.34-17.71,34.66-13.62l64.35,19.58c15.82,4.84,24.72,21.6,19.88,37.42-.09,.31-.19,.61-.3,.91v.76c-4.13,12.05-15.49,20.13-28.23,20.06h0Zm-64.35-66.35c-6.48,.16-12.24,4.16-14.67,10.17-2.94,7.38,.02,15.79,6.92,19.72,21.73,12.34,45.78,20.02,70.64,22.56,7.28,.6,14.02-3.86,16.33-10.79v-.76c2.95-8.4-1.48-17.6-9.88-20.55-.21-.07-.42-.14-.64-.21l-64.35-19.58c-1.42-.39-2.89-.58-4.36-.55h0Z"/>
  <path class="cls-1" d="M145.38,256.83c-14.89-.06-29.68-2.4-43.87-6.92-13.76-4.33-21.66-18.73-17.92-32.66,1.91-7.81,7.18-14.37,14.39-17.92,7.02-3.44,15.19-3.62,22.35-.48,14.73,6.61,30.31,11.12,46.29,13.42,11.57,1.61,19.7,12.21,18.27,23.8-1.1,9.14-7.98,16.53-17.02,18.27-7.41,1.49-14.93,2.32-22.49,2.49h0Zm-35.63-46.36c-1.94,0-3.86,.45-5.6,1.31-3.49,1.77-6.02,4.98-6.92,8.79-1.63,6.55,2,13.27,8.37,15.5,19.29,6.33,39.82,7.9,59.85,4.57,3.11-.67,5.43-3.27,5.74-6.43,.49-4.09-2.36-7.83-6.43-8.44-17.25-2.44-34.07-7.31-49.95-14.46-1.61-.62-3.33-.9-5.05-.83Z"/>
  <path class="cls-1" d="M14.41,299.31c-2.5,0-4.8-1.35-6.02-3.53-1.87-3.33-.69-7.53,2.63-9.41l89.18-49.54c3.34-1.91,7.6-.75,9.51,2.59s.75,7.6-2.59,9.51l-89.32,49.4c-1.04,.59-2.2,.92-3.39,.97h0Z"/>
  <path class="cls-1" d="M484.89,303.81c-1.11-.02-2.2-.3-3.18-.83l-99.08-51.62c-3.51-1.51-5.13-5.59-3.61-9.09,1.51-3.51,5.59-5.13,9.09-3.61,.31,.13,.6,.29,.88,.46l99.08,51.62c3.4,1.74,4.75,5.91,3,9.31-1.19,2.32-3.58,3.77-6.19,3.76Z"/>
  <path class="cls-1" d="M410.17,405.17c-1.11-.02-2.2-.3-3.18-.83l-158.3-83.03c-3.26-1.77-4.54-5.8-2.91-9.13,1.78-3.38,5.96-4.68,9.34-2.91l158.3,83.03c3.4,1.74,4.75,5.91,3.01,9.31-1.2,2.34-3.63,3.8-6.26,3.76v-.21Z"/>
</svg>