<?xml version="1.0" encoding="UTF-8"?>
<svg id="Vrstva_1" data-name="Vrstva 1" xmlns="http://www.w3.org/2000/svg" viewBox="0 0 33.33 33.33">
  <defs>
    <style>
      .cls-1 {
        fill: #002fe0;
      }
    </style>
  </defs>
  <g id="tyden">
    <path id="Vector" class="cls-1" d="M26.39,2.78h-1.39V1.39c0-.77-.62-1.39-1.39-1.39s-1.39,.62-1.39,1.39v1.39H11.11V1.39c0-.77-.62-1.39-1.39-1.39s-1.39,.62-1.39,1.39v1.39h-1.39C3.12,2.78,0,5.89,0,9.72V26.39c0,3.83,3.12,6.94,6.94,6.94H26.39c3.83,0,6.94-3.12,6.94-6.94V9.72c0-3.83-3.12-6.94-6.94-6.94ZM6.94,5.56H26.39c2.3,0,4.17,1.87,4.17,4.17v1.39H2.78v-1.39c0-2.3,1.87-4.17,4.17-4.17ZM26.39,30.56H6.94c-2.3,0-4.17-1.87-4.17-4.17V13.89H30.56v12.5c0,2.3-1.87,4.17-4.17,4.17Z"/>
    <path id="Union" class="cls-1" d="M23.33,18.33c0,.92-.75,1.67-1.67,1.67s-1.67-.75-1.67-1.67,.75-1.67,1.67-1.67,1.67,.75,1.67,1.67Z"/>
    <circle id="Ellipse_4" data-name="Ellipse 4" class="cls-1" cx="26.67" cy="18.33" r="1.67"/>
  </g>
</svg>