<?xml version="1.0" encoding="UTF-8"?>
<svg id="Vrstva_1" data-name="Vrstva 1" xmlns="http://www.w3.org/2000/svg" viewBox="0 0 358.55 441.91">
  <defs>
    <style>
      .cls-1 {
        fill: #00a5ff;
        stroke: #00a5ff;
        stroke-linecap: round;
        stroke-linejoin: round;
        stroke-width: 11px;
      }
    </style>
  </defs>
  <g id="Layer_12" data-name="Layer 12">
    <path class="cls-1" d="M316.67,248.77c-13.6,0-27.08,2.71-39.61,8.01l-28.26,11.91v-19.93c.04-10.6-3.97-20.82-11.19-28.58l-37.47-43.51v-2.45l27.99,10c3.68,1.31,7.56,1.98,11.46,1.98,12.76,0,23.1-10.35,23.1-23.12,0-9.93-6.37-18.77-15.79-21.91l-46.75-15.58v-.39c26.55-14.7,56.39-22.41,86.74-22.4h45.32c3.84,0,6.95-3.11,6.95-6.95,0-1.84-.73-3.6-2.03-4.91l-41.71-41.71c-1.3-1.3-3.07-2.03-4.92-2.03h-4.87c-36.47-.05-72.58,7.02-106.34,20.78v-13.83c0-26.88-21.78-48.66-48.66-48.66s-48.66,21.78-48.66,48.66v13.9c0,7.48,1.77,14.86,5.11,21.54-11.13,2.63-18.99,12.57-19.01,24,0,.55,.07,1.08,.1,1.63l-28.31,18.85c-12.79,8.51-20.47,22.86-20.44,38.23v45.18c0,13.43,10.89,24.33,24.33,24.33s24.33-10.89,24.33-24.33v-31.28c.05-5.88,2.58-11.45,6.95-15.37v57.07c0,10.31,2.69,20.45,7.81,29.41l14.01,24.52c3.91,6.86,5.97,14.62,5.98,22.52v29.66l-75.44,32.74c-18.41,7.98-26.87,29.37-18.88,47.77,5.76,13.29,18.86,21.88,33.34,21.88,13.67,.02,27.19-2.82,39.7-8.34l249.73-109.62c18.41-8.07,26.77-29.53,18.7-47.93-5.8-13.22-18.88-21.76-33.32-21.76h0l.02,.02Zm-151.36,40.71l-5.44-38.04,24.96,7.14c4.92,1.42,8.32,5.91,8.34,11.04v23.82l-27.8,12.51v-15.49c0-.33-.03-.66-.07-.99h0Zm-11.25,70.36l3.32,6.62c2.45,4.9,.47,10.87-4.43,13.32-1.37,.68-2.89,1.06-4.43,1.06-8.64-.03-16.66-4.55-21.13-11.95l-4.49-7.51c-1.6-2.72-2.89-5.6-3.87-8.61,11.23,4.22,23.05,6.62,35.04,7.09h0Zm15.76,.39l-4.44-8.87v-30.18l29.2-13.14c1.53,6.72,4.54,13.03,8.81,18.45l10.96,13.71c3.13,3.93,7.09,7.11,11.59,9.33l-53.84,23.63c.11-.76,.19-1.51,.23-2.27,0-3.7-.87-7.34-2.51-10.65h0Zm71.17-21.14c-6.14,0-11.95-2.78-15.79-7.59l-10.96-13.71c-1.62-2.08-2.98-4.35-4.04-6.76,8.97,4.25,18.71,6.65,28.62,7.07l7.64,7.64c3.07,3.02,3.09,7.96,.08,11.02-1.46,1.48-3.47,2.32-5.55,2.32h0ZM88.94,160.15l17.05-12.78c26.34,8.3,55.04,3.86,77.65-12.01,.86-.6,1.75-1.09,2.6-1.68v43.44c-11.87,18.59-32.38,29.86-54.43,29.95-4.74,0-9.47-.66-14.03-1.97l-28.84-8.24v-36.72h0Zm153.56-5.75c4.82,1.6,7.44,6.81,5.85,11.63-1.25,3.77-4.78,6.31-8.75,6.31-2.31,0-4.6-.4-6.79-1.17l-32.67-11.66v-19.21l42.35,14.12h0ZM130.64,19.41c19.18,.03,34.73,15.57,34.75,34.75v13.9c.06,19.13-15.39,34.68-34.52,34.75-10.96,.04-21.3-5.11-27.85-13.89h13.72c15.35,0,27.8-12.45,27.8-27.8s-12.45-27.8-27.8-27.8h-13.72c6.5-8.73,16.74-13.87,27.62-13.9h0Zm-34.75,48.65v-13.9c0-2.34,.24-4.67,.69-6.95h20.15c7.68,0,13.9,6.22,13.9,13.9s-6.22,13.9-13.9,13.9h-20.15c-.46-2.28-.69-4.61-.69-6.95Zm-3.1,34.75h3.88c19.13,18.78,49.87,18.49,68.64-.65,4.98-5.07,8.77-11.17,11.14-17.87,34.36-15.33,71.57-23.23,109.19-23.2h2.02l27.8,27.8h-28.57c-39.8-.06-78.64,12.18-111.21,35.05-24.32,17.02-56.37,18.15-81.83,2.87l-6.62-3.97c-5.11-3.07-6.78-9.7-3.71-14.81,1.96-3.26,5.48-5.26,9.27-5.25h0v.03Zm-24.7,55.61c-8.73,6.58-13.87,16.87-13.9,27.8v31.28c0,5.76-4.67,10.43-10.43,10.43s-10.43-4.67-10.43-10.43h0v-45.18c0-10.7,5.34-20.71,14.26-26.64l25.61-17.08c1.87,2.48,4.21,4.58,6.88,6.2l6.62,3.97c1.39,.86,2.89,1.65,4.36,2.41l-22.97,17.23h0Zm26.83,92.05c-3.91-6.86-5.97-14.62-5.98-22.52v-16.6l25.02,7.15c5.8,1.66,11.82,2.5,17.84,2.5,24.22-.09,47.06-11.28,61.97-30.37l33.48,38.92c4.91,5.21,7.63,12.09,7.63,19.25v55.14c-10.02-1.2-19.57-4.88-27.8-10.71v-23.58c-.04-11.32-7.53-21.26-18.41-24.4l-35.29-10.08c-3.69-1.06-7.53,1.09-8.58,4.79-.26,.93-.33,1.9-.2,2.86l6.88,48.18v54.68c-12.05-.87-23.83-3.96-34.75-9.14v-32.13c0-10.31-2.69-20.45-7.81-29.41l-14.01-24.52h0Zm-18.93,164.92c-10.74,4.73-22.37,7.17-34.12,7.16-12.39,0-22.44-10.04-22.43-22.44,0-8.93,5.3-17.01,13.49-20.57l70.84-30.74c1.16,6.97,3.61,13.66,7.22,19.72l4.49,7.51c3.9,6.43,9.61,11.57,16.4,14.8l-55.9,24.55h.02Zm249.72-109.59l-63.25,27.76c.07-.69,.22-1.39,.22-2.17,.02-5.76-2.27-11.28-6.35-15.34l-7.52-7.58v-24.66l33.64-14.17c10.83-4.59,22.46-6.96,34.23-6.95,12.42-.05,22.51,9.99,22.55,22.4,.04,8.97-5.29,17.11-13.52,20.7h0Z"/>
  </g>
</svg>