<svg width="124" height="30" viewBox="0 0 124 30" fill="none" xmlns="http://www.w3.org/2000/svg">
<g id="Group">
<g id="Group_2">
<path id="Vector" d="M0.0644531 26.6496C0.0644531 27.994 1.05367 29.3982 3.57166 29.3982H14.423C16.5513 29.3982 17.6604 28.5617 17.6604 26.56V26.2612C17.6604 24.1699 16.5513 23.423 14.423 23.423H9.56688L15.8619 16.9399C16.881 15.8942 17.5705 15.207 17.5705 13.1157V12.8169C17.5705 11.4725 16.5813 10.0684 14.0633 10.0684H3.57166C1.47334 10.0684 0.364214 10.9049 0.364214 12.9066V13.2054C0.364214 15.2967 1.47334 16.0436 3.57166 16.0436H7.88821L1.7731 22.5267C0.813865 23.5425 0.0644531 24.2595 0.0644531 26.3508V26.6496Z" fill="black"/>
<path id="Vector_2" d="M20.0585 28.6811C21.2576 29.3981 23.266 29.8462 26.3235 29.8462C32.7384 29.8462 35.736 27.5458 35.736 23.0345C35.736 19.5689 32.9483 17.8958 28.9015 17.0294C27.1629 16.6709 25.784 16.641 25.784 15.9837C25.784 15.3862 26.2936 15.1472 27.7324 15.1472C29.3811 15.1472 31.4195 15.924 32.8283 16.9995C32.9782 17.119 35.2864 15.3563 35.2864 13.4144C35.2864 12.3388 34.7468 11.4127 33.5178 10.7255C32.2888 10.0384 30.4003 9.62012 27.6425 9.62012C21.7972 9.62012 18.7995 12.0102 18.7995 16.2825C18.7995 20.3456 22.1569 21.69 25.4842 22.3473C27.1329 22.676 28.3319 22.7357 28.3319 23.4826C28.3319 24.0802 27.7924 24.3192 26.3235 24.3192C24.525 24.3192 21.947 23.3631 20.6281 22.437C20.3883 22.2577 18.3799 24.1698 18.3799 25.813C18.3799 26.9184 18.8295 27.9342 20.0585 28.6811Z" fill="black"/>
</g>
<path id="Vector_3" fill-rule="evenodd" clip-rule="evenodd" d="M29.349 2.51044V1.70205C29.349 1.21866 29.5331 0.824533 29.816 0.542553C30.0989 0.260572 30.4944 0.0771484 30.9794 0.0771484C31.4644 0.0771484 31.8598 0.260572 32.1427 0.542553C32.4257 0.824533 32.6097 1.21866 32.6097 1.70205V4.56892L33.9532 5.43109L33.9253 5.41376C34.7339 5.89735 34.9443 6.85359 34.4591 7.65955C33.9739 8.46556 33.0144 8.67524 32.2058 8.19164C32.197 8.18642 32.1883 8.18103 32.1798 8.17555L27.1688 4.97559L21.9221 8.18617L21.9549 8.16524C21.5603 8.42735 21.1854 8.48035 20.854 8.43838C20.3966 8.38052 19.9918 8.11007 19.7195 7.74827C19.2069 7.06709 19.3621 6.043 20.0456 5.53212C20.0708 5.51334 20.0968 5.49567 20.1235 5.47919L26.2804 1.69308L26.2496 1.7128C26.7413 1.38605 27.5609 1.38605 28.0527 1.7128L28.0225 1.69349L29.349 2.51044Z" fill="#FF7C00"/>
<g id="Group_3">
<path id="Vector_4" d="M36.9849 25.3948C36.9849 27.6056 38.7834 29.3982 41.0616 29.3982H45.9777C52.2427 29.3982 56.2894 25.5442 56.2894 19.6287C56.2894 13.773 52.3626 10.0684 46.0676 10.0684H40.7619C38.5736 10.0684 36.9849 11.4426 36.9849 14.1315V25.3948ZM45.7379 23.2139H44.2391V16.2527H45.8278C47.7762 16.2527 49.0952 17.4179 49.0952 19.6287C49.0952 21.8993 47.6564 23.2139 45.7379 23.2139Z" fill="#FF7C00"/>
<path id="Vector_5" d="M67.8604 29.8462C73.9155 29.8462 78.2621 25.6038 78.2621 19.7182C78.2621 13.8625 73.9155 9.62012 67.8604 9.62012C61.8052 9.62012 57.4287 13.8625 57.4287 19.7182C57.4287 25.6038 61.7752 29.8462 67.8604 29.8462ZM67.8604 23.3034C65.852 23.3034 64.623 21.9291 64.623 19.7182C64.623 17.4178 65.822 16.1032 67.8604 16.1032C69.8388 16.1032 71.0678 17.5074 71.0678 19.7182C71.0678 21.9291 69.8388 23.3034 67.8604 23.3034Z" fill="#FF7C00"/>
<path id="Vector_6" d="M79.8804 26.1715C79.8804 28.3824 80.7197 29.5475 82.7281 29.5475H83.9271C86.0255 29.5475 86.7749 28.3824 86.7749 26.1715V20.8835L87.7641 24.4686C88.0638 25.2155 87.854 25.9923 90.5219 25.9923C93.1897 25.9923 93.0698 25.1856 93.3396 24.4686L94.3288 20.5548V26.1715C94.3288 28.3824 95.1682 29.5475 97.1766 29.5475H98.3756C100.474 29.5475 101.223 28.3824 101.223 26.1715V13.2949C101.223 11.0244 100.114 9.91895 98.0159 9.91895H95.9176C94.4487 9.91895 93.6993 10.158 93.0698 11.5621L90.5518 18.1349L88.0339 11.5621C87.4643 10.2775 86.8348 9.91895 85.0662 9.91895H82.9679C80.9595 9.91895 79.8804 11.0244 79.8804 13.2949V26.1715Z" fill="#FF7C00"/>
<path id="Vector_7" d="M106.14 29.7268C107.698 29.7268 109.227 28.8305 110.126 26.3209L110.186 26.1715H115.702L115.732 26.2313C116.751 28.8604 118.37 29.6969 119.899 29.6969C122.087 29.6969 124.065 28.0239 123.796 27.3666L117.441 11.8907C117.111 10.7555 116.302 9.91895 113.004 9.91895C109.707 9.91895 108.748 10.7555 108.418 11.8907L102.393 27.4562C102.153 28.1135 104.161 29.7268 106.14 29.7268ZM111.266 21.0328L112.884 16.6411L114.503 21.0328H111.266Z" fill="#FF7C00"/>
</g>
</g>
</svg>
