<svg width="24" height="24" viewBox="0 0 24 24" fill="none" xmlns="http://www.w3.org/2000/svg">
<path fill-rule="evenodd" clip-rule="evenodd" d="M4.74074 19.1055C5.14984 19.1055 5.48148 19.4372 5.48148 19.8463C5.48148 20.2176 5.78245 20.5185 6.15372 20.5185H18.9176C19.3267 20.5185 19.6583 20.8502 19.6583 21.2593C19.6583 21.6684 19.3267 22 18.9176 22H6.15372C4.96428 22 4 21.0358 4 19.8463C4 19.4372 4.33164 19.1055 4.74074 19.1055Z" fill="#118C8C"/>
<path fill-rule="evenodd" clip-rule="evenodd" d="M4.00004 4.15372C4.00004 2.96428 4.96425 2 6.15376 2H18.5334C19.1547 2 19.6583 2.50365 19.6583 3.12494V18.4333C19.6583 18.8424 19.3267 19.174 18.9176 19.174H6.15372C5.78245 19.174 5.48148 19.475 5.48148 19.8463C5.48148 20.2554 5.14984 20.587 4.74074 20.587C4.33164 20.587 4 20.2554 4 19.8463L4.00004 4.15372L4.74078 4.15372ZM5.48149 17.7995C5.69301 17.7301 5.91898 17.6925 6.15372 17.6925H18.1768V3.48148H6.15376C5.78248 3.48148 5.48152 3.78245 5.48152 4.15372L5.48149 17.7995Z" fill="#118C8C"/>
<path fill-rule="evenodd" clip-rule="evenodd" d="M7.16409 2.20132C7.57319 2.20132 7.90483 2.53296 7.90483 2.94206V18.2307C7.90483 18.6398 7.57319 18.9714 7.16409 18.9714C6.75499 18.9714 6.42335 18.6398 6.42335 18.2307V2.94206C6.42335 2.53296 6.75499 2.20132 7.16409 2.20132Z" fill="#118C8C"/>
<path fill-rule="evenodd" clip-rule="evenodd" d="M12.7142 6.74977C12.9202 6.64859 13.1615 6.64859 13.3674 6.74977L15.9581 8.0224C15.9581 8.0224 15.9581 8.0224 15.9581 8.0224C16.343 8.2115 16.587 8.6031 16.587 9.03211V10.4882C16.587 10.8973 16.2554 11.2289 15.8463 11.2289H10.2354C9.82631 11.2289 9.49467 10.8973 9.49467 10.4882V9.03211C9.49467 8.60316 9.73858 8.2116 10.1235 8.02244L12.7142 6.74977ZM13.0408 8.23991L10.9761 9.25418V9.74742H15.1055V9.25418L13.0408 8.23991Z" fill="#118C8C"/>
<path fill-rule="evenodd" clip-rule="evenodd" d="M15.8463 9.74739C16.2554 9.74739 16.587 10.0791 16.587 10.4882L16.587 13.7581C16.587 14.1672 16.2554 14.4988 15.8463 14.4988C15.4372 14.4988 15.1055 14.1672 15.1055 13.7581V10.4881C15.1055 10.079 15.4372 9.74739 15.8463 9.74739Z" fill="#118C8C"/>
<path fill-rule="evenodd" clip-rule="evenodd" d="M13.0408 9.74739C13.4499 9.74739 13.7816 10.079 13.7816 10.4881V13.7581C13.7816 14.1672 13.4499 14.4988 13.0408 14.4988C12.6317 14.4988 12.3001 14.1672 12.3001 13.7581V10.4881C12.3001 10.079 12.6317 9.74739 13.0408 9.74739Z" fill="#118C8C"/>
<path fill-rule="evenodd" clip-rule="evenodd" d="M10.2354 9.74739C10.6445 9.74739 10.9761 10.079 10.9761 10.4881V13.7581C10.9761 14.1672 10.6445 14.4988 10.2354 14.4988C9.82631 14.4988 9.49467 14.1672 9.49467 13.7581V10.4882C9.49467 10.0791 9.82631 9.74739 10.2354 9.74739Z" fill="#118C8C"/>
<path fill-rule="evenodd" clip-rule="evenodd" d="M9.11792 13.758C9.11792 13.3489 9.44956 13.0173 9.85866 13.0173H16.223C16.6321 13.0173 16.9638 13.3489 16.9638 13.758C16.9638 14.1671 16.6321 14.4988 16.223 14.4988H9.85866C9.44956 14.4988 9.11792 14.1671 9.11792 13.758Z" fill="#118C8C"/>
<path fill-rule="evenodd" clip-rule="evenodd" d="M17.706 17.9747C18.1151 17.9747 18.4467 18.3064 18.4467 18.7155V21.2593C18.4467 21.6684 18.1151 22 17.706 22C17.2969 22 16.9652 21.6684 16.9652 21.2593V18.7155C16.9652 18.3064 17.2969 17.9747 17.706 17.9747Z" fill="#118C8C"/>
</svg>
