<svg width="24" height="24" viewBox="0 0 24 24" fill="none" xmlns="http://www.w3.org/2000/svg">
<path fill-rule="evenodd" clip-rule="evenodd" d="M12 9.52911C10.7005 9.52911 9.64702 8.47564 9.64702 7.17615C9.64702 5.87663 10.7005 4.82316 12 4.82316C13.2995 4.82316 14.353 5.87663 14.353 7.17615C14.353 8.47564 13.2995 9.52911 12 9.52911ZM11.2135 7.17615C11.2135 7.61048 11.5656 7.96264 12 7.96264C12.4344 7.96264 12.7865 7.61048 12.7865 7.17615C12.7865 6.74177 12.4344 6.38963 12 6.38963C11.5656 6.38963 11.2135 6.74177 11.2135 7.17615Z" fill="#118C8C"/>
<path fill-rule="evenodd" clip-rule="evenodd" d="M14.4185 14.8842C15.3206 14.9934 16.1298 15.1637 16.7827 15.3843C17.251 15.5425 17.6835 15.7413 18.0149 15.9944C18.3332 16.2375 18.6877 16.6352 18.6877 17.1955C18.6877 17.8275 18.2414 18.2517 17.8755 18.4961C17.4804 18.76 16.9604 18.967 16.388 19.1287C15.2325 19.4551 13.6814 19.6467 12 19.6467C10.3186 19.6467 8.76749 19.4551 7.61199 19.1287C7.03964 18.967 6.51958 18.76 6.12453 18.4961C5.75859 18.2517 5.31232 17.8275 5.31232 17.1955C5.31232 16.6353 5.66682 16.2375 5.98511 15.9944C6.3165 15.7413 6.74905 15.5425 7.21736 15.3843C7.87025 15.1637 8.67945 14.9934 9.58154 14.8842C9.07815 14.0145 8.53273 13.0321 8.04279 12.0628C7.61907 11.2246 7.23009 10.3829 6.94527 9.6245C6.66909 8.8891 6.45767 8.1481 6.45767 7.54222C6.45767 4.48133 8.93907 2 12 2C15.0609 2 17.5423 4.48133 17.5423 7.54222C17.5423 8.1481 17.3309 8.8891 17.0547 9.6245C16.7699 10.3829 16.381 11.2246 15.9572 12.0628C15.4673 13.0321 14.9219 14.0145 14.4185 14.8842ZM11.5681 15.1694C11.6915 15.375 11.8084 15.5679 11.9168 15.7452C11.955 15.8076 12.0451 15.8076 12.0832 15.7452C12.1915 15.568 12.3083 15.3754 12.4315 15.17C12.4374 15.1598 12.4435 15.1496 12.4498 15.1396C13.082 14.0851 13.8787 12.7024 14.5592 11.3562C14.9697 10.544 15.3312 9.75827 15.5883 9.07377C15.854 8.36628 15.9759 7.84886 15.9759 7.54222C15.9759 5.3465 14.1958 3.56647 12 3.56647C9.80418 3.56647 8.02414 5.3465 8.02414 7.54222C8.02414 7.84886 8.14604 8.36628 8.41174 9.07377C8.6688 9.75827 9.03027 10.544 9.44081 11.3562C10.1214 12.7026 10.9184 14.0856 11.5506 15.1402C11.5566 15.1498 11.5625 15.1596 11.5681 15.1694ZM10.4633 16.3702C9.34508 16.4588 8.3947 16.6399 7.71879 16.8683C7.38162 16.9822 7.14598 17.0969 6.99764 17.1955C7.20055 17.3302 7.5442 17.4818 8.03785 17.6212C9.01933 17.8985 10.4204 18.0803 12 18.0803C13.5796 18.0803 14.9807 17.8985 15.9622 17.6212C16.4558 17.4818 16.7995 17.3302 17.0024 17.1955C16.854 17.0969 16.6184 16.9822 16.2812 16.8683C15.6053 16.6399 14.6549 16.4588 13.5368 16.3702C13.4968 16.436 13.4577 16.5 13.4198 16.5621C12.7708 17.6239 11.2292 17.6239 10.5802 16.5621C10.5423 16.5001 10.5033 16.436 10.4633 16.3702ZM17.1502 17.0722C17.1501 17.0722 17.1497 17.0726 17.149 17.0735C17.1486 17.0741 17.1481 17.0747 17.1476 17.0756C17.147 17.0765 17.1464 17.0775 17.1457 17.0787C17.1492 17.0744 17.1504 17.0722 17.1502 17.0722Z" fill="#118C8C"/>
<path d="M3.99803 18.6936C3.62249 18.392 3.56647 18.1813 3.56647 18.0854C3.56647 17.9435 3.70777 17.5806 4.53308 17.1272C4.9122 16.9189 5.0507 16.4428 4.84243 16.0636C4.63415 15.6845 4.15796 15.546 3.77884 15.7543C2.86405 16.2568 2 17.0206 2 18.0854C2 18.8541 2.45979 19.4673 3.01704 19.9149C3.58153 20.3683 4.35033 20.742 5.23082 21.0412C6.9996 21.6421 9.39285 22 12 22C14.6072 22 17.0004 21.6421 18.7692 21.0412C19.6497 20.742 20.4185 20.3683 20.983 19.9149C21.5402 19.4672 22 18.8541 22 18.0854C22 17.0207 21.136 16.2569 20.2212 15.7543C19.8421 15.546 19.3659 15.6845 19.1576 16.0636C18.9493 16.4428 19.0878 16.9189 19.467 17.1272C20.2922 17.5806 20.4335 17.9435 20.4335 18.0854C20.4335 18.1813 20.3775 18.392 20.002 18.6936C19.6337 18.9894 19.0527 19.2904 18.2653 19.558C16.6983 20.0904 14.4831 20.4335 12 20.4335C9.51689 20.4335 7.30176 20.0904 5.73473 19.558C4.9473 19.2904 4.36634 18.9894 3.99803 18.6936Z" fill="#118C8C"/>
</svg>
