<svg width="152" height="32" viewBox="0 0 152 32" fill="none" xmlns="http://www.w3.org/2000/svg">
<g id="Group">
<g id="Group_2">
<path id="Vector" d="M0.0898438 28.6514C0.0898438 29.995 1.0784 31.3983 3.59481 31.3983H14.4394C16.5663 31.3983 17.6747 30.5623 17.6747 28.5619V28.2633C17.6747 26.1733 16.5663 25.4268 14.4394 25.4268H9.58627L15.8773 18.9478C16.8959 17.9028 17.5849 17.216 17.5849 15.126V14.8275C17.5849 13.4839 16.5963 12.0806 14.0799 12.0806H3.59481C1.4978 12.0806 0.389417 12.9166 0.389417 14.917V15.2156C0.389417 17.3056 1.4978 18.052 3.59481 18.052H7.90868L1.79737 24.5311C0.838737 25.5463 0.0898438 26.2628 0.0898438 28.3529V28.6514Z" fill="black"/>
</g>
<path id="Vector_2" d="M30.9215 11.8831C32.0031 12.0736 32.8592 12.3662 33.523 12.7373C34.7512 13.424 35.2905 14.3496 35.2905 15.4245C35.2905 17.3652 32.9837 19.1268 32.834 19.0074C31.426 17.9325 29.3889 17.1562 27.7412 17.1562C26.3033 17.1562 25.794 17.3951 25.794 17.9922C25.794 18.6491 27.172 18.6789 28.9095 19.0372C32.9538 19.9031 35.7398 21.5751 35.7398 25.0386C35.7398 29.547 32.7441 31.8461 26.3332 31.8461C23.2776 31.8461 21.2704 31.3982 20.0721 30.6816C18.8439 29.9352 18.3945 28.92 18.3945 27.8153C18.3945 26.1732 20.4017 24.2623 20.6413 24.4414C21.9594 25.367 24.5358 26.3224 26.3332 26.3224C27.8011 26.3224 28.3404 26.0836 28.3404 25.4864C28.3404 24.74 27.1421 24.6803 25.4944 24.3519C22.1692 23.695 18.814 22.3514 18.814 18.2908C18.814 15.0753 20.513 12.9268 23.8465 12.062C24.9574 13.1387 26.2191 14.233 27.2923 15.6994C28.4254 14.1513 29.7681 13.0183 30.9215 11.8831Z" fill="black"/>
<path id="Vector_3" d="M27.2958 13.5491C29.4534 10.6013 32.5252 9.46396 32.5252 5.96801C32.5252 2.98142 30.2923 0.756104 27.2958 0.756104C24.3001 0.756104 22.0664 2.98142 22.0664 5.96805C22.0664 9.46351 25.1391 10.6023 27.2958 13.5491ZM27.2958 4.74246C28.0814 4.74246 28.722 5.38086 28.722 6.16392C28.722 6.94663 28.0814 7.58533 27.2958 7.58533C26.51 7.58533 25.8696 6.94663 25.8696 6.16392C25.8696 5.38086 26.51 4.74246 27.2958 4.74246Z" fill="#F2AB27"/>
<g id="Group_3">
<path id="Vector_4" d="M46.4838 31.5475C48.5809 31.5475 49.8091 30.7712 50.6479 28.8006L56.7892 14.469C57.0888 13.7823 54.812 11.9312 52.4454 11.9312C50.8277 11.9312 49.21 12.9762 48.5509 15.3349L46.5738 22.1723L44.5666 15.3349C43.9675 13.2747 42.4396 11.9312 40.5523 11.9312C38.1258 11.9312 35.6992 13.7823 35.9988 14.469L42.3797 28.8006C43.2785 30.8608 44.3868 31.5475 46.4838 31.5475Z" fill="#F2AB27"/>
<path id="Vector_5" d="M64.6982 10.8863C67.8138 10.8863 70.7196 9.30385 70.7196 6.82568C70.7196 5.30296 69.5813 4.19824 68.0235 4.19824C65.0577 4.19824 63.3202 8.07971 63.3202 9.90101C63.3202 10.7072 63.6497 10.8863 64.6982 10.8863ZM66.3758 31.5476H67.4243C69.5214 31.5476 70.6298 30.3832 70.6298 28.1737V23.9639L77.1904 14.7081C77.4001 14.4095 76.0221 11.9612 72.6369 11.9612C71.4386 11.9612 70.2703 12.6479 69.1918 14.5289L66.945 18.3208L64.848 14.5289C63.8594 12.7076 62.6611 11.991 61.4329 11.991C57.6583 11.991 56.43 14.3498 56.6397 14.7081L63.2902 23.9639V28.1737C63.2902 30.3832 64.3687 31.5476 66.3758 31.5476Z" fill="#F2AB27"/>
<path id="Vector_6" d="M81.6834 31.3982H90.0415C92.3183 31.3982 93.4267 30.2935 93.4267 28.2034V28.1139C93.4267 26.1134 92.3183 25.0983 90.0415 25.0983H85.3083V15.3051C85.3083 13.0359 84.1999 11.9312 82.1028 11.9312H81.0543C79.0472 11.9312 77.9688 13.0359 77.9688 15.3051V27.3973C77.9688 30.0845 79.2569 31.3982 81.6834 31.3982Z" fill="#F2AB27"/>
<path id="Vector_7" d="M98.4003 31.3983H108.406C110.743 31.3983 111.791 30.5026 111.791 28.5021V28.3529C111.791 26.4718 110.743 25.7851 108.406 25.7851H102.025V24.2624H105.71C108.106 24.2624 109.095 23.4861 109.095 21.6051V21.5155C109.095 19.7539 108.136 19.0374 105.71 19.0374H102.025V17.7535H108.286C110.623 17.7535 111.671 17.0071 111.671 15.0066V14.8573C111.671 12.9464 110.623 12.0806 108.286 12.0806H98.4003C95.9737 12.0806 94.6855 13.454 94.6855 16.1412V27.3974C94.6855 30.0846 95.9737 31.3983 98.4003 31.3983Z" fill="#F2AB27"/>
<path id="Vector_8" d="M118.082 28.1737C118.082 30.3831 119.1 31.5476 121.107 31.5476H122.156C124.253 31.5476 125.421 30.3831 125.421 28.1737V18.3805H127.608C129.885 18.3805 130.993 17.2757 130.993 15.1857V15.0962C130.993 13.0957 129.885 12.0806 127.608 12.0806H115.775C113.558 12.0806 112.39 13.0957 112.39 15.0962V15.1857C112.39 17.2757 113.558 18.3805 115.775 18.3805H118.082V28.1737Z" fill="#F2AB27"/>
<path id="Vector_9" d="M140.819 31.5476H141.868C143.965 31.5476 145.073 30.3832 145.073 28.1737V23.9639L151.634 14.7081C151.843 14.4095 150.465 11.9612 147.08 11.9612C145.882 11.9612 144.714 12.6479 143.635 14.5289L141.388 18.3208L139.291 14.5289C138.303 12.7076 137.104 11.991 135.876 11.991C132.102 11.991 130.873 14.3498 131.083 14.7081L137.734 23.9639V28.1737C137.734 30.3832 138.812 31.5476 140.819 31.5476Z" fill="#F2AB27"/>
</g>
</g>
</svg>
