<svg width="179" height="32" viewBox="0 0 179 32" fill="none" xmlns="http://www.w3.org/2000/svg">
<g id="Group">
<path id="Vector" d="M0.0844727 28.6534C0.0844727 29.9962 1.07245 31.3986 3.58728 31.3986H14.425C16.5506 31.3986 17.6583 30.5631 17.6583 28.5639V28.2655C17.6583 26.1768 16.5506 25.4309 14.425 25.4309H9.57497L15.862 18.9559C16.8799 17.9115 17.5685 17.2253 17.5685 15.1366V14.8382C17.5685 13.4954 16.5806 12.093 14.0657 12.093H3.58728C1.49159 12.093 0.383857 12.9285 0.383857 14.9277V15.2261C0.383857 17.3148 1.49159 18.0607 3.58728 18.0607H7.89841L1.79097 24.5357C0.832943 25.5502 0.0844727 26.2664 0.0844727 28.3551V28.6534Z" fill="black"/>
<path id="Vector_2" d="M27.4084 11.6465C27.6524 13.4076 29.1703 14.7656 31.0039 14.7656C32.2812 14.7656 33.4053 14.1066 34.0523 13.1114C34.888 13.7476 35.2625 14.5394 35.2625 15.4348C35.2625 17.3743 32.9572 19.1348 32.8075 19.0154C31.4004 17.9412 29.3646 17.1654 27.718 17.1654C26.281 17.1654 25.772 17.4041 25.772 18.0009C25.772 18.6574 27.1492 18.6872 28.8856 19.0453C32.9273 19.9106 35.7115 21.5815 35.7115 25.0428C35.7115 29.5485 32.7177 31.846 26.3109 31.846C23.2572 31.846 21.2513 31.3984 20.0538 30.6823C18.8263 29.9364 18.3772 28.9218 18.3772 27.8178C18.3772 26.1767 20.3831 24.267 20.6226 24.4461C21.9399 25.371 24.5146 26.3259 26.3109 26.3259C27.7779 26.3259 28.3168 26.0872 28.3168 25.4904C28.3168 24.7444 27.1192 24.6848 25.4726 24.3565C22.1495 23.7001 18.7963 22.3574 18.7963 18.2993C18.7963 16.6433 19.2473 15.2705 20.1404 14.2105C20.7 14.5621 21.3625 14.7656 22.0722 14.7656C23.8708 14.7656 25.3656 13.459 25.6523 11.7473C26.205 11.6867 26.7904 11.6529 27.4084 11.6465Z" fill="black"/>
<g id="Group_2">
<path id="Vector_3" d="M40.6535 31.3491H49.0064C51.2817 31.3491 52.3894 30.245 52.3894 28.1563V28.0668C52.3894 26.0676 51.2817 25.0531 49.0064 25.0531H44.2761V15.266C44.2761 12.9983 43.1684 11.8943 41.0727 11.8943H40.0248C38.019 11.8943 36.9412 12.9983 36.9412 15.266V27.3507C36.9412 30.0362 38.2285 31.3491 40.6535 31.3491Z" fill="#00A5FF"/>
<path id="Vector_4" d="M58.6165 31.4982H59.6644C61.76 31.4982 62.8678 30.3345 62.8678 28.1264V23.9192L69.4243 14.6692C69.6339 14.3708 68.2567 11.9241 64.8737 11.9241C63.6761 11.9241 62.5085 12.6104 61.4307 14.4902L59.1854 18.2797L57.0897 14.4902C56.1017 12.67 54.9041 11.9539 53.6767 11.9539C49.9044 11.9539 48.677 14.3112 48.8865 14.6692L55.5329 23.9192V28.1264C55.5329 30.3345 56.6106 31.4982 58.6165 31.4982Z" fill="#00A5FF"/>
<path id="Vector_5" d="M78.376 10.9394C80.771 10.3426 83.8248 8.55227 83.8248 6.37405C83.8248 5.18051 82.8967 4.31519 81.5794 4.31519C80.1723 4.31519 78.8849 5.29986 78.376 6.76195C77.9269 5.41921 76.6994 4.31519 75.2025 4.31519C73.8553 4.31519 72.9272 5.18051 72.9272 6.37405C72.9272 8.55227 75.8911 10.2829 78.376 10.9394ZM69.604 28.6038C69.604 29.9465 70.592 31.349 73.1068 31.349H83.9445C86.0701 31.349 87.1779 30.5135 87.1779 28.5143V28.2159C87.1779 26.1272 86.0701 25.3812 83.9445 25.3812H79.0945L85.3816 18.9063C86.3995 17.8619 87.088 17.1756 87.088 15.0869V14.7885C87.088 13.4458 86.1001 12.0434 83.5853 12.0434H73.1068C71.0111 12.0434 69.9034 12.8789 69.9034 14.8781V15.1764C69.9034 17.2651 71.0111 18.0111 73.1068 18.0111H77.4179L71.3105 24.4861C70.3525 25.5006 69.604 26.2167 69.604 28.3054V28.6038Z" fill="#00A5FF"/>
<path id="Vector_6" d="M97.8959 31.7964C103.943 31.7964 108.285 27.5594 108.285 21.6811C108.285 15.8328 103.943 11.5957 97.8959 11.5957C91.8483 11.5957 87.4773 15.8328 87.4773 21.6811C87.4773 27.5594 91.8184 31.7964 97.8959 31.7964ZM97.8959 25.2618C95.89 25.2618 94.6625 23.8892 94.6625 21.6811C94.6625 19.3836 95.86 18.0707 97.8959 18.0707C99.8718 18.0707 101.099 19.4731 101.099 21.6811C101.099 23.8892 99.8718 25.2618 97.8959 25.2618Z" fill="#00A5FF"/>
<path id="Vector_7" d="M118.673 31.4983C120.769 31.4983 121.996 30.7224 122.834 28.7531L128.972 14.4306C129.271 13.7443 126.996 11.8943 124.631 11.8943C123.014 11.8943 121.397 12.9386 120.739 15.2959L118.763 22.1289L116.757 15.2959C116.158 13.237 114.631 11.8943 112.745 11.8943C110.32 11.8943 107.895 13.7443 108.195 14.4306L114.571 28.7531C115.47 30.812 116.577 31.4983 118.673 31.4983Z" fill="#00A5FF"/>
<path id="Vector_8" d="M135.439 10.8499C138.553 10.8499 141.457 9.26842 141.457 6.79181C141.457 5.27005 140.319 4.16602 138.762 4.16602C135.798 4.16602 134.062 8.04503 134.062 9.86519C134.062 10.6708 134.391 10.8499 135.439 10.8499ZM130.709 31.6772C132.265 31.6772 133.792 30.782 134.69 28.2756L134.75 28.1264H140.259L140.289 28.1861C141.307 30.8119 142.924 31.6474 144.45 31.6474C146.636 31.6474 148.612 29.9764 148.342 29.32L141.995 13.8636C141.666 12.7297 140.858 11.8942 137.565 11.8942C134.271 11.8942 133.313 12.7297 132.984 13.8636L126.966 29.4095C126.727 30.0659 128.733 31.6772 130.709 31.6772ZM135.828 22.9942L137.445 18.6079L139.061 22.9942H135.828Z" fill="#00A5FF"/>
<path id="Vector_9" d="M152.504 31.4983H153.102C155.198 31.4983 156.306 30.3345 156.306 28.1265V23.1733L162.054 30.0063C162.982 31.1103 163.491 31.4983 165.138 31.4983H165.736C167.533 31.4983 168.64 30.4837 168.64 28.2757V15.266C168.64 13.058 167.563 11.8943 165.557 11.8943H164.958C162.862 11.8943 161.755 13.058 161.755 15.266V20.3685L156.006 13.3862C155.048 12.312 154.569 11.8943 152.923 11.8943H152.324C150.528 11.8943 149.42 12.9088 149.42 15.1169V28.1265C149.42 30.3345 150.498 31.4983 152.504 31.4983Z" fill="#00A5FF"/>
<path id="Vector_10" d="M172.353 10.8499C175.466 10.8499 178.37 9.26842 178.37 6.79181C178.37 5.27005 177.233 4.16602 175.676 4.16602C172.712 4.16602 170.975 8.04503 170.975 9.86519C170.975 10.6708 171.305 10.8499 172.353 10.8499ZM170.916 28.1264C170.916 30.3345 171.993 31.4982 173.999 31.4982H175.047C177.143 31.4982 178.25 30.3345 178.25 28.1264V15.266C178.25 12.9982 177.143 11.8942 175.047 11.8942H173.999C171.993 11.8942 170.916 12.9982 170.916 15.266V28.1264Z" fill="#00A5FF"/>
</g>
<path id="Vector_11" d="M25.6832 1.26021C25.8114 0.816316 26.2241 0.493813 26.7101 0.498587C27.1924 0.503362 27.5962 0.829052 27.7188 1.27012C28.1325 0.988092 28.7018 1.03205 29.0668 1.39981C29.4777 1.81382 29.4741 2.48141 29.0587 2.89105L27.7313 4.19927L27.7126 6.07094L29.321 5.1454L29.791 3.34802C29.9384 2.78452 30.5163 2.44685 31.0818 2.5938C31.5959 2.72748 31.9227 3.21579 31.8668 3.72697C32.3138 3.61423 32.7993 3.8045 33.0413 4.22229C33.2834 4.64003 33.2059 5.15421 32.8844 5.48377C33.3566 5.69105 33.6176 6.21756 33.4765 6.72809C33.3214 7.28961 32.7389 7.61942 32.1756 7.46481L30.3791 6.97183L28.7744 7.89523L30.4117 8.81167L32.1614 8.31809C32.7236 8.1596 33.3084 8.48549 33.4674 9.04581C33.6069 9.53755 33.3723 10.0465 32.9327 10.2709C33.2541 10.5968 33.3357 11.107 33.0999 11.5254C32.8569 11.9567 32.3553 12.1519 31.8976 12.0262C31.9561 12.5364 31.6328 13.0261 31.1203 13.1631C30.6475 13.2895 30.1636 13.0755 29.93 12.6722C29.8847 12.5941 29.8488 12.5091 29.8243 12.4178L29.3439 10.6328L26.6434 9.1214L23.9237 10.6864L23.74 11.3662C23.74 11.3662 23.4424 12.4664 23.4424 12.4665C23.2903 13.0288 22.7096 13.3617 22.1455 13.2101C21.864 13.1345 21.6397 12.9524 21.5046 12.7192C21.3992 12.5373 21.3481 12.3244 21.3665 12.1064C20.9238 12.2106 20.4469 12.0199 20.2077 11.607C19.9657 11.1893 20.0431 10.6751 20.3647 10.3456C20.1543 10.2533 19.986 10.0977 19.8764 9.90844C19.7397 9.67261 19.6943 9.38447 19.7726 9.10126C19.9276 8.53974 20.5102 8.20993 21.0735 8.36454L22.8699 8.85757L24.498 7.92069L22.8627 7.00549L21.0626 7.49126C20.5893 7.61887 20.1042 7.40508 19.8701 7.00096C19.8253 6.92358 19.7896 6.83924 19.765 6.74873C19.6304 6.25261 19.8743 5.74337 20.3213 5.52624C20.2662 5.46741 20.2186 5.40296 20.1789 5.33453C19.9984 5.02291 19.9829 4.62706 20.1725 4.29053C20.4089 3.87085 20.8904 3.67476 21.338 3.78054C21.2793 3.27144 21.6009 2.78218 22.1122 2.64388C22.6761 2.49126 23.2573 2.82287 23.4105 3.38527L23.895 5.1645L25.596 6.1164L25.6152 4.19241L24.3107 2.85375C24.2484 2.7898 24.1959 2.71992 24.1532 2.64617C23.9165 2.23773 23.9777 1.70635 24.3326 1.36276C24.7051 1.00226 25.2754 0.969736 25.6832 1.26021Z" fill="#00A5FF"/>
</g>
</svg>
