<?xml version="1.0" encoding="UTF-8"?>
<svg id="Vrstva_1" data-name="Vrstva 1" xmlns="http://www.w3.org/2000/svg" viewBox="0 0 473.54 512">
  <defs>
    <style>
      .cls-1 {
        fill: #00a5ff;
      }
    </style>
  </defs>
  <path class="cls-1" d="M413.79,0c-18.26-.06-35.54,8.26-46.87,22.57-11.33,14.31-15.47,33.04-11.22,50.8-24.65-15.19-56.22-13.11-78.67,5.19l-58.68,47.67-95.55-45.51,4.33-8.65c2.11-4.22,.39-9.34-3.82-11.45-4.22-2.11-9.34-.39-11.45,3.82l-4.5,8.93-26.9-12.8c-2.78-1.58-6.2-1.48-8.88,.27s-4.15,4.83-3.83,8.01c.32,3.18,2.39,5.9,5.37,7.07l26.6,12.67-4.98,9.94c-2.11,4.22-.39,9.35,3.82,11.45s9.34,.39,11.45-3.82l5.12-10.24,88.53,42.2-14.9,12.11c-5.2,4.25-9.6,9.39-12.98,15.18-11.93,25.14-3.64,55.23,19.48,70.71l81.05,51.91-84.1,37.39c-14,6.03-22.54,20.35-21.2,35.52l-106.85-65.15c-2.6-1.62-5.88-1.73-8.58-.27s-4.41,4.26-4.47,7.32c-.06,3.07,1.52,5.93,4.16,7.51l313.38,191.11c24.94,15.34,56.74,13.82,80.1-3.84,3.77-2.83,4.53-8.18,1.7-11.95-2.82-3.77-8.17-4.53-11.94-1.71-17.79,13.43-41.99,14.58-60.98,2.92l-160.61-97.96c.55-.21,1.15-.31,1.71-.55l120.01-53.37c23.7-10.68,34.61-38.27,24.64-62.28-3.7-8.89-10.05-16.44-18.18-21.61l-64.09-45.22,22.18-11.09,30.01,20.87,26.45,18.42c12.94,9.28,30.49,8.75,42.85-1.3l29.01,13.79c2.75,1.31,5.99,1.05,8.51-.68,2.51-1.73,3.91-4.66,3.67-7.7-.24-3.04-2.09-5.72-4.83-7.03l-26.56-12.65c2.03-5.35,2.65-11.13,1.82-16.8-1.43-9.25-6.58-17.51-14.25-22.87l-22.75-15.79,2.56-.54c9.21-1.99,15.06-11.07,13.07-20.28l-5.12-23.59c-.46-2.13-1.18-4.17-1.83-6.24,21.95,11.67,48.83,8.52,67.49-7.9,18.66-16.42,25.2-42.68,16.41-65.93C460.9,15.37,438.64-.01,413.79,0Zm-23.73,192.88c3.85,2.68,6.42,6.82,7.13,11.45,.7,4.63-.54,9.35-3.42,13.05-6.16,7.11-16.75,8.3-24.34,2.73l-20.71-14.42-12.51-8.7-27.45-19.09h-.04l-7.82-5.44c-3.55-2.46-6.03-6.19-6.94-10.42l-3.27-15.16c-.96-4.42-.13-9.05,2.32-12.86,2.45-3.81,6.31-6.49,10.74-7.44l17.31-3.75c4.6-1,7.53-5.53,6.54-10.14-.99-4.61-5.53-7.54-10.14-6.54l-17.31,3.75c-18.41,4-30.11,22.14-26.16,40.56l3.26,15.17c1.53,6.89,5.16,13.13,10.38,17.87l-17.5,8.76c-1,.5-1.9,1.2-2.64,2.04-3.26,3.77-4.71,8.77-3.98,13.7,.68,4.77,3.37,9.03,7.4,11.67l64.72,45.68c5.33,3.34,9.5,8.24,11.94,14.04,6.4,15.43-.61,33.16-15.84,40.03l-120.04,53.43c-4.28,1.9-9.16,1.96-13.49,.16s-7.72-5.3-9.39-9.68c-2.89-8.97,1.61-18.66,10.33-22.24l84.1-37.44c5.73-2.55,9.6-8.05,10.07-14.3s-2.53-12.27-7.81-15.65l-81.05-51.9c-15.59-10.63-21.37-30.89-13.73-48.15,2.32-3.86,5.3-7.29,8.8-10.13l88.25-71.66c20.33-16.61,49.95-15.09,68.47,3.52,7.4,7.39,12.51,16.76,14.7,26.99l5.12,23.59-12.11,2.56c-4.99,1.07-8.87,5-9.87,10-1,5.01,1.07,10.13,5.26,13.03l30.69,21.37Zm23.73-90.5c-23.56,0-42.66-19.1-42.66-42.65s19.1-42.66,42.66-42.66,42.66,19.1,42.66,42.66c-.03,23.55-19.11,42.63-42.66,42.65Z"/>
  <path class="cls-1" d="M76.79,238.88c3.81,0,7.15-2.52,8.21-6.17,1.05-3.66-.45-7.57-3.68-9.59L13.07,180.46c-4.01-2.5-9.28-1.27-11.77,2.73-2.5,4.01-1.28,9.28,2.73,11.77l68.25,42.66c1.36,.83,2.92,1.27,4.51,1.26Z"/>
  <path class="cls-1" d="M63.74,194.93l68.25,42.66c4,2.5,9.28,1.27,11.77-2.73,2.5-4.01,1.28-9.28-2.73-11.77l-68.25-42.65c-4-2.5-9.28-1.28-11.77,2.73-2.5,4-1.27,9.28,2.73,11.77Z"/>
</svg>