<svg width="149" height="29" viewBox="0 0 149 29" fill="none" xmlns="http://www.w3.org/2000/svg">
<g id="Group">
<g id="Group_2">
<path id="Vector" d="M0.0893555 25.6532C0.0893555 26.9959 1.07732 28.3984 3.59215 28.3984H14.4299C16.5555 28.3984 17.6632 27.5629 17.6632 25.5637V25.2653C17.6632 23.1766 16.5555 22.4306 14.4299 22.4306H9.57984L15.8669 15.9557C16.8848 14.9113 17.5734 14.225 17.5734 12.1363V11.8379C17.5734 10.4952 16.5854 9.09277 14.0706 9.09277H3.59215C1.49646 9.09277 0.38874 9.92825 0.38874 11.9274V12.2258C0.38874 14.3145 1.49646 15.0605 3.59215 15.0605H7.90328L1.79584 21.5355C0.837814 22.55 0.0893555 23.2661 0.0893555 25.3548V25.6532Z" fill="black"/>
<path id="Vector_2" d="M25.588 8.75513C25.7747 10.2486 27.3495 11.068 29.2619 11.2172C30.8827 11.3437 32.2695 10.5722 32.7618 9.40182C33.0308 9.5082 33.2765 9.62443 33.5003 9.7495C34.7277 10.4358 35.2666 11.3608 35.2666 12.435C35.2666 14.3745 32.9614 16.135 32.8117 16.0156C31.4046 14.9414 29.3688 14.1656 27.7221 14.1656C26.2851 14.1656 25.7761 14.4043 25.7761 15.0011C25.7761 15.6576 27.1533 15.6874 28.8897 16.0455C32.9314 16.9108 35.7157 18.5817 35.7157 22.043C35.7157 26.5486 32.7219 28.8462 26.315 28.8462C23.2613 28.8462 21.2554 28.3986 20.0579 27.6825C18.8304 26.9365 18.3813 25.922 18.3813 24.818C18.3813 23.1769 20.3872 21.2672 20.6267 21.4462C21.944 22.3712 24.5187 23.3261 26.315 23.3261C27.782 23.3261 28.3209 23.0874 28.3209 22.4906C28.3209 21.7446 27.1234 21.6849 25.4768 21.3567C22.1536 20.7003 18.8005 19.3575 18.8005 15.2995C18.8005 11.5629 21.0963 9.26795 25.588 8.75513Z" fill="black"/>
</g>
<path id="Vector_3" d="M29.2852 2.87487C32.0935 2.55724 33.0061 0.730221 33.0091 0.730221C33.0552 0.639164 33.1643 0.603789 33.2529 0.651133C33.2975 0.675053 33.3305 0.71703 33.3437 0.76701C34.2772 4.02275 33.7677 6.26743 32.6963 7.59912C32.2815 8.11821 31.7501 8.5258 31.1481 8.78684C30.5936 9.02873 29.9916 9.13367 29.3905 9.09324C28.2396 9.01048 27.189 8.37833 26.7014 7.24576C26.5765 6.95623 26.4958 6.64865 26.4621 6.3338C26.394 5.70276 26.5138 5.06532 26.8057 4.5058C27.119 3.90873 27.6179 3.43698 28.2227 3.1659C28.5602 3.01303 28.9186 2.91485 29.2852 2.87487ZM23.9571 2.49611C21.9509 2.26924 21.299 0.96404 21.2968 0.96404C21.264 0.898991 21.186 0.873741 21.1228 0.907558C21.0908 0.924665 21.0673 0.954656 21.0578 0.990314C20.391 3.31613 20.7549 4.91966 21.5203 5.87102C21.8166 6.24181 22.1962 6.53299 22.6263 6.71948C23.0224 6.8923 23.4525 6.96723 23.8819 6.93834C24.704 6.87926 25.4546 6.42765 25.8029 5.61858C25.8921 5.41174 25.9498 5.19203 25.9739 4.96709C26.0225 4.51628 25.9369 4.06091 25.7284 3.66122C25.5045 3.23468 25.1481 2.89769 24.7161 2.70404C24.4751 2.59478 24.219 2.52465 23.9571 2.49611Z" fill="#5CAE13"/>
<g id="Group_3">
<path id="Vector_4" d="M40.6762 28.3984H50.6757C53.0109 28.3984 54.0587 27.5032 54.0587 25.504V25.3548C54.0587 23.475 53.0109 22.7887 50.6757 22.7887H44.2988V21.2669H47.9812C50.3763 21.2669 51.3643 20.4911 51.3643 18.6113V18.5218C51.3643 16.7613 50.4062 16.0452 47.9812 16.0452H44.2988V14.7621H50.5559C52.8911 14.7621 53.939 14.0162 53.939 12.017V11.8678C53.939 9.95811 52.8911 9.09277 50.5559 9.09277H40.6762C38.2512 9.09277 36.9639 10.4654 36.9639 13.1508V24.4C36.9639 27.0855 38.2512 28.3984 40.6762 28.3984Z" fill="#5CAE13"/>
<path id="Vector_5" d="M58.6388 28.5476H59.2376C61.3333 28.5476 62.441 27.3839 62.441 25.1758V20.2226L68.1892 27.0556C69.1173 28.1597 69.6262 28.5476 71.2729 28.5476H71.8716C73.6679 28.5476 74.7756 27.533 74.7756 25.325V12.3154C74.7756 10.1073 73.6979 8.9436 71.692 8.9436H71.0932C68.9975 8.9436 67.8898 10.1073 67.8898 12.3154V17.4178L62.1416 10.4355C61.1836 9.36134 60.7046 8.9436 59.058 8.9436H58.4592C56.6629 8.9436 55.5552 9.95813 55.5552 12.1662V25.1758C55.5552 27.3839 56.633 28.5476 58.6388 28.5476Z" fill="#5CAE13"/>
<path id="Vector_6" d="M86.3625 28.5476C88.4582 28.5476 89.6856 27.7718 90.5239 25.8024L96.6613 11.4799C96.9607 10.7936 94.6854 8.9436 92.3202 8.9436C90.7036 8.9436 89.0869 9.98795 88.4282 12.3452L86.4523 19.1783L84.4464 12.3452C83.8476 10.2863 82.3208 8.9436 80.4347 8.9436C78.0097 8.9436 75.5846 10.7936 75.884 11.4799L82.2609 25.8024C83.1591 27.8613 84.2668 28.5476 86.3625 28.5476Z" fill="#5CAE13"/>
<path id="Vector_7" d="M97.978 25.1758C97.978 27.3839 99.0558 28.5476 101.062 28.5476H102.11C104.205 28.5476 105.313 27.3839 105.313 25.1758V12.3154C105.313 10.0476 104.205 8.9436 102.11 8.9436H101.062C99.0558 8.9436 97.978 10.0476 97.978 12.3154V25.1758Z" fill="#5CAE13"/>
<path id="Vector_8" d="M110.673 28.5476H111.72C113.816 28.5476 114.924 27.3838 114.924 25.1758V22.7887H115.223L117.139 25.4145C118.666 27.533 119.744 28.5476 122.109 28.5476C125.253 28.5476 126.48 26.3992 126.27 26.1306L122.349 21.2371L122.738 21.0581C124.863 20.0435 125.941 18.1339 125.941 15.6871C125.941 11.4202 123.187 9.09277 117.498 9.09277H111.301C108.876 9.09277 107.589 10.4654 107.589 13.1508V24.2508C107.589 26.9363 108.667 28.5476 110.673 28.5476ZM114.804 18.0145V14.5234H116.57C118.007 14.5234 118.636 15.1202 118.636 16.2839C118.636 17.4177 117.948 18.0145 116.6 18.0145H114.804Z" fill="#5CAE13"/>
<path id="Vector_9" d="M137.767 28.846C143.814 28.846 148.155 24.6089 148.155 18.7307C148.155 12.8824 143.814 8.64526 137.767 8.64526C131.719 8.64526 127.348 12.8824 127.348 18.7307C127.348 24.6089 131.689 28.846 137.767 28.846ZM137.767 22.3114C135.761 22.3114 134.533 20.9388 134.533 18.7307C134.533 16.4332 135.731 15.1202 137.767 15.1202C139.743 15.1202 140.97 16.5227 140.97 18.7307C140.97 20.9388 139.743 22.3114 137.767 22.3114Z" fill="#5CAE13"/>
</g>
</g>
</svg>
